STARTFONT 2.1
COMMENT
COMMENT Converted from OpenType font "Q:\font stuff\winfont\FreeSans.ttf" by "otf2bdf 3.0".
COMMENT
FONT -FreeType-FreeSans-Medium-R-Normal--32-320-72-72-P-177-ISO10646-1
SIZE 32 72 72
FONTBOUNDINGBOX 98 47 -37 -11
STARTPROPERTIES 19
FOUNDRY "FreeType"
FAMILY_NAME "FreeSans"
WEIGHT_NAME "Medium"
SLANT "R"
SETWIDTH_NAME "Normal"
ADD_STYLE_NAME ""
PIXEL_SIZE 32
POINT_SIZE 320
RESOLUTION_X 72
RESOLUTION_Y 72
SPACING "P"
AVERAGE_WIDTH 177
CHARSET_REGISTRY "ISO10646"
CHARSET_ENCODING "1"
FONT_ASCENT 28
FONT_DESCENT 6
COPYRIGHT "Copyright 2002, 2003, 2005, 2008, 2009, 2010, 2012 GNU Freefont contributors."
_OTF_FONTFILE "Q:\font stuff\winfont\FreeSans.ttf"
_OTF_PSNAME "FreeSans"
DEFAULT_CHAR 9633
ENDPROPERTIES
CHARS 4472
STARTCHAR 0020
ENCODING 32
SWIDTH 250 0
DWIDTH 8 0
BBX 0 0 0 0
BITMAP
ENDCHAR
STARTCHAR 0021
ENCODING 33
SWIDTH 343 0
DWIDTH 11 0
BBX 3 24 4 0
BITMAP
E0
E0
E0
E0
E0
E0
E0
E0
E0
E0
E0
E0
E0
E0
E0
E0
40
40
40
00
00
E0
E0
E0
ENDCHAR
STARTCHAR 0022
ENCODING 34
SWIDTH 343 0
DWIDTH 11 0
BBX 8 8 1 15
BITMAP
E7
E7
E7
E7
E7
E7
42
42
ENDCHAR
STARTCHAR 0023
ENCODING 35
SWIDTH 562 0
DWIDTH 18 0
BBX 18 22 0 0
BITMAP
018600
038600
038600
030E00
030E00
3FFFC0
3FFFC0
3FFFC0
061C00
061C00
061C00
0E1800
0E1800
FFFF00
FFFF00
FFFF00
0C3000
1C3000
1C3000
187000
187000
186000
ENDCHAR
STARTCHAR 0024
ENCODING 36
SWIDTH 562 0
DWIDTH 18 0
BBX 16 27 1 -2
BITMAP
0180
07E0
1FF8
3FFC
79BC
F19E
E18E
E18E
E180
E180
F180
7D80
3FC0
1FF8
07FC
01BE
018F
0187
E187
E187
E18F
799E
7FFE
3FFC
0FF0
0180
0180
ENDCHAR
STARTCHAR 0025
ENCODING 37
SWIDTH 875 0
DWIDTH 28 0
BBX 26 23 1 -1
BITMAP
00003000
1F003000
3F806000
7FC06000
E0E0C000
C060C000
C0618000
C0618000
E0E30000
7FC70000
3F860000
1F0C0000
000C1E00
00183F00
00187F80
0030E1C0
0030C0C0
0060C0C0
00E0C0C0
00C0E1C0
01C07F80
01803F00
03801E00
ENDCHAR
STARTCHAR 0026
ENCODING 38
SWIDTH 656 0
DWIDTH 21 0
BBX 18 23 2 0
BITMAP
03C000
07E000
0FF000
1E7800
1C3800
1C3800
1C3800
0E7800
0EF000
07E000
078000
0F8000
3DC380
70E380
F07780
E03F00
E03E00
E01E00
F03F00
787F00
7FF380
3FE3C0
0F81C0
ENDCHAR
STARTCHAR 0027
ENCODING 39
SWIDTH 187 0
DWIDTH 6 0
BBX 3 8 2 15
BITMAP
E0
E0
E0
E0
E0
E0
40
40
ENDCHAR
STARTCHAR 0028
ENCODING 40
SWIDTH 343 0
DWIDTH 11 0
BBX 7 30 2 -7
BITMAP
06
06
0C
1C
18
38
30
70
70
70
60
E0
E0
E0
E0
E0
E0
E0
E0
60
70
70
70
30
38
18
18
0C
0C
06
ENDCHAR
STARTCHAR 0029
ENCODING 41
SWIDTH 343 0
DWIDTH 11 0
BBX 7 30 2 -7
BITMAP
C0
C0
60
70
30
38
18
18
1C
1C
0C
0E
0E
0E
0E
0E
0E
0E
0E
0C
1C
1C
1C
18
38
30
30
60
60
C0
ENDCHAR
STARTCHAR 002A
ENCODING 42
SWIDTH 375 0
DWIDTH 12 0
BBX 9 9 1 15
BITMAP
0800
0800
0800
FF80
7F00
1C00
3600
3700
2200
ENDCHAR
STARTCHAR 002B
ENCODING 43
SWIDTH 593 0
DWIDTH 19 0
BBX 14 14 2 0
BITMAP
0300
0300
0300
0300
0300
FFFC
FFFC
FFFC
0300
0300
0300
0300
0300
0300
ENDCHAR
STARTCHAR 002C
ENCODING 44
SWIDTH 281 0
DWIDTH 9 0
BBX 3 8 3 -5
BITMAP
E0
E0
E0
20
20
20
60
C0
ENDCHAR
STARTCHAR 002D
ENCODING 45
SWIDTH 343 0
DWIDTH 11 0
BBX 7 3 1 8
BITMAP
FE
FE
FE
ENDCHAR
STARTCHAR 002E
ENCODING 46
SWIDTH 250 0
DWIDTH 8 0
BBX 3 3 3 0
BITMAP
E0
E0
E0
ENDCHAR
STARTCHAR 002F
ENCODING 47
SWIDTH 281 0
DWIDTH 9 0
BBX 9 24 0 0
BITMAP
0180
0180
0300
0300
0300
0200
0600
0600
0400
0C00
0C00
0C00
1800
1800
1800
1000
3000
3000
2000
6000
6000
6000
C000
C000
ENDCHAR
STARTCHAR 0030
ENCODING 48
SWIDTH 562 0
DWIDTH 18 0
BBX 15 23 1 0
BITMAP
07C0
1FF0
3FF8
3C78
783C
701C
F01E
E00E
E00E
E00E
E00E
E00E
E00E
E00E
E00E
E00E
F01E
701C
703C
3C78
3FF8
1FF0
07C0
ENDCHAR
STARTCHAR 0031
ENCODING 49
SWIDTH 562 0
DWIDTH 18 0
BBX 7 23 4 0
BITMAP
06
06
0E
0E
3E
FE
FE
0E
0E
0E
0E
0E
0E
0E
0E
0E
0E
0E
0E
0E
0E
0E
0E
ENDCHAR
STARTCHAR 0032
ENCODING 50
SWIDTH 562 0
DWIDTH 18 0
BBX 15 23 1 0
BITMAP
07E0
1FF8
3FFC
3C3C
781E
700E
700E
000E
000E
001E
001C
0078
00F0
03E0
0F80
1E00
3C00
7800
7000
7000
FFFE
FFFE
FFFE
ENDCHAR
STARTCHAR 0033
ENCODING 51
SWIDTH 562 0
DWIDTH 18 0
BBX 14 23 2 0
BITMAP
0FC0
3FE0
7FF0
7878
F038
E038
E038
0038
0070
07E0
07C0
07F0
0078
003C
001C
001C
E01C
E01C
E03C
7078
7FF0
3FE0
0FC0
ENDCHAR
STARTCHAR 0034
ENCODING 52
SWIDTH 562 0
DWIDTH 18 0
BBX 15 23 1 0
BITMAP
0070
0070
00F0
01F0
01F0
03F0
0770
0670
0C70
1C70
1870
3070
7070
6070
C070
FFFE
FFFE
FFFE
0070
0070
0070
0070
0070
ENDCHAR
STARTCHAR 0035
ENCODING 53
SWIDTH 562 0
DWIDTH 18 0
BBX 16 23 1 0
BITMAP
3FFE
3FFE
3FFE
3800
3800
7800
7000
73E0
77F8
7FFC
783E
000E
000F
0007
0007
0007
0007
E00F
F00E
783E
7FFC
3FF8
07E0
ENDCHAR
STARTCHAR 0036
ENCODING 54
SWIDTH 562 0
DWIDTH 18 0
BBX 16 23 1 0
BITMAP
03E0
0FF8
1FFC
3C1E
780E
700E
7000
E000
E3E0
EFF8
FFFC
FC1E
F00F
E007
E007
E007
E007
6007
700E
7C3E
3FFC
1FF8
07E0
ENDCHAR
STARTCHAR 0037
ENCODING 55
SWIDTH 562 0
DWIDTH 18 0
BBX 15 23 1 0
BITMAP
FFFE
FFFE
FFFE
000C
001C
0038
0030
0070
0060
00E0
01C0
01C0
0380
0380
0300
0700
0700
0E00
0E00
0E00
0C00
1C00
1C00
ENDCHAR
STARTCHAR 0038
ENCODING 56
SWIDTH 562 0
DWIDTH 18 0
BBX 16 23 1 0
BITMAP
07E0
1FF8
3FFC
3C3C
700E
700E
700E
700E
3C3C
1FF8
0FF0
3FFC
7C3E
700E
E007
E007
E007
E007
F00F
781E
3FFC
1FF8
07E0
ENDCHAR
STARTCHAR 0039
ENCODING 57
SWIDTH 562 0
DWIDTH 18 0
BBX 15 23 1 0
BITMAP
07C0
1FF0
3FF8
783C
701C
E00C
E00E
E00E
E00E
E00E
F01E
783E
3FFE
1FEE
0F8E
000E
001C
001C
703C
7878
7FF0
3FE0
0FC0
ENDCHAR
STARTCHAR 003A
ENCODING 58
SWIDTH 250 0
DWIDTH 8 0
BBX 3 17 3 0
BITMAP
E0
E0
E0
00
00
00
00
00
00
00
00
00
00
00
E0
E0
E0
ENDCHAR
STARTCHAR 003B
ENCODING 59
SWIDTH 250 0
DWIDTH 8 0
BBX 3 21 3 -5
BITMAP
E0
E0
E0
00
00
00
00
00
00
00
00
00
00
E0
E0
E0
20
20
20
60
C0
ENDCHAR
STARTCHAR 003C
ENCODING 60
SWIDTH 593 0
DWIDTH 19 0
BBX 16 15 1 1
BITMAP
0003
001F
007E
01F8
0FC0
3F00
F800
F000
7E00
1F80
07E0
00FC
003F
0007
0001
ENDCHAR
STARTCHAR 003D
ENCODING 61
SWIDTH 593 0
DWIDTH 19 0
BBX 15 8 2 4
BITMAP
FFFE
FFFE
FFFE
0000
0000
FFFE
FFFE
FFFE
ENDCHAR
STARTCHAR 003E
ENCODING 62
SWIDTH 593 0
DWIDTH 19 0
BBX 15 15 2 1
BITMAP
C000
F000
7E00
1F80
07E0
00FC
003E
000E
007E
01F8
0FC0
3F00
FC00
E000
8000
ENDCHAR
STARTCHAR 003F
ENCODING 63
SWIDTH 562 0
DWIDTH 18 0
BBX 14 24 2 0
BITMAP
0FC0
3FF0
7FF8
7878
F03C
E01C
E01C
001C
001C
0038
0038
0070
00E0
01C0
0380
0380
0380
0380
0000
0000
0000
0380
0380
0380
ENDCHAR
STARTCHAR 0040
ENCODING 64
SWIDTH 1000 0
DWIDTH 32 0
BBX 30 29 1 -5
BITMAP
000FF000
007FFE00
01FFFF00
03F01FC0
078003E0
0F0001F0
1E0000F0
3C07C078
381FEE38
703C6E3C
70703C1C
70E03C1C
E0E03C1C
E1C0381C
E1C0381C
E1C03838
E1C07038
E1C07078
E1E0F0F0
70F1F1E0
707F7FC0
783E3F00
3C000000
1E000000
0F800000
07E01800
03FFFC00
00FFFC00
001FE000
ENDCHAR
STARTCHAR 0041
ENCODING 65
SWIDTH 656 0
DWIDTH 21 0
BBX 20 24 1 0
BITMAP
00F000
01F000
01F000
01F800
03B800
03BC00
039C00
071C00
071E00
0E0E00
0E0E00
0E0F00
1C0700
1C0700
1FFF80
3FFF80
3FFF80
3803C0
7801C0
7001C0
7001E0
F000E0
E000E0
E000F0
ENDCHAR
STARTCHAR 0042
ENCODING 66
SWIDTH 656 0
DWIDTH 21 0
BBX 17 24 3 0
BITMAP
FFF000
FFFC00
FFFE00
E01E00
E00F00
E00700
E00700
E00700
E00F00
E01E00
FFFC00
FFFC00
FFFE00
E00F00
E00780
E00380
E00380
E00380
E00380
E00780
E00F00
FFFF00
FFFE00
FFF800
ENDCHAR
STARTCHAR 0043
ENCODING 67
SWIDTH 718 0
DWIDTH 23 0
BBX 20 24 1 0
BITMAP
01FE00
07FF80
0FFFC0
1F03E0
3C00E0
7800F0
700070
700000
E00000
E00000
E00000
E00000
E00000
E00000
E00000
E00070
700070
7000F0
7800E0
3C01E0
1F03C0
0FFF80
07FF00
01FC00
ENDCHAR
STARTCHAR 0044
ENCODING 68
SWIDTH 687 0
DWIDTH 22 0
BBX 18 24 3 0
BITMAP
FFF000
FFFC00
FFFE00
E01F00
E00700
E00780
E00380
E00380
E001C0
E001C0
E001C0
E001C0
E001C0
E001C0
E001C0
E001C0
E00380
E00380
E00780
E00700
E01F00
FFFE00
FFFC00
FFF000
ENDCHAR
STARTCHAR 0045
ENCODING 69
SWIDTH 625 0
DWIDTH 20 0
BBX 16 24 3 0
BITMAP
FFFF
FFFF
FFFF
E000
E000
E000
E000
E000
E000
E000
FFFE
FFFE
FFFE
E000
E000
E000
E000
E000
E000
E000
E000
FFFF
FFFF
FFFF
ENDCHAR
STARTCHAR 0046
ENCODING 70
SWIDTH 593 0
DWIDTH 19 0
BBX 15 24 3 0
BITMAP
FFFE
FFFE
FFFE
E000
E000
E000
E000
E000
E000
E000
FFFC
FFFC
FFFC
E000
E000
E000
E000
E000
E000
E000
E000
E000
E000
E000
ENDCHAR
STARTCHAR 0047
ENCODING 71
SWIDTH 750 0
DWIDTH 24 0
BBX 22 24 1 0
BITMAP
00FF00
03FFC0
0FFFE0
1F81F0
3E0078
38003C
78001C
700000
F00000
E00000
E00000
E007FC
E007FC
E007FC
E0001C
F0001C
70001C
78003C
38003C
3E007C
1F81FC
0FFFDC
07FF0C
00FC0C
ENDCHAR
STARTCHAR 0048
ENCODING 72
SWIDTH 718 0
DWIDTH 23 0
BBX 18 24 3 0
BITMAP
E001C0
E001C0
E001C0
E001C0
E001C0
E001C0
E001C0
E001C0
E001C0
E001C0
FFFFC0
FFFFC0
FFFFC0
E001C0
E001C0
E001C0
E001C0
E001C0
E001C0
E001C0
E001C0
E001C0
E001C0
E001C0
ENDCHAR
STARTCHAR 0049
ENCODING 73
SWIDTH 281 0
DWIDTH 9 0
BBX 3 24 3 0
BITMAP
E0
E0
E0
E0
E0
E0
E0
E0
E0
E0
E0
E0
E0
E0
E0
E0
E0
E0
E0
E0
E0
E0
E0
E0
ENDCHAR
STARTCHAR 004A
ENCODING 74
SWIDTH 531 0
DWIDTH 17 0
BBX 13 24 1 0
BITMAP
0038
0038
0038
0038
0038
0038
0038
0038
0038
0038
0038
0038
0038
0038
0038
0038
E038
E038
E038
E078
F0F0
7FF0
3FE0
0F80
ENDCHAR
STARTCHAR 004B
ENCODING 75
SWIDTH 687 0
DWIDTH 22 0
BBX 18 24 3 0
BITMAP
E003C0
E00780
E00F00
E01E00
E03C00
E07800
E0F000
E1E000
E3C000
E38000
E78000
EFC000
FDE000
F8E000
F07000
E07800
E03800
E01C00
E01E00
E00F00
E00700
E00780
E003C0
E001C0
ENDCHAR
STARTCHAR 004C
ENCODING 76
SWIDTH 562 0
DWIDTH 18 0
BBX 14 24 3 0
BITMAP
E000
E000
E000
E000
E000
E000
E000
E000
E000
E000
E000
E000
E000
E000
E000
E000
E000
E000
E000
E000
E000
FFFC
FFFC
FFFC
ENDCHAR
STARTCHAR 004D
ENCODING 77
SWIDTH 843 0
DWIDTH 27 0
BBX 22 24 3 0
BITMAP
F0003C
F8007C
F8007C
F8007C
FC00FC
EC00FC
EC00DC
EE01DC
EE01DC
E6019C
E7039C
E7039C
E3031C
E3871C
E3871C
E1861C
E1CE1C
E1CE1C
E0CC1C
E0FC1C
E0FC1C
E0781C
E0781C
E0781C
ENDCHAR
STARTCHAR 004E
ENCODING 78
SWIDTH 718 0
DWIDTH 23 0
BBX 18 24 3 0
BITMAP
F001C0
F001C0
F801C0
F801C0
FC01C0
EE01C0
EE01C0
E701C0
E701C0
E381C0
E1C1C0
E1C1C0
E0E1C0
E0E1C0
E071C0
E079C0
E039C0
E01DC0
E01DC0
E00FC0
E00FC0
E007C0
E003C0
E003C0
ENDCHAR
STARTCHAR 004F
ENCODING 79
SWIDTH 781 0
DWIDTH 25 0
BBX 23 24 1 0
BITMAP
00FE00
03FF80
0FFFE0
1F01F0
3C0078
380038
78003C
70001C
F0001E
E0000E
E0000E
E0000E
E0000E
E0000E
E0000E
F0001E
70001C
70003C
380038
3C0078
1F01F0
0FFFE0
07FFC0
00FE00
ENDCHAR
STARTCHAR 0050
ENCODING 80
SWIDTH 656 0
DWIDTH 21 0
BBX 16 24 3 0
BITMAP
FFF0
FFFC
FFFE
E01E
E00F
E007
E007
E007
E007
E00F
E01E
FFFE
FFFC
FFF0
E000
E000
E000
E000
E000
E000
E000
E000
E000
E000
ENDCHAR
STARTCHAR 0051
ENCODING 81
SWIDTH 781 0
DWIDTH 25 0
BBX 23 25 1 -2
BITMAP
00FE00
03FF80
0FFFE0
1F01F0
3C00F8
380038
78003C
70001C
F0001E
E0000E
E0000E
E0000E
E0000E
E0000E
E0000E
F0001E
70001C
70033C
3807B8
3C01F8
1F01F0
0FFFF8
07FFB8
00FE1C
00000C
ENDCHAR
STARTCHAR 0052
ENCODING 82
SWIDTH 718 0
DWIDTH 23 0
BBX 18 24 3 0
BITMAP
FFF800
FFFE00
FFFF00
E00F00
E00780
E00380
E00380
E00380
E00380
E00700
E00F00
FFFE00
FFFC00
FFFF00
E00F00
E00780
E00380
E00380
E00380
E00380
E00380
E00380
E00380
E003C0
ENDCHAR
STARTCHAR 0053
ENCODING 83
SWIDTH 656 0
DWIDTH 21 0
BBX 19 24 1 0
BITMAP
03F800
0FFE00
1FFF00
3C0F80
7803C0
7001C0
7001C0
700000
780000
7C0000
3F8000
1FF800
03FF00
007F80
0007C0
0001E0
E000E0
E000E0
F000E0
7001C0
7C07C0
3FFF80
1FFF00
03F800
ENDCHAR
STARTCHAR 0054
ENCODING 84
SWIDTH 625 0
DWIDTH 20 0
BBX 17 24 2 0
BITMAP
FFFF80
FFFF80
FFFF80
01C000
01C000
01C000
01C000
01C000
01C000
01C000
01C000
01C000
01C000
01C000
01C000
01C000
01C000
01C000
01C000
01C000
01C000
01C000
01C000
01C000
ENDCHAR
STARTCHAR 0055
ENCODING 85
SWIDTH 718 0
DWIDTH 23 0
BBX 17 24 3 0
BITMAP
E00380
E00380
E00380
E00380
E00380
E00380
E00380
E00380
E00380
E00380
E00380
E00380
E00380
E00380
E00380
E00380
E00380
E00380
E00780
700700
7C1F00
3FFE00
1FFC00
07F000
ENDCHAR
STARTCHAR 0056
ENCODING 86
SWIDTH 656 0
DWIDTH 21 0
BBX 19 24 1 0
BITMAP
E000E0
E001E0
F001C0
7001C0
7001C0
780380
380380
380380
3C0700
1C0700
1C0700
1E0E00
0E0E00
0E0E00
071C00
071C00
071C00
03B800
03B800
03B800
01F000
01F000
01F000
00E000
ENDCHAR
STARTCHAR 0057
ENCODING 87
SWIDTH 937 0
DWIDTH 30 0
BBX 29 24 0 0
BITMAP
F0078038
70078038
70078038
700F8078
780FC070
380FC070
380FC070
381CC0F0
3C1CE0E0
1C1CE0E0
1C3C60E0
1C3870E0
1C3871C0
0E3871C0
0E7831C0
0E7039C0
0E703980
07703B80
07E01F80
07E01F80
07E01F00
03E00F00
03C00F00
03C00F00
ENDCHAR
STARTCHAR 0058
ENCODING 88
SWIDTH 656 0
DWIDTH 21 0
BBX 19 24 1 0
BITMAP
F001E0
7801C0
380380
3C0780
1C0700
0E0E00
0F1E00
071C00
03B800
03F800
01F000
00E000
01F000
03F000
03B800
07BC00
0F1C00
0E0E00
1E0F00
3C0780
380380
7803C0
F001E0
E000E0
ENDCHAR
STARTCHAR 0059
ENCODING 89
SWIDTH 687 0
DWIDTH 22 0
BBX 20 24 0 0
BITMAP
F00070
7800F0
3800E0
3C01E0
1C01C0
1E0380
0F0780
070700
078F00
038E00
03DC00
01DC00
00F800
00F800
007000
007000
007000
007000
007000
007000
007000
007000
007000
007000
ENDCHAR
STARTCHAR 005A
ENCODING 90
SWIDTH 625 0
DWIDTH 20 0
BBX 18 24 1 0
BITMAP
7FFFC0
7FFFC0
7FFFC0
000380
000780
000F00
001E00
003C00
003800
007800
00F000
01E000
01C000
03C000
078000
0F0000
1E0000
1C0000
3C0000
780000
F00000
FFFFC0
FFFFC0
FFFFC0
ENDCHAR
STARTCHAR 005B
ENCODING 91
SWIDTH 281 0
DWIDTH 9 0
BBX 6 31 2 -7
BITMAP
FC
FC
FC
E0
E0
E0
E0
E0
E0
E0
E0
E0
E0
E0
E0
E0
E0
E0
E0
E0
E0
E0
E0
E0
E0
E0
E0
E0
FC
FC
FC
ENDCHAR
STARTCHAR 005C
ENCODING 92
SWIDTH 281 0
DWIDTH 9 0
BBX 9 24 0 0
BITMAP
C000
C000
4000
6000
6000
2000
3000
3000
1000
1800
1800
1800
0C00
0C00
0C00
0400
0600
0600
0200
0300
0300
0100
0180
0180
ENDCHAR
STARTCHAR 005D
ENCODING 93
SWIDTH 281 0
DWIDTH 9 0
BBX 6 31 1 -7
BITMAP
FC
FC
FC
1C
1C
1C
1C
1C
1C
1C
1C
1C
1C
1C
1C
1C
1C
1C
1C
1C
1C
1C
1C
1C
1C
1C
1C
1C
FC
FC
FC
ENDCHAR
STARTCHAR 005E
ENCODING 94
SWIDTH 468 0
DWIDTH 15 0
BBX 11 12 2 10
BITMAP
0E00
0E00
1F00
1B00
3B00
3180
3180
71C0
60C0
E0E0
C060
C060
ENDCHAR
STARTCHAR 005F
ENCODING 95
SWIDTH 562 0
DWIDTH 18 0
BBX 20 2 -1 -6
BITMAP
FFFFF0
FFFFF0
ENDCHAR
STARTCHAR 0060
ENCODING 96
SWIDTH 250 0
DWIDTH 8 0
BBX 6 5 1 19
BITMAP
F0
70
38
18
0C
ENDCHAR
STARTCHAR 0061
ENCODING 97
SWIDTH 531 0
DWIDTH 17 0
BBX 16 17 1 0
BITMAP
0FE0
3FF8
3FF8
783C
701C
001C
001C
01FC
3FFC
7F1C
F01C
E01C
E03C
F07C
7FFF
3FDF
1F0F
ENDCHAR
STARTCHAR 0062
ENCODING 98
SWIDTH 562 0
DWIDTH 18 0
BBX 15 24 2 0
BITMAP
E000
E000
E000
E000
E000
E000
E000
E3E0
EFF0
FFF8
F87C
F01C
F01E
E00E
E00E
E00E
E00E
E00E
F01E
F01C
F87C
FFF8
EFF0
E3C0
ENDCHAR
STARTCHAR 0063
ENCODING 99
SWIDTH 500 0
DWIDTH 16 0
BBX 15 17 1 0
BITMAP
07E0
1FF8
3FFC
7C3C
701E
F00E
E000
E000
E000
E000
E000
F00E
701E
783C
3FFC
1FF8
07E0
ENDCHAR
STARTCHAR 0064
ENCODING 100
SWIDTH 562 0
DWIDTH 18 0
BBX 15 24 1 0
BITMAP
000E
000E
000E
000E
000E
000E
000E
0F8E
1FEE
3FFE
7C3E
701E
F01E
E00E
E00E
E00E
E00E
E00E
F01E
701E
7C3E
3FF6
1FE6
0FC6
ENDCHAR
STARTCHAR 0065
ENCODING 101
SWIDTH 531 0
DWIDTH 17 0
BBX 15 17 1 0
BITMAP
07E0
1FF0
3FF8
783C
701C
E00E
FFFE
FFFE
FFFE
E000
E000
F000
701E
783C
3FFC
1FF8
07E0
ENDCHAR
STARTCHAR 0066
ENCODING 102
SWIDTH 281 0
DWIDTH 9 0
BBX 6 24 2 0
BITMAP
1C
3C
7C
70
70
70
70
FC
FC
FC
70
70
70
70
70
70
70
70
70
70
70
70
70
70
ENDCHAR
STARTCHAR 0067
ENCODING 103
SWIDTH 562 0
DWIDTH 18 0
BBX 15 24 1 -7
BITMAP
0F8E
1FEE
3FFE
787E
701E
F01E
E00E
E00E
E00E
E00E
E00E
F01E
701E
783E
3FEE
1FCE
0F8E
000E
001E
E01C
F03C
7FF8
3FF8
0FE0
ENDCHAR
STARTCHAR 0068
ENCODING 104
SWIDTH 531 0
DWIDTH 17 0
BBX 14 24 2 0
BITMAP
E000
E000
E000
E000
E000
E000
E000
E3E0
EFF8
EFFC
F83C
F01C
F01C
E01C
E01C
E01C
E01C
E01C
E01C
E01C
E01C
E01C
E01C
E01C
ENDCHAR
STARTCHAR 0069
ENCODING 105
SWIDTH 218 0
DWIDTH 7 0
BBX 3 24 2 0
BITMAP
E0
E0
E0
00
00
00
00
E0
E0
E0
E0
E0
E0
E0
E0
E0
E0
E0
E0
E0
E0
E0
E0
E0
ENDCHAR
STARTCHAR 006A
ENCODING 106
SWIDTH 250 0
DWIDTH 8 0
BBX 6 31 0 -7
BITMAP
1C
1C
1C
00
00
00
00
1C
1C
1C
1C
1C
1C
1C
1C
1C
1C
1C
1C
1C
1C
1C
1C
1C
1C
1C
1C
1C
FC
F8
F0
ENDCHAR
STARTCHAR 006B
ENCODING 107
SWIDTH 500 0
DWIDTH 16 0
BBX 14 24 2 0
BITMAP
E000
E000
E000
E000
E000
E000
E000
E038
E070
E0E0
E1C0
E380
E700
EF00
FF80
FB80
F1C0
E1E0
E0E0
E0F0
E070
E038
E03C
E01C
ENDCHAR
STARTCHAR 006C
ENCODING 108
SWIDTH 218 0
DWIDTH 7 0
BBX 3 24 2 0
BITMAP
E0
E0
E0
E0
E0
E0
E0
E0
E0
E0
E0
E0
E0
E0
E0
E0
E0
E0
E0
E0
E0
E0
E0
E0
ENDCHAR
STARTCHAR 006D
ENCODING 109
SWIDTH 812 0
DWIDTH 26 0
BBX 22 17 2 0
BITMAP
E3C1F0
EFF3F8
EFF7FC
F87E3C
F03C1C
E0381C
E0381C
E0381C
E0381C
E0381C
E0381C
E0381C
E0381C
E0381C
E0381C
E0381C
E0381C
ENDCHAR
STARTCHAR 006E
ENCODING 110
SWIDTH 531 0
DWIDTH 17 0
BBX 14 17 2 0
BITMAP
E3E0
E7F8
EFFC
F83C
F01C
F01C
E01C
E01C
E01C
E01C
E01C
E01C
E01C
E01C
E01C
E01C
E01C
ENDCHAR
STARTCHAR 006F
ENCODING 111
SWIDTH 531 0
DWIDTH 17 0
BBX 15 17 1 0
BITMAP
07C0
1FF0
3FF8
783C
701C
F01E
E00E
E00E
E00E
E00E
E00E
F01E
701C
783C
3FF8
1FF0
07C0
ENDCHAR
STARTCHAR 0070
ENCODING 112
SWIDTH 562 0
DWIDTH 18 0
BBX 15 22 2 -5
BITMAP
E3C0
EFF0
EFF8
F87C
F01C
F01E
E00E
E00E
E00E
E00E
E00E
F01E
F01C
F87C
FFF8
EFF0
E3E0
E000
E000
E000
E000
E000
ENDCHAR
STARTCHAR 0071
ENCODING 113
SWIDTH 562 0
DWIDTH 18 0
BBX 15 22 1 -5
BITMAP
07C6
1FF6
3FF6
7C3E
701E
F01E
E00E
E00E
E00E
E00E
E00E
F01E
701E
7C3E
3FFE
1FEE
0F8E
000E
000E
000E
000E
000E
ENDCHAR
STARTCHAR 0072
ENCODING 114
SWIDTH 343 0
DWIDTH 11 0
BBX 8 17 2 0
BITMAP
E3
EF
EF
FC
F0
E0
E0
E0
E0
E0
E0
E0
E0
E0
E0
E0
E0
ENDCHAR
STARTCHAR 0073
ENCODING 115
SWIDTH 500 0
DWIDTH 16 0
BBX 13 17 2 0
BITMAP
1F80
3FE0
7FE0
F0F0
E070
E000
F000
7F00
3FE0
0FF0
00F8
0038
E038
F078
7FF0
7FE0
1F80
ENDCHAR
STARTCHAR 0074
ENCODING 116
SWIDTH 281 0
DWIDTH 9 0
BBX 6 20 2 0
BITMAP
70
70
70
FC
FC
FC
70
70
70
70
70
70
70
70
70
70
70
7C
7C
3C
ENDCHAR
STARTCHAR 0075
ENCODING 117
SWIDTH 531 0
DWIDTH 17 0
BBX 14 17 2 0
BITMAP
E01C
E01C
E01C
E01C
E01C
E01C
E01C
E01C
E01C
E01C
E01C
E03C
E03C
F07C
FFDC
7F9C
1F1C
ENDCHAR
STARTCHAR 0076
ENCODING 118
SWIDTH 500 0
DWIDTH 16 0
BBX 15 17 0 0
BITMAP
E00E
700E
700E
301C
381C
3818
1838
1C38
1C30
0C70
0E70
0E60
06E0
07C0
07C0
03C0
0380
ENDCHAR
STARTCHAR 0077
ENCODING 119
SWIDTH 718 0
DWIDTH 23 0
BBX 23 17 0 0
BITMAP
E0380E
703C1C
707C1C
707C1C
306C1C
386E38
38EE38
38EE38
18C630
1CC770
1DC770
0DC770
0D8360
0F83E0
0F83E0
0783C0
0701C0
ENDCHAR
STARTCHAR 0078
ENCODING 120
SWIDTH 468 0
DWIDTH 15 0
BBX 14 17 1 0
BITMAP
E038
7038
7070
38E0
1CE0
1DC0
0F80
0780
0700
0F80
0FC0
1DC0
38E0
3870
7070
E038
E03C
ENDCHAR
STARTCHAR 0079
ENCODING 121
SWIDTH 468 0
DWIDTH 15 0
BBX 15 24 0 -7
BITMAP
E00E
700C
701C
301C
3818
3838
1838
1C70
1C70
0C70
0EE0
0EE0
06C0
07C0
07C0
0380
0380
0380
0700
0700
0F00
7E00
7C00
7800
ENDCHAR
STARTCHAR 007A
ENCODING 122
SWIDTH 500 0
DWIDTH 16 0
BBX 14 17 1 0
BITMAP
7FF8
7FF8
7FF8
0078
0070
00E0
01C0
0380
0700
0E00
1C00
3800
7800
F000
FFFC
FFFC
FFFC
ENDCHAR
STARTCHAR 007B
ENCODING 123
SWIDTH 343 0
DWIDTH 11 0
BBX 7 31 1 -7
BITMAP
0E
0E
1E
1C
1C
1C
1C
1C
1C
1C
1C
1C
1C
3C
F8
E0
F8
38
1C
1C
1C
1C
1C
1C
1C
1C
1C
1C
1E
0E
0E
ENDCHAR
STARTCHAR 007C
ENCODING 124
SWIDTH 250 0
DWIDTH 8 0
BBX 2 30 3 -7
BITMAP
C0
C0
C0
C0
C0
C0
C0
C0
C0
C0
C0
C0
C0
C0
C0
C0
C0
C0
C0
C0
C0
C0
C0
C0
C0
C0
C0
C0
C0
C0
ENDCHAR
STARTCHAR 007D
ENCODING 125
SWIDTH 343 0
DWIDTH 11 0
BBX 7 31 2 -7
BITMAP
E0
F0
F8
38
38
38
38
38
38
38
38
38
38
1C
1E
06
1E
1C
38
38
38
38
38
38
38
38
38
38
F8
F0
E0
ENDCHAR
STARTCHAR 007E
ENCODING 126
SWIDTH 500 0
DWIDTH 16 0
BBX 13 6 1 9
BITMAP
7000
7C00
FF08
87F8
01F8
00F0
ENDCHAR
STARTCHAR 00A0
ENCODING 160
SWIDTH 281 0
DWIDTH 9 0
BBX 0 0 0 0
BITMAP
ENDCHAR
STARTCHAR 00A1
ENCODING 161
SWIDTH 343 0
DWIDTH 11 0
BBX 3 24 4 -7
BITMAP
E0
E0
E0
00
00
40
40
40
E0
E0
E0
E0
E0
E0
E0
E0
E0
E0
E0
E0
E0
E0
E0
E0
ENDCHAR
STARTCHAR 00A2
ENCODING 162
SWIDTH 562 0
DWIDTH 18 0
BBX 15 21 2 -2
BITMAP
0100
0100
07E0
1FF8
3FFC
7D3C
711E
F10E
E100
E100
E100
E100
E100
F10E
711E
7D3C
3FFC
1FF8
07E0
0100
0100
ENDCHAR
STARTCHAR 00A3
ENCODING 163
SWIDTH 562 0
DWIDTH 18 0
BBX 17 24 1 0
BITMAP
03F000
0FFC00
1FFE00
3C1E00
780F00
700700
700700
700000
700000
380000
380000
FFC000
FFC000
0E0000
0E0000
0E0000
0E0000
0C0000
1C0000
180000
37C100
7FFF00
7FFF80
207E00
ENDCHAR
STARTCHAR 00A4
ENCODING 164
SWIDTH 562 0
DWIDTH 18 0
BBX 13 14 3 4
BITMAP
4000
EF30
FFF8
7FF0
70E0
E070
E070
E070
E070
70E0
7FF0
FFF0
EF30
4000
ENDCHAR
STARTCHAR 00A5
ENCODING 165
SWIDTH 562 0
DWIDTH 18 0
BBX 15 23 2 0
BITMAP
C006
E00E
600C
701C
3018
3838
1830
1C70
0C60
0EE0
06C0
07C0
7FFC
7FFC
0380
0380
7FFC
7FFC
0380
0380
0380
0380
0380
ENDCHAR
STARTCHAR 00A6
ENCODING 166
SWIDTH 250 0
DWIDTH 8 0
BBX 2 31 3 -7
BITMAP
C0
C0
C0
C0
C0
C0
C0
C0
C0
C0
C0
C0
C0
00
00
00
00
00
C0
C0
C0
C0
C0
C0
C0
C0
C0
C0
C0
C0
C0
ENDCHAR
STARTCHAR 00A7
ENCODING 167
SWIDTH 562 0
DWIDTH 18 0
BBX 16 31 1 -7
BITMAP
03E0
0FF0
1FF8
3C3C
381C
381C
381C
3C00
1F00
1F80
73E0
61F0
E07C
E01E
E00F
F007
7807
7E07
1F07
0FCE
03FC
01F0
0078
003C
701C
701C
781C
3C38
3FF8
1FF0
07C0
ENDCHAR
STARTCHAR 00A8
ENCODING 168
SWIDTH 343 0
DWIDTH 11 0
BBX 9 3 1 20
BITMAP
E380
E380
E380
ENDCHAR
STARTCHAR 00A9
ENCODING 169
SWIDTH 812 0
DWIDTH 26 0
BBX 23 23 1 0
BITMAP
00FE00
03FF80
0F81E0
1E0070
380038
303E18
70FF1C
61FF8C
E1C1CE
C38006
C30006
C30006
C30006
C30006
C381C6
61C1CC
71F78C
30FF98
383E38
1C0070
0F01E0
03FF80
00FE00
ENDCHAR
STARTCHAR 00AA
ENCODING 170
SWIDTH 375 0
DWIDTH 12 0
BBX 10 14 1 10
BITMAP
3E00
FF80
C180
0180
0380
7F80
E180
C180
C380
FFC0
78C0
0000
FF80
FF80
ENDCHAR
STARTCHAR 00AB
ENCODING 171
SWIDTH 500 0
DWIDTH 16 0
BBX 12 11 2 3
BITMAP
0010
1830
3870
71E0
E1C0
C100
E1C0
71E0
3870
1830
0010
ENDCHAR
STARTCHAR 00AC
ENCODING 172
SWIDTH 593 0
DWIDTH 19 0
BBX 16 9 1 4
BITMAP
FFFF
FFFF
FFFF
0003
0003
0003
0003
0003
0003
ENDCHAR
STARTCHAR 00AD
ENCODING 173
SWIDTH 343 0
DWIDTH 11 0
BBX 7 3 1 8
BITMAP
FE
FE
FE
ENDCHAR
STARTCHAR 00AE
ENCODING 174
SWIDTH 812 0
DWIDTH 26 0
BBX 23 23 1 0
BITMAP
00FE00
03FF80
0F81E0
1E0070
380038
31FE18
71FF1C
61FF8C
E1818E
C18186
C18186
C18786
C1FF06
C1FF06
C18386
61818C
71818C
318198
3981B8
1C0070
0F01E0
03FF80
00FE00
ENDCHAR
STARTCHAR 00AF
ENCODING 175
SWIDTH 343 0
DWIDTH 11 0
BBX 9 3 1 20
BITMAP
FF80
FF80
FF80
ENDCHAR
STARTCHAR 00B0
ENCODING 176
SWIDTH 593 0
DWIDTH 19 0
BBX 10 10 5 12
BITMAP
1E00
7F80
6180
C0C0
C0C0
C0C0
C0C0
6180
7F80
1E00
ENDCHAR
STARTCHAR 00B1
ENCODING 177
SWIDTH 593 0
DWIDTH 19 0
BBX 15 20 2 -1
BITMAP
0300
0300
0300
0300
0300
FFFC
FFFC
FFFC
0300
0300
0300
0300
0300
0300
0000
0000
0000
FFFE
FFFE
FFFE
ENDCHAR
STARTCHAR 00B2
ENCODING 178
SWIDTH 343 0
DWIDTH 11 0
BBX 9 14 1 12
BITMAP
3E00
7F00
E380
C180
0180
0180
0300
0E00
1C00
7000
E000
C000
FF80
FF80
ENDCHAR
STARTCHAR 00B3
ENCODING 179
SWIDTH 343 0
DWIDTH 11 0
BBX 9 14 1 12
BITMAP
3E00
7F00
E380
C180
0180
1F00
1F00
0380
0180
0180
C180
E380
7F00
3E00
ENDCHAR
STARTCHAR 00B4
ENCODING 180
SWIDTH 343 0
DWIDTH 11 0
BBX 6 5 3 19
BITMAP
3C
38
70
60
C0
ENDCHAR
STARTCHAR 00B5
ENCODING 181
SWIDTH 562 0
DWIDTH 18 0
BBX 16 22 2 -5
BITMAP
E01C
E01C
E01C
E01C
E01C
E01C
E01C
E01C
E01C
E01C
E01C
E03C
E03C
F8FC
FFFF
FFDF
EF0F
E000
E000
E000
E000
E000
ENDCHAR
STARTCHAR 00B6
ENCODING 182
SWIDTH 531 0
DWIDTH 17 0
BBX 14 28 2 -4
BITMAP
0FFC
1FFC
3F18
7F18
FF18
FF18
FF18
FF18
FF18
FF18
7F18
7F18
3F18
1F18
0318
0318
0318
0318
0318
0318
0318
0318
0318
0318
0318
0318
0318
0318
ENDCHAR
STARTCHAR 00B7
ENCODING 183
SWIDTH 250 0
DWIDTH 8 0
BBX 3 3 3 7
BITMAP
E0
E0
E0
ENDCHAR
STARTCHAR 00B8
ENCODING 184
SWIDTH 343 0
DWIDTH 11 0
BBX 8 7 2 -7
BITMAP
18
10
3E
07
07
87
7C
ENDCHAR
STARTCHAR 00B9
ENCODING 185
SWIDTH 343 0
DWIDTH 11 0
BBX 5 13 2 13
BITMAP
08
18
38
F8
18
18
18
18
18
18
18
18
18
ENDCHAR
STARTCHAR 00BA
ENCODING 186
SWIDTH 375 0
DWIDTH 12 0
BBX 10 14 1 10
BITMAP
1E00
7F80
6180
C0C0
C0C0
C0C0
C0C0
C0C0
6180
7F80
1E00
0000
FFC0
FFC0
ENDCHAR
STARTCHAR 00BB
ENCODING 187
SWIDTH 500 0
DWIDTH 16 0
BBX 12 11 2 3
BITMAP
8000
C180
E1C0
78E0
3870
0830
3870
78E0
E1C0
C180
8000
ENDCHAR
STARTCHAR 00BC
ENCODING 188
SWIDTH 875 0
DWIDTH 28 0
BBX 25 25 2 -1
BITMAP
08000000
18003000
38002000
F8006000
1800C000
1800C000
18018000
18010000
18030000
18060000
18060000
180C0600
18080E00
18181E00
00301600
00302600
00606600
0040C600
00C18600
0181FF80
0101FF80
03000600
02000600
06000600
0C000000
ENDCHAR
STARTCHAR 00BD
ENCODING 189
SWIDTH 875 0
DWIDTH 28 0
BBX 25 24 2 0
BITMAP
08000000
18003000
38006000
F8004000
1800C000
18018000
18010000
18030000
18060000
18040000
180C3E00
18187F00
1818E380
1830C180
00200180
00600180
00C00300
00800E00
01801C00
03007000
0200E000
0600C000
0C00FF80
0800FF80
ENDCHAR
STARTCHAR 00BE
ENCODING 190
SWIDTH 875 0
DWIDTH 28 0
BBX 26 25 1 -1
BITMAP
3F000000
7F800800
E1C01800
C0C03000
00C03000
01C06000
0F80C000
0F80C000
01C18000
00C18000
00C30000
C0C60300
E1C60700
7F8C0F00
3E0C0F00
00181B00
00383300
00306300
0060C300
0060FFC0
00C0FFC0
01C00300
01800300
03000300
03000000
ENDCHAR
STARTCHAR 00BF
ENCODING 191
SWIDTH 562 0
DWIDTH 18 0
BBX 14 24 3 -7
BITMAP
0700
0700
0700
0000
0000
0000
0700
0700
0700
0700
0E00
1C00
3800
7000
7000
E000
E000
E01C
E01C
F03C
7078
7FF8
3FF0
1FC0
ENDCHAR
STARTCHAR 00C0
ENCODING 192
SWIDTH 656 0
DWIDTH 21 0
BBX 20 29 1 0
BITMAP
038000
01C000
00E000
007000
000000
00F000
01F000
01F000
01F800
03B800
03BC00
039C00
071C00
071E00
0E0E00
0E0E00
0E0F00
1C0700
1C0700
1FFF80
3FFF80
3FFF80
3803C0
7801C0
7001C0
7001E0
F000E0
E000E0
E000F0
ENDCHAR
STARTCHAR 00C1
ENCODING 193
SWIDTH 656 0
DWIDTH 21 0
BBX 20 29 1 0
BITMAP
003800
007000
00E000
01C000
000000
00F000
01F000
01F000
01F800
03B800
03BC00
039C00
071C00
071E00
0E0E00
0E0E00
0E0F00
1C0700
1C0700
1FFF80
3FFF80
3FFF80
3803C0
7801C0
7001C0
7001E0
F000E0
E000E0
E000F0
ENDCHAR
STARTCHAR 00C2
ENCODING 194
SWIDTH 656 0
DWIDTH 21 0
BBX 20 29 1 0
BITMAP
00E000
01F000
03B800
071C00
000000
00F000
01F000
01F000
01F800
03B800
03BC00
039C00
071C00
071E00
0E0E00
0E0E00
0E0F00
1C0700
1C0700
1FFF80
3FFF80
3FFF80
3803C0
7801C0
7001C0
7001E0
F000E0
E000E0
E000F0
ENDCHAR
STARTCHAR 00C3
ENCODING 195
SWIDTH 656 0
DWIDTH 21 0
BBX 20 30 1 1
BITMAP
038C00
07EC00
07FC00
067C00
040000
000000
00F000
01F000
01F000
01F800
03B800
03BC00
039C00
071C00
071E00
0E0E00
0E0E00
0E0F00
1C0700
1C0700
1FFF80
3FFF80
3FFF80
3803C0
7801C0
7001C0
7001E0
F000E0
E000E0
E000F0
ENDCHAR
STARTCHAR 00C4
ENCODING 196
SWIDTH 656 0
DWIDTH 21 0
BBX 20 28 1 1
BITMAP
038E00
038E00
038E00
000000
00F000
01F000
01F000
01F800
03B800
03BC00
039C00
071C00
071E00
0E0E00
0E0E00
0E0F00
1C0700
1C0700
1FFF80
3FFF80
3FFF80
3803C0
7801C0
7001C0
7001E0
F000E0
E000E0
E000F0
ENDCHAR
STARTCHAR 00C5
ENCODING 197
SWIDTH 656 0
DWIDTH 21 0
BBX 20 31 1 1
BITMAP
00F000
01F800
039800
031800
019800
01F800
00E000
00F000
01F000
01F000
01F800
03B800
03BC00
039C00
071C00
071E00
0E0E00
0E0E00
0E0F00
1C0700
1C0700
1FFF80
3FFF80
3FFF80
3803C0
7801C0
7001C0
7001E0
F000E0
E000E0
E000F0
ENDCHAR
STARTCHAR 00C6
ENCODING 198
SWIDTH 968 0
DWIDTH 31 0
BBX 29 24 1 0
BITMAP
007FFFF0
00FFFFF0
00FFFFF0
00E38000
01C38000
01C38000
03838000
03838000
03838000
07038000
0703FFF0
0E03FFF0
0E03FFF0
0E038000
1FFF8000
1FFF8000
3FFF8000
38038000
38038000
70038000
70038000
F003FFF8
E003FFF8
E003FFF8
ENDCHAR
STARTCHAR 00C7
ENCODING 199
SWIDTH 718 0
DWIDTH 23 0
BBX 20 31 1 -7
BITMAP
01FC00
07FF00
0FFFC0
1F03E0
3C01E0
7800F0
700070
700000
E00000
E00000
E00000
E00000
E00000
E00000
E00000
E00070
700070
7000F0
7800E0
3C01E0
1F07C0
1FFF80
07FF00
01FC00
004000
004000
00F800
001C00
001C00
031C00
01F000
ENDCHAR
STARTCHAR 00C8
ENCODING 200
SWIDTH 625 0
DWIDTH 20 0
BBX 16 29 3 0
BITMAP
0E00
0700
0380
01C0
0000
FFFF
FFFF
FFFF
E000
E000
E000
E000
E000
E000
E000
FFFE
FFFE
FFFE
E000
E000
E000
E000
E000
E000
E000
E000
FFFF
FFFF
FFFF
ENDCHAR
STARTCHAR 00C9
ENCODING 201
SWIDTH 625 0
DWIDTH 20 0
BBX 16 29 3 0
BITMAP
01C0
0380
0700
0E00
0000
FFFF
FFFF
FFFF
E000
E000
E000
E000
E000
E000
E000
FFFE
FFFE
FFFE
E000
E000
E000
E000
E000
E000
E000
E000
FFFF
FFFF
FFFF
ENDCHAR
STARTCHAR 00CA
ENCODING 202
SWIDTH 625 0
DWIDTH 20 0
BBX 16 29 3 0
BITMAP
0380
07C0
0EE0
1C70
0000
FFFF
FFFF
FFFF
E000
E000
E000
E000
E000
E000
E000
FFFE
FFFE
FFFE
E000
E000
E000
E000
E000
E000
E000
E000
FFFF
FFFF
FFFF
ENDCHAR
STARTCHAR 00CB
ENCODING 203
SWIDTH 625 0
DWIDTH 20 0
BBX 16 28 3 1
BITMAP
1C70
1C70
1C70
0000
FFFF
FFFF
FFFF
E000
E000
E000
E000
E000
E000
E000
FFFE
FFFE
FFFE
E000
E000
E000
E000
E000
E000
E000
E000
FFFF
FFFF
FFFF
ENDCHAR
STARTCHAR 00CC
ENCODING 204
SWIDTH 281 0
DWIDTH 9 0
BBX 6 29 1 0
BITMAP
E0
70
38
1C
00
38
38
38
38
38
38
38
38
38
38
38
38
38
38
38
38
38
38
38
38
38
38
38
38
ENDCHAR
STARTCHAR 00CD
ENCODING 205
SWIDTH 281 0
DWIDTH 9 0
BBX 6 29 1 0
BITMAP
1C
38
70
E0
00
38
38
38
38
38
38
38
38
38
38
38
38
38
38
38
38
38
38
38
38
38
38
38
38
ENDCHAR
STARTCHAR 00CE
ENCODING 206
SWIDTH 312 0
DWIDTH 10 0
BBX 9 29 1 0
BITMAP
1C00
3E00
7700
E380
0000
3800
3800
3800
3800
3800
3800
3800
3800
3800
3800
3800
3800
3800
3800
3800
3800
3800
3800
3800
3800
3800
3800
3800
3800
ENDCHAR
STARTCHAR 00CF
ENCODING 207
SWIDTH 312 0
DWIDTH 10 0
BBX 9 28 0 1
BITMAP
E380
E380
E380
0000
1C00
1C00
1C00
1C00
1C00
1C00
1C00
1C00
1C00
1C00
1C00
1C00
1C00
1C00
1C00
1C00
1C00
1C00
1C00
1C00
1C00
1C00
1C00
1C00
ENDCHAR
STARTCHAR 00D0
ENCODING 208
SWIDTH 718 0
DWIDTH 23 0
BBX 20 24 1 0
BITMAP
3FFC00
3FFF00
3FFF80
3807C0
3801C0
3800E0
3800E0
3800F0
380070
380070
FFC070
FFC070
FFC070
380070
380070
380070
3800E0
3800E0
3801E0
3801C0
3807C0
3FFF80
3FFF00
3FFC00
ENDCHAR
STARTCHAR 00D1
ENCODING 209
SWIDTH 718 0
DWIDTH 23 0
BBX 18 30 3 0
BITMAP
061800
0F9800
0FF800
0DF800
187000
000000
F001C0
F001C0
F801C0
F801C0
FC01C0
EE01C0
EE01C0
E701C0
E701C0
E381C0
E1C1C0
E1C1C0
E0E1C0
E0E1C0
E071C0
E079C0
E039C0
E01DC0
E01DC0
E00FC0
E00FC0
E007C0
E003C0
E003C0
ENDCHAR
STARTCHAR 00D2
ENCODING 210
SWIDTH 781 0
DWIDTH 25 0
BBX 23 29 1 0
BITMAP
01C000
00E000
007000
003800
000000
00FE00
03FF80
0FFFE0
1F01F0
3C0078
380038
78003C
70001C
F0001E
E0000E
E0000E
E0000E
E0000E
E0000E
E0000E
F0001E
70001C
70003C
380038
3C0078
1F01F0
0FFFE0
07FFC0
00FE00
ENDCHAR
STARTCHAR 00D3
ENCODING 211
SWIDTH 781 0
DWIDTH 25 0
BBX 23 29 1 0
BITMAP
000E00
001C00
003800
007000
000000
00FE00
03FF80
0FFFE0
1F01F0
3C0078
380038
78003C
70001C
F0001E
E0000E
E0000E
E0000E
E0000E
E0000E
E0000E
F0001E
70001C
70003C
380038
3C0078
1F01F0
0FFFE0
07FFC0
00FE00
ENDCHAR
STARTCHAR 00D4
ENCODING 212
SWIDTH 781 0
DWIDTH 25 0
BBX 23 29 1 0
BITMAP
003800
007C00
00EE00
01C700
000000
00FE00
03FF80
0FFFE0
1F01F0
3C0078
380038
78003C
70001C
F0001E
E0000E
E0000E
E0000E
E0000E
E0000E
E0000E
F0001E
70001C
70003C
380038
3C0078
1F01F0
0FFFE0
07FFC0
00FE00
ENDCHAR
STARTCHAR 00D5
ENCODING 213
SWIDTH 781 0
DWIDTH 25 0
BBX 23 30 1 1
BITMAP
00E300
01FB00
01FF00
031E00
030400
000000
00FE00
03FF80
0FFFE0
1F01F0
3C0078
380038
78003C
70001C
F0001E
E0000E
E0000E
E0000E
E0000E
E0000E
E0000E
F0001E
70001C
70003C
380038
3C0078
1F01F0
0FFFE0
07FFC0
00FE00
ENDCHAR
STARTCHAR 00D6
ENCODING 214
SWIDTH 781 0
DWIDTH 25 0
BBX 23 28 1 1
BITMAP
01C700
01C700
01C700
000000
00FE00
03FF80
0FFFE0
1F01F0
3C0078
380038
78003C
70001C
F0001E
E0000E
E0000E
E0000E
E0000E
E0000E
E0000E
F0001E
70001C
70003C
380038
3C0078
1F01F0
0FFFE0
07FFC0
00FE00
ENDCHAR
STARTCHAR 00D7
ENCODING 215
SWIDTH 593 0
DWIDTH 19 0
BBX 12 12 3 2
BITMAP
6030
7070
38E0
1DC0
0F80
0700
0F80
1DC0
38E0
7070
E030
4000
ENDCHAR
STARTCHAR 00D8
ENCODING 216
SWIDTH 781 0
DWIDTH 25 0
BBX 23 24 1 1
BITMAP
00FE06
07FF8E
0FFFDC
1F01F8
3C0078
380078
7800FC
70019C
F0031E
E0060E
E00C0E
E0180E
E0300E
E0600E
E0C00E
F1801E
73001C
7E003C
3C0038
3C0078
3F01F0
6FFFE0
C3FFC0
00FE00
ENDCHAR
STARTCHAR 00D9
ENCODING 217
SWIDTH 718 0
DWIDTH 23 0
BBX 17 29 3 0
BITMAP
070000
038000
01C000
00E000
000000
E00380
E00380
E00380
E00380
E00380
E00380
E00380
E00380
E00380
E00380
E00380
E00380
E00380
E00380
E00380
E00380
E00380
E00380
E00780
700700
7C1F00
3FFE00
1FFC00
07F000
ENDCHAR
STARTCHAR 00DA
ENCODING 218
SWIDTH 718 0
DWIDTH 23 0
BBX 17 29 3 0
BITMAP
007000
00E000
01C000
038000
000000
E00380
E00380
E00380
E00380
E00380
E00380
E00380
E00380
E00380
E00380
E00380
E00380
E00380
E00380
E00380
E00380
E00380
E00380
E00780
700700
7C1F00
3FFE00
1FFC00
07F000
ENDCHAR
STARTCHAR 00DB
ENCODING 219
SWIDTH 718 0
DWIDTH 23 0
BBX 17 29 3 0
BITMAP
01C000
03E000
077000
0E3800
000000
E00380
E00380
E00380
E00380
E00380
E00380
E00380
E00380
E00380
E00380
E00380
E00380
E00380
E00380
E00380
E00380
E00380
E00380
E00780
700700
7C1F00
3FFE00
1FFC00
07F000
ENDCHAR
STARTCHAR 00DC
ENCODING 220
SWIDTH 718 0
DWIDTH 23 0
BBX 17 28 3 1
BITMAP
0E3800
0E3800
0E3800
000000
E00380
E00380
E00380
E00380
E00380
E00380
E00380
E00380
E00380
E00380
E00380
E00380
E00380
E00380
E00380
E00380
E00380
E00380
E00780
700700
7C1F00
3FFE00
1FFC00
07F000
ENDCHAR
STARTCHAR 00DD
ENCODING 221
SWIDTH 687 0
DWIDTH 22 0
BBX 20 29 0 0
BITMAP
001C00
003800
007000
00E000
000000
F00070
7800F0
3800E0
3C01E0
1C01C0
1E0380
0E0780
070700
078F00
038E00
03DC00
01DC00
00F800
00F800
007000
007000
007000
007000
007000
007000
007000
007000
007000
007000
ENDCHAR
STARTCHAR 00DE
ENCODING 222
SWIDTH 656 0
DWIDTH 21 0
BBX 16 24 3 0
BITMAP
E000
E000
E000
E000
FFF0
FFFC
FFFE
E01E
E00F
E007
E007
E007
E007
E00F
E01E
FFFE
FFFC
FFF0
E000
E000
E000
E000
E000
E000
ENDCHAR
STARTCHAR 00DF
ENCODING 223
SWIDTH 593 0
DWIDTH 19 0
BBX 15 24 3 0
BITMAP
0FC0
3FF0
7FF8
7878
F03C
E01C
E01C
E01C
E01C
E078
E1F0
E1F0
E1F8
E03C
E01E
E00E
E00E
E00E
E00E
E01E
E03C
E7F8
E7F0
E3E0
ENDCHAR
STARTCHAR 00E0
ENCODING 224
SWIDTH 531 0
DWIDTH 17 0
BBX 16 24 1 0
BITMAP
0E00
0600
0300
0380
0180
0000
0000
0FE0
3FF8
3FF8
783C
701C
001C
001C
01FC
3FFC
7F1C
F01C
E01C
E03C
F07C
7FFF
3FDF
1F0F
ENDCHAR
STARTCHAR 00E1
ENCODING 225
SWIDTH 531 0
DWIDTH 17 0
BBX 16 24 1 0
BITMAP
01E0
01C0
0380
0300
0600
0000
0000
0FE0
3FF8
3FF8
783C
701C
001C
001C
01FC
3FFC
7F1C
F01C
E01C
E03C
F07C
7FFF
3FDF
1F0F
ENDCHAR
STARTCHAR 00E2
ENCODING 226
SWIDTH 531 0
DWIDTH 17 0
BBX 16 24 1 0
BITMAP
01C0
03C0
07E0
0660
0C30
0000
0000
0FE0
3FF8
3FF8
783C
701C
001C
001C
01FC
3FFC
7F1C
F01C
E01C
E03C
F07C
7FFF
3FDF
1F0F
ENDCHAR
STARTCHAR 00E3
ENCODING 227
SWIDTH 531 0
DWIDTH 17 0
BBX 16 25 1 0
BITMAP
0418
0F30
1FF0
1BF0
18E0
0000
0000
0000
0FE0
3FF8
3FF8
783C
701C
001C
001C
01FC
3FFC
7F1C
F01C
E01C
E03C
F07C
7FFF
3FDF
1F0F
ENDCHAR
STARTCHAR 00E4
ENCODING 228
SWIDTH 531 0
DWIDTH 17 0
BBX 16 23 1 1
BITMAP
0E38
0E38
0E38
0000
0000
0000
0FE0
3FF8
3FF8
783C
701C
001C
001C
01FC
3FFC
7F1C
F01C
E01C
E03C
F07C
7FFF
3FDF
1F0F
ENDCHAR
STARTCHAR 00E5
ENCODING 229
SWIDTH 531 0
DWIDTH 17 0
BBX 16 25 1 0
BITMAP
03C0
07E0
0660
0C60
0660
07E0
03C0
0000
0FE0
3FF8
3FF8
783C
701C
001C
001C
01FC
3FFC
7F1C
F01C
E01C
E03C
F07C
7FFF
3FDF
1F0F
ENDCHAR
STARTCHAR 00E6
ENCODING 230
SWIDTH 875 0
DWIDTH 28 0
BBX 26 17 1 0
BITMAP
0FC0F800
3FF1FE00
3FFBFF00
783F0780
701E0380
001C01C0
07FFFFC0
3FFFFFC0
7FDFFFC0
F81C0000
E01C0000
E01E0000
E03E01C0
F0778780
7FE7FF80
7FC3FF00
1F00FC00
ENDCHAR
STARTCHAR 00E7
ENCODING 231
SWIDTH 500 0
DWIDTH 16 0
BBX 15 24 1 -7
BITMAP
07E0
1FF8
3FFC
783C
701E
F00E
E000
E000
E000
E000
E000
E00E
701E
783C
3FFC
1FF8
0FE0
0200
0200
07C0
00E0
00E0
18E0
0F80
ENDCHAR
STARTCHAR 00E8
ENCODING 232
SWIDTH 531 0
DWIDTH 17 0
BBX 15 24 1 0
BITMAP
0E00
0700
0300
0180
0180
0000
0000
07E0
1FF0
3FF8
783C
701C
E00E
FFFE
FFFE
FFFE
E000
E000
F000
701E
783C
3FFC
1FF8
07E0
ENDCHAR
STARTCHAR 00E9
ENCODING 233
SWIDTH 531 0
DWIDTH 17 0
BBX 15 24 1 0
BITMAP
00E0
01C0
0180
0300
0300
0000
0000
07E0
1FF0
3FF8
783C
701C
E00E
FFFE
FFFE
FFFE
E000
E000
F000
701E
783C
3FFC
1FF8
07E0
ENDCHAR
STARTCHAR 00EA
ENCODING 234
SWIDTH 531 0
DWIDTH 17 0
BBX 15 24 1 0
BITMAP
01C0
03C0
07E0
0660
0C30
0000
0000
07E0
1FF0
3FF8
783C
701C
E00E
FFFE
FFFE
FFFE
E000
E000
F000
701E
783C
3FFC
1FF8
07E0
ENDCHAR
STARTCHAR 00EB
ENCODING 235
SWIDTH 531 0
DWIDTH 17 0
BBX 15 23 1 1
BITMAP
1C70
1C70
1C70
0000
0000
0000
07E0
1FF0
3FF8
783C
701C
E00E
FFFE
FFFE
FFFE
E000
E000
F000
701E
783C
3FFC
1FF8
07E0
ENDCHAR
STARTCHAR 00EC
ENCODING 236
SWIDTH 218 0
DWIDTH 7 0
BBX 5 24 1 0
BITMAP
E0
60
70
30
18
00
00
70
70
70
70
70
70
70
70
70
70
70
70
70
70
70
70
70
ENDCHAR
STARTCHAR 00ED
ENCODING 237
SWIDTH 218 0
DWIDTH 7 0
BBX 5 24 1 0
BITMAP
38
70
60
C0
C0
00
00
70
70
70
70
70
70
70
70
70
70
70
70
70
70
70
70
70
ENDCHAR
STARTCHAR 00EE
ENCODING 238
SWIDTH 250 0
DWIDTH 8 0
BBX 7 24 1 0
BITMAP
38
7C
6C
EE
C6
00
00
38
38
38
38
38
38
38
38
38
38
38
38
38
38
38
38
38
ENDCHAR
STARTCHAR 00EF
ENCODING 239
SWIDTH 250 0
DWIDTH 8 0
BBX 9 23 0 1
BITMAP
E380
E380
E380
0000
0000
0000
1C00
1C00
1C00
1C00
1C00
1C00
1C00
1C00
1C00
1C00
1C00
1C00
1C00
1C00
1C00
1C00
1C00
ENDCHAR
STARTCHAR 00F0
ENCODING 240
SWIDTH 531 0
DWIDTH 17 0
BBX 15 23 1 1
BITMAP
38C0
1FC0
0F00
3F80
31C0
00E0
0FF0
1FF8
3FFC
783C
701C
F01E
E00E
E00E
E00E
E00E
E00E
F01E
701C
783C
3FF8
1FF0
07C0
ENDCHAR
STARTCHAR 00F1
ENCODING 241
SWIDTH 531 0
DWIDTH 17 0
BBX 14 25 2 0
BITMAP
0830
1E30
3FE0
37E0
31E0
0000
0000
0000
E3E0
E7F8
EFFC
F83C
F01C
F01C
E01C
E01C
E01C
E01C
E01C
E01C
E01C
E01C
E01C
E01C
E01C
ENDCHAR
STARTCHAR 00F2
ENCODING 242
SWIDTH 531 0
DWIDTH 17 0
BBX 15 24 1 0
BITMAP
0E00
0700
0300
0180
0180
0000
0000
07C0
1FF0
3FF8
783C
701C
F01E
E00E
E00E
E00E
E00E
E00E
F01E
701C
783C
3FF8
1FF0
07C0
ENDCHAR
STARTCHAR 00F3
ENCODING 243
SWIDTH 531 0
DWIDTH 17 0
BBX 15 24 1 0
BITMAP
00E0
01C0
0380
0300
0600
0000
0000
07C0
1FF0
3FF8
783C
701C
F01E
E00E
E00E
E00E
E00E
E00E
F01E
701C
783C
3FF8
1FF0
07C0
ENDCHAR
STARTCHAR 00F4
ENCODING 244
SWIDTH 531 0
DWIDTH 17 0
BBX 15 24 1 0
BITMAP
0380
03C0
06C0
0E60
0C30
0000
0000
07C0
1FF0
3FF8
783C
701C
F01E
E00E
E00E
E00E
E00E
E00E
F01E
701C
783C
3FF8
1FF0
07C0
ENDCHAR
STARTCHAR 00F5
ENCODING 245
SWIDTH 531 0
DWIDTH 17 0
BBX 15 25 1 0
BITMAP
0410
0F30
1FF0
1BF0
18E0
0000
0000
0000
07C0
1FF0
3FF8
783C
701C
F01E
E00E
E00E
E00E
E00E
E00E
F01E
701C
783C
3FF8
1FF0
07C0
ENDCHAR
STARTCHAR 00F6
ENCODING 246
SWIDTH 531 0
DWIDTH 17 0
BBX 15 23 1 1
BITMAP
1C70
1C70
1C70
0000
0000
0000
07C0
1FF0
3FF8
783C
701C
F01E
E00E
E00E
E00E
E00E
E00E
F01E
701C
783C
3FF8
1FF0
07C0
ENDCHAR
STARTCHAR 00F7
ENCODING 247
SWIDTH 593 0
DWIDTH 19 0
BBX 15 15 2 0
BITMAP
0380
0380
0380
0000
0000
0000
FFFE
FFFE
FFFE
0000
0000
0000
0380
0380
0380
ENDCHAR
STARTCHAR 00F8
ENCODING 248
SWIDTH 531 0
DWIDTH 17 0
BBX 15 18 1 -1
BITMAP
07C2
1FF6
3FFC
783C
701C
F03C
E04E
E08E
E10E
E20E
E60E
FC1E
781C
383C
7FF8
DFF0
87C0
8000
ENDCHAR
STARTCHAR 00F9
ENCODING 249
SWIDTH 531 0
DWIDTH 17 0
BBX 14 24 2 0
BITMAP
1C00
0C00
0E00
0600
0300
0000
0000
E01C
E01C
E01C
E01C
E01C
E01C
E01C
E01C
E01C
E01C
E01C
E03C
E03C
F07C
FFDC
7F9C
1F1C
ENDCHAR
STARTCHAR 00FA
ENCODING 250
SWIDTH 531 0
DWIDTH 17 0
BBX 14 24 2 0
BITMAP
01C0
0180
0380
0700
0600
0000
0000
E01C
E01C
E01C
E01C
E01C
E01C
E01C
E01C
E01C
E01C
E01C
E03C
E03C
F07C
FFDC
7F9C
1F1C
ENDCHAR
STARTCHAR 00FB
ENCODING 251
SWIDTH 531 0
DWIDTH 17 0
BBX 14 24 2 0
BITMAP
0700
0780
0FC0
1CC0
1860
0000
0000
E01C
E01C
E01C
E01C
E01C
E01C
E01C
E01C
E01C
E01C
E01C
E03C
E03C
F07C
FFDC
7F9C
1F1C
ENDCHAR
STARTCHAR 00FC
ENCODING 252
SWIDTH 531 0
DWIDTH 17 0
BBX 14 23 2 1
BITMAP
38E0
38E0
38E0
0000
0000
0000
E01C
E01C
E01C
E01C
E01C
E01C
E01C
E01C
E01C
E01C
E01C
E03C
E03C
F07C
FFDC
7F9C
1F1C
ENDCHAR
STARTCHAR 00FD
ENCODING 253
SWIDTH 468 0
DWIDTH 15 0
BBX 15 31 0 -7
BITMAP
00E0
00E0
01C0
0180
0300
0000
0000
E00E
700C
701C
301C
3818
3838
1838
1C70
1C70
0C70
0EE0
0EE0
06C0
07C0
07C0
0380
0380
0380
0700
0700
0F00
7E00
7C00
7800
ENDCHAR
STARTCHAR 00FE
ENCODING 254
SWIDTH 562 0
DWIDTH 18 0
BBX 15 27 2 -5
BITMAP
E000
E000
E000
E000
E000
E3C0
EFF0
FFF8
F87C
F01C
F01E
E00E
E00E
E00E
E00E
E00E
F01E
F01C
F87C
FFF8
EFF0
E3E0
E000
E000
E000
E000
E000
ENDCHAR
STARTCHAR 00FF
ENCODING 255
SWIDTH 468 0
DWIDTH 15 0
BBX 15 30 0 -6
BITMAP
0E38
0E38
0E38
0000
0000
0000
E00E
700C
701C
301C
3818
3838
1838
1C70
1C70
0C70
0EE0
0EE0
06C0
07C0
07C0
0380
0380
0380
0700
0700
0F00
7E00
7C00
7800
ENDCHAR
STARTCHAR 0100
ENCODING 256
SWIDTH 656 0
DWIDTH 21 0
BBX 20 28 1 1
BITMAP
07FE00
07FE00
07FE00
000000
00F000
01F000
01F000
01F800
03B800
03BC00
039C00
071C00
071E00
0E0E00
0E0E00
0E0F00
1C0700
1C0700
1FFF80
3FFF80
3FFF80
3803C0
7801C0
7001C0
7001E0
F000E0
E000E0
E000F0
ENDCHAR
STARTCHAR 0101
ENCODING 257
SWIDTH 531 0
DWIDTH 17 0
BBX 16 22 1 1
BITMAP
0FF8
0FF8
0FF8
0000
0000
0FE0
3FF8
3FF8
783C
701C
001C
001C
01FC
3FFC
7F1C
F01C
E01C
E03C
F07C
7FFF
3FDF
1F0F
ENDCHAR
STARTCHAR 0102
ENCODING 258
SWIDTH 656 0
DWIDTH 21 0
BBX 20 29 1 1
BITMAP
060C00
071C00
07FC00
03F800
004000
00F000
01F000
01F000
01F800
03B800
03BC00
039C00
071C00
071E00
0E0E00
0E0E00
0E0F00
1C0700
1C0700
1FFF80
3FFF80
3FFF80
3803C0
7801C0
7001C0
7001E0
F000E0
E000E0
E000F0
ENDCHAR
STARTCHAR 0103
ENCODING 259
SWIDTH 531 0
DWIDTH 17 0
BBX 16 24 1 0
BITMAP
1830
1830
1FF0
0FE0
07C0
0000
0000
0FE0
3FF8
3FF8
783C
701C
001C
001C
01FC
3FFC
7F1C
F01C
E01C
E03C
F07C
7FFF
3FDF
1F0F
ENDCHAR
STARTCHAR 0104
ENCODING 260
SWIDTH 656 0
DWIDTH 21 0
BBX 21 31 0 -7
BITMAP
00F000
00F000
01F800
01F800
03D800
03CC00
03CC00
078C00
078600
078600
0F0600
0F0300
0E0300
1E0300
1FFF80
1FFF80
3FFFC0
3801C0
3801C0
7801E0
7000E0
7000E0
E000F0
E00070
000060
0000C0
000180
000180
000180
0001C0
0000F8
ENDCHAR
STARTCHAR 0105
ENCODING 261
SWIDTH 531 0
DWIDTH 17 0
BBX 17 24 1 -7
BITMAP
0FE000
3FF800
3FF800
783C00
701C00
001C00
001C00
01FC00
3FFC00
7F1C00
F01C00
E01C00
E03C00
F07C00
7FFF00
7FDF00
1F0F00
000E00
000C00
001800
001800
001800
001C00
000780
ENDCHAR
STARTCHAR 0106
ENCODING 262
SWIDTH 718 0
DWIDTH 23 0
BBX 20 29 1 0
BITMAP
001C00
003800
007000
00E000
000000
01FE00
07FF80
0FFFC0
1F03E0
3C00E0
7800F0
700070
700000
E00000
E00000
E00000
E00000
E00000
E00000
E00000
E00070
700070
7000F0
7800E0
3C01E0
1F03C0
0FFF80
07FF00
01FC00
ENDCHAR
STARTCHAR 0107
ENCODING 263
SWIDTH 500 0
DWIDTH 16 0
BBX 15 24 1 0
BITMAP
00E0
01C0
0380
0300
0600
0000
0000
07E0
1FF8
3FFC
7C3C
701E
F00E
E000
E000
E000
E000
E000
F00E
701E
783C
3FFC
1FF8
07E0
ENDCHAR
STARTCHAR 0108
ENCODING 264
SWIDTH 718 0
DWIDTH 23 0
BBX 20 29 1 0
BITMAP
003800
007C00
00EE00
01C700
000000
01FE00
07FF80
0FFFC0
1F03E0
3C00E0
7800F0
700070
700000
E00000
E00000
E00000
E00000
E00000
E00000
E00000
E00070
700070
7000F0
7800E0
3C01E0
1F03C0
0FFF80
07FF00
01FC00
ENDCHAR
STARTCHAR 0109
ENCODING 265
SWIDTH 500 0
DWIDTH 16 0
BBX 15 23 1 0
BITMAP
0380
07C0
06E0
0C60
1C30
0000
07E0
1FF8
3FFC
7C3C
701E
F00E
E000
E000
E000
E000
E000
F00E
701E
783C
3FFC
1FF8
07E0
ENDCHAR
STARTCHAR 010A
ENCODING 266
SWIDTH 718 0
DWIDTH 23 0
BBX 20 29 1 0
BITMAP
003800
003800
003800
000000
000000
01FE00
07FF80
0FFFC0
1F03E0
3C00E0
7800F0
700070
700000
E00000
E00000
E00000
E00000
E00000
E00000
E00000
E00070
700070
7000F0
7800E0
3C01E0
1F03C0
0FFF80
07FF00
01FC00
ENDCHAR
STARTCHAR 010B
ENCODING 267
SWIDTH 500 0
DWIDTH 16 0
BBX 15 23 1 1
BITMAP
0380
0380
0380
0000
0000
0000
07E0
1FF8
3FFC
7C3C
701E
F00E
E000
E000
E000
E000
E000
F00E
701E
783C
3FFC
1FF8
07E0
ENDCHAR
STARTCHAR 010C
ENCODING 268
SWIDTH 718 0
DWIDTH 23 0
BBX 20 29 1 0
BITMAP
038E00
01DC00
00F800
007000
000000
01FE00
07FF80
0FFFC0
1F03E0
3C00E0
7800F0
700070
700000
E00000
E00000
E00000
E00000
E00000
E00000
E00000
E00070
700070
7000F0
7800E0
3C01E0
1F03C0
0FFF80
07FF00
01FC00
ENDCHAR
STARTCHAR 010D
ENCODING 269
SWIDTH 500 0
DWIDTH 16 0
BBX 15 24 1 0
BITMAP
1830
0C70
0660
07C0
03C0
0000
0000
07E0
1FF8
3FFC
7C3C
701E
F00E
E000
E000
E000
E000
E000
F00E
701E
783C
3FFC
1FF8
07E0
ENDCHAR
STARTCHAR 010E
ENCODING 270
SWIDTH 687 0
DWIDTH 22 0
BBX 18 29 3 0
BITMAP
1C7000
0EE000
07C000
038000
000000
FFF000
FFFC00
FFFE00
E01F00
E00700
E00780
E00380
E00380
E001C0
E001C0
E001C0
E001C0
E001C0
E001C0
E001C0
E001C0
E00380
E00380
E00780
E00700
E01F00
FFFE00
FFFC00
FFF000
ENDCHAR
STARTCHAR 010F
ENCODING 271
SWIDTH 750 0
DWIDTH 24 0
BBX 21 24 1 0
BITMAP
000E38
000E70
000E60
000E60
000EC0
000E00
000E00
0F8E00
1FEE00
3FFE00
7C3E00
701E00
F01E00
E00E00
E00E00
E00E00
E00E00
E00E00
F01E00
701E00
7C3E00
3FF600
1FE600
0FC600
ENDCHAR
STARTCHAR 0110
ENCODING 272
SWIDTH 718 0
DWIDTH 23 0
BBX 20 24 1 0
BITMAP
3FFC00
3FFF00
3FFF80
3807C0
3801C0
3800E0
3800E0
3800F0
380070
380070
FFC070
FFC070
FFC070
380070
380070
380070
3800E0
3800E0
3801E0
3801C0
3807C0
3FFF80
3FFF00
3FFC00
ENDCHAR
STARTCHAR 0111
ENCODING 273
SWIDTH 562 0
DWIDTH 18 0
BBX 17 24 1 0
BITMAP
000E00
000E00
000E00
00FF80
00FF80
000E00
000E00
0F8E00
1FEE00
3FFE00
7C3E00
701E00
F01E00
E00E00
E00E00
E00E00
E00E00
E00E00
F01E00
701E00
7C3E00
3FFE00
1FF600
07C600
ENDCHAR
STARTCHAR 0112
ENCODING 274
SWIDTH 625 0
DWIDTH 20 0
BBX 16 28 3 1
BITMAP
0FF8
0FF8
0FF8
0000
FFFF
FFFF
FFFF
E000
E000
E000
E000
E000
E000
E000
FFFE
FFFE
FFFE
E000
E000
E000
E000
E000
E000
E000
E000
FFFF
FFFF
FFFF
ENDCHAR
STARTCHAR 0113
ENCODING 275
SWIDTH 531 0
DWIDTH 17 0
BBX 15 22 1 1
BITMAP
0FF8
0FF8
0FF8
0000
0000
07E0
1FF0
3FF8
783C
701C
E00E
FFFE
FFFE
FFFE
E000
E000
F000
701E
783C
3FFC
1FF8
07E0
ENDCHAR
STARTCHAR 0114
ENCODING 276
SWIDTH 625 0
DWIDTH 20 0
BBX 16 29 3 1
BITMAP
1838
1C70
1FF0
0FE0
0100
FFFF
FFFF
FFFF
E000
E000
E000
E000
E000
E000
E000
FFFE
FFFE
FFFE
E000
E000
E000
E000
E000
E000
E000
E000
FFFF
FFFF
FFFF
ENDCHAR
STARTCHAR 0115
ENCODING 277
SWIDTH 531 0
DWIDTH 17 0
BBX 15 24 1 0
BITMAP
1818
1830
1FF0
0FE0
07C0
0000
0000
07E0
1FF0
3FF8
783C
701C
E00E
FFFE
FFFE
FFFE
E000
E000
F000
701E
783C
3FFC
1FF8
07E0
ENDCHAR
STARTCHAR 0116
ENCODING 278
SWIDTH 625 0
DWIDTH 20 0
BBX 16 29 3 0
BITMAP
01C0
01C0
01C0
0000
0000
FFFF
FFFF
FFFF
E000
E000
E000
E000
E000
E000
E000
FFFE
FFFE
FFFE
E000
E000
E000
E000
E000
E000
E000
E000
FFFF
FFFF
FFFF
ENDCHAR
STARTCHAR 0117
ENCODING 279
SWIDTH 531 0
DWIDTH 17 0
BBX 15 23 1 1
BITMAP
01C0
01C0
01C0
0000
0000
0000
07E0
1FF0
3FF8
783C
701C
E00E
FFFE
FFFE
FFFE
E000
E000
F000
701E
783C
3FFC
1FF8
07E0
ENDCHAR
STARTCHAR 0118
ENCODING 280
SWIDTH 656 0
DWIDTH 21 0
BBX 17 31 3 -7
BITMAP
FFFE00
FFFE00
FFFE00
E00000
E00000
E00000
E00000
E00000
E00000
E00000
FFFE00
FFFE00
FFFE00
E00000
E00000
E00000
E00000
E00000
E00000
E00000
E00000
FFFF00
FFFF00
FFFF00
000600
000C00
001800
001800
001800
001C00
000F80
ENDCHAR
STARTCHAR 0119
ENCODING 281
SWIDTH 531 0
DWIDTH 17 0
BBX 15 24 1 -7
BITMAP
07E0
1FF8
3FF8
783C
701C
E00E
FFFE
FFFE
FFFE
E000
E000
F00E
701C
7C3C
3FF8
1FF8
07F0
0060
0040
00C0
00C0
00C0
00E0
003C
ENDCHAR
STARTCHAR 011A
ENCODING 282
SWIDTH 625 0
DWIDTH 20 0
BBX 16 29 3 0
BITMAP
1C70
0EE0
07C0
0380
0000
FFFF
FFFF
FFFF
E000
E000
E000
E000
E000
E000
E000
FFFE
FFFE
FFFE
E000
E000
E000
E000
E000
E000
E000
E000
FFFF
FFFF
FFFF
ENDCHAR
STARTCHAR 011B
ENCODING 283
SWIDTH 531 0
DWIDTH 17 0
BBX 15 24 1 0
BITMAP
0C18
0630
0770
0360
03C0
0000
0000
07E0
1FF0
3FF8
783C
701C
E00E
FFFE
FFFE
FFFE
E000
E000
F000
701E
783C
3FFC
1FF8
07E0
ENDCHAR
STARTCHAR 011C
ENCODING 284
SWIDTH 750 0
DWIDTH 24 0
BBX 22 29 1 0
BITMAP
003800
007C00
00EE00
01C700
000000
00FF00
03FFC0
0FFFE0
1F81F0
3E0078
38003C
78001C
700000
F00000
E00000
E00000
E007FC
E007FC
E007FC
E0001C
F0001C
70001C
78003C
38003C
3E007C
1F81FC
0FFFDC
07FF0C
00FC0C
ENDCHAR
STARTCHAR 011D
ENCODING 285
SWIDTH 562 0
DWIDTH 18 0
BBX 15 30 1 -6
BITMAP
03C0
03E0
0660
0E30
0C18
0000
0F8E
1FEE
3FFE
787E
701E
F01E
E00E
E00E
E00E
E00E
E00E
F01E
701E
783E
3FEE
1FCE
0F8E
000E
001E
E01C
F03C
7FF8
3FF8
0FE0
ENDCHAR
STARTCHAR 011E
ENCODING 286
SWIDTH 750 0
DWIDTH 24 0
BBX 22 29 1 1
BITMAP
030300
03CF00
01FE00
00FE00
003000
00FF00
03FFC0
0FFFE0
1F81F0
3E0078
38003C
78001C
700000
F00000
E00000
E00000
E007FC
E007FC
E007FC
E0001C
F0001C
70001C
78003C
38003C
3E007C
1F81FC
0FFFDC
07FF0C
00FC0C
ENDCHAR
STARTCHAR 011F
ENCODING 287
SWIDTH 562 0
DWIDTH 18 0
BBX 15 31 1 -7
BITMAP
3030
3870
1FF0
1FE0
0FC0
0000
0000
0F8E
1FEE
3FFE
787E
701E
F01E
E00E
E00E
E00E
E00E
E00E
F01E
701E
783E
3FEE
1FCE
0F8E
000E
001E
E01C
F03C
7FF8
3FF8
0FE0
ENDCHAR
STARTCHAR 0120
ENCODING 288
SWIDTH 750 0
DWIDTH 24 0
BBX 22 29 1 0
BITMAP
003800
003800
003800
000000
000000
00FF00
03FFC0
0FFFE0
1F81F0
3E0078
38003C
78001C
700000
F00000
E00000
E00000
E007FC
E007FC
E007FC
E0001C
F0001C
70001C
78003C
38003C
3E007C
1F81FC
0FFFDC
07FF0C
00FC0C
ENDCHAR
STARTCHAR 0121
ENCODING 289
SWIDTH 562 0
DWIDTH 18 0
BBX 15 30 1 -6
BITMAP
0380
0380
0380
0000
0000
0000
0F8E
1FEE
3FFE
787E
701E
F01E
E00E
E00E
E00E
E00E
E00E
F01E
701E
783E
3FEE
1FCE
0F8E
000E
001E
E01C
F03C
7FF8
3FF8
0FE0
ENDCHAR
STARTCHAR 0122
ENCODING 290
SWIDTH 750 0
DWIDTH 24 0
BBX 22 34 1 -10
BITMAP
00FF00
03FFC0
0FFFE0
1F81F0
3E0078
38003C
78001C
700000
F00000
E00000
E00000
E007FC
E007FC
E007FC
E0001C
F0001C
70001C
78003C
38003C
3E007C
1F81FC
0FFFDC
07FF0C
00FC0C
000000
000000
000000
007000
007000
007000
001000
001000
003000
006000
ENDCHAR
STARTCHAR 0123
ENCODING 291
SWIDTH 562 0
DWIDTH 18 0
BBX 15 31 1 -6
BITMAP
0180
0200
0200
0380
0380
0380
0000
0F8E
1FEE
3FFE
787E
701E
F01E
E00E
E00E
E00E
E00E
E00E
F01E
701E
783E
3FEE
1FCE
0F8E
000E
001E
E01C
F03C
7FF8
3FF8
0FE0
ENDCHAR
STARTCHAR 0124
ENCODING 292
SWIDTH 718 0
DWIDTH 23 0
BBX 18 29 3 0
BITMAP
01C000
03E000
077000
0E3800
000000
E001C0
E001C0
E001C0
E001C0
E001C0
E001C0
E001C0
E001C0
E001C0
E001C0
FFFFC0
FFFFC0
FFFFC0
E001C0
E001C0
E001C0
E001C0
E001C0
E001C0
E001C0
E001C0
E001C0
E001C0
E001C0
ENDCHAR
STARTCHAR 0125
ENCODING 293
SWIDTH 531 0
DWIDTH 17 0
BBX 14 29 2 1
BITMAP
0380
07C0
06E0
0C60
1830
E000
E000
E000
E000
E000
E000
E000
E3E0
EFF8
EFFC
F83C
F01C
F01C
E01C
E01C
E01C
E01C
E01C
E01C
E01C
E01C
E01C
E01C
E01C
ENDCHAR
STARTCHAR 0126
ENCODING 294
SWIDTH 718 0
DWIDTH 23 0
BBX 19 24 2 0
BITMAP
7001C0
7001C0
7001C0
7001C0
FFFFE0
FFFFE0
FFFFE0
7001C0
7001C0
7001C0
7FFFC0
7FFFC0
7FFFC0
7001C0
7001C0
7001C0
7001C0
7001C0
7001C0
7001C0
7001C0
7001C0
7001C0
7001C0
ENDCHAR
STARTCHAR 0127
ENCODING 295
SWIDTH 562 0
DWIDTH 18 0
BBX 14 24 2 0
BITMAP
7000
7000
7000
FF00
FF00
7000
7000
71E0
77F8
77FC
7C3C
781C
781C
701C
701C
701C
701C
701C
701C
701C
701C
701C
701C
701C
ENDCHAR
STARTCHAR 0128
ENCODING 296
SWIDTH 312 0
DWIDTH 10 0
BBX 10 30 0 0
BITMAP
70C0
F980
FF80
CF80
C700
0000
1C00
1C00
1C00
1C00
1C00
1C00
1C00
1C00
1C00
1C00
1C00
1C00
1C00
1C00
1C00
1C00
1C00
1C00
1C00
1C00
1C00
1C00
1C00
1C00
ENDCHAR
STARTCHAR 0129
ENCODING 297
SWIDTH 250 0
DWIDTH 8 0
BBX 10 24 -1 1
BITMAP
78C0
7FC0
FF80
C780
C100
0000
0000
0E00
0E00
0E00
0E00
0E00
0E00
0E00
0E00
0E00
0E00
0E00
0E00
0E00
0E00
0E00
0E00
0E00
ENDCHAR
STARTCHAR 012A
ENCODING 298
SWIDTH 281 0
DWIDTH 9 0
BBX 9 28 0 1
BITMAP
FF80
FF80
FF80
0000
1C00
1C00
1C00
1C00
1C00
1C00
1C00
1C00
1C00
1C00
1C00
1C00
1C00
1C00
1C00
1C00
1C00
1C00
1C00
1C00
1C00
1C00
1C00
1C00
ENDCHAR
STARTCHAR 012B
ENCODING 299
SWIDTH 250 0
DWIDTH 8 0
BBX 9 22 0 1
BITMAP
FF80
FF80
FF80
0000
0000
1C00
1C00
1C00
1C00
1C00
1C00
1C00
1C00
1C00
1C00
1C00
1C00
1C00
1C00
1C00
1C00
1C00
ENDCHAR
STARTCHAR 012C
ENCODING 300
SWIDTH 312 0
DWIDTH 10 0
BBX 10 29 -1 1
BITMAP
E0C0
71C0
7FC0
3F80
0400
0E00
0E00
0E00
0E00
0E00
0E00
0E00
0E00
0E00
0E00
0E00
0E00
0E00
0E00
0E00
0E00
0E00
0E00
0E00
0E00
0E00
0E00
0E00
0E00
ENDCHAR
STARTCHAR 012D
ENCODING 301
SWIDTH 250 0
DWIDTH 8 0
BBX 10 24 -1 0
BITMAP
C0C0
E1C0
7F80
7F80
3F00
0000
0000
0E00
0E00
0E00
0E00
0E00
0E00
0E00
0E00
0E00
0E00
0E00
0E00
0E00
0E00
0E00
0E00
0E00
ENDCHAR
STARTCHAR 012E
ENCODING 302
SWIDTH 281 0
DWIDTH 9 0
BBX 6 31 1 -7
BITMAP
38
38
38
38
38
38
38
38
38
38
38
38
38
38
38
38
38
38
38
38
38
38
38
38
38
70
E0
C0
C0
E0
3C
ENDCHAR
STARTCHAR 012F
ENCODING 303
SWIDTH 250 0
DWIDTH 8 0
BBX 7 31 0 -7
BITMAP
1C
1C
1C
00
00
00
00
1C
1C
1C
1C
1C
1C
1C
1C
1C
1C
1C
1C
1C
1C
1C
1C
1C
1C
30
60
C0
C0
E0
3E
ENDCHAR
STARTCHAR 0130
ENCODING 304
SWIDTH 281 0
DWIDTH 9 0
BBX 3 28 3 1
BITMAP
E0
E0
E0
00
E0
E0
E0
E0
E0
E0
E0
E0
E0
E0
E0
E0
E0
E0
E0
E0
E0
E0
E0
E0
E0
E0
E0
E0
ENDCHAR
STARTCHAR 0131
ENCODING 305
SWIDTH 218 0
DWIDTH 7 0
BBX 3 17 2 0
BITMAP
E0
E0
E0
E0
E0
E0
E0
E0
E0
E0
E0
E0
E0
E0
E0
E0
E0
ENDCHAR
STARTCHAR 0132
ENCODING 306
SWIDTH 750 0
DWIDTH 24 0
BBX 18 24 3 0
BITMAP
E001C0
E001C0
E001C0
E001C0
E001C0
E001C0
E001C0
E001C0
E001C0
E001C0
E001C0
E001C0
E001C0
E001C0
E001C0
E001C0
E701C0
E701C0
E701C0
E781C0
E3C3C0
E3FF80
E1FF00
E07E00
ENDCHAR
STARTCHAR 0133
ENCODING 307
SWIDTH 375 0
DWIDTH 12 0
BBX 9 31 2 -7
BITMAP
E380
E380
E380
0000
0000
0000
0000
E380
E380
E380
E380
E380
E380
E380
E380
E380
E380
E380
E380
E380
E380
E380
E380
E380
0380
0380
0380
0380
1F80
1F80
1E00
ENDCHAR
STARTCHAR 0134
ENCODING 308
SWIDTH 531 0
DWIDTH 17 0
BBX 16 29 1 0
BITMAP
0038
007C
00EE
01C7
0000
0038
0038
0038
0038
0038
0038
0038
0038
0038
0038
0038
0038
0038
0038
0038
0038
E038
E038
E038
E078
F0F0
7FF0
3FE0
0F80
ENDCHAR
STARTCHAR 0135
ENCODING 309
SWIDTH 250 0
DWIDTH 8 0
BBX 9 30 0 -6
BITMAP
3C00
3E00
7700
6300
C180
0000
1C00
1C00
1C00
1C00
1C00
1C00
1C00
1C00
1C00
1C00
1C00
1C00
1C00
1C00
1C00
1C00
1C00
1C00
1C00
1C00
1C00
FC00
F800
F000
ENDCHAR
STARTCHAR 0136
ENCODING 310
SWIDTH 687 0
DWIDTH 22 0
BBX 18 34 3 -10
BITMAP
E003C0
E00780
E00F00
E01E00
E03C00
E07800
E0F000
E1E000
E3C000
E38000
E78000
EFC000
FDE000
F8E000
F07000
E07800
E03800
E01C00
E01E00
E00F00
E00700
E00780
E003C0
E001C0
000000
000000
000000
038000
038000
038000
008000
008000
018000
030000
ENDCHAR
STARTCHAR 0137
ENCODING 311
SWIDTH 500 0
DWIDTH 16 0
BBX 14 34 2 -10
BITMAP
E000
E000
E000
E000
E000
E000
E000
E038
E070
E0E0
E1C0
E380
E700
EF00
FF80
FB80
F1C0
E1E0
E0E0
E0F0
E070
E038
E03C
E01C
0000
0000
0000
0700
0700
0700
0100
0100
0300
0600
ENDCHAR
STARTCHAR 0138
ENCODING 312
SWIDTH 500 0
DWIDTH 16 0
BBX 14 17 2 0
BITMAP
E038
E070
E0E0
E1C0
E380
E700
EE00
FC00
F800
FC00
EE00
E700
E380
E1E0
E0F0
E078
E01C
ENDCHAR
STARTCHAR 0139
ENCODING 313
SWIDTH 562 0
DWIDTH 18 0
BBX 14 29 3 0
BITMAP
0E00
1C00
3800
7000
0000
E000
E000
E000
E000
E000
E000
E000
E000
E000
E000
E000
E000
E000
E000
E000
E000
E000
E000
E000
E000
E000
FFFC
FFFC
FFFC
ENDCHAR
STARTCHAR 013A
ENCODING 314
SWIDTH 250 0
DWIDTH 8 0
BBX 6 29 0 0
BITMAP
1C
38
70
E0
00
38
38
38
38
38
38
38
38
38
38
38
38
38
38
38
38
38
38
38
38
38
38
38
38
ENDCHAR
STARTCHAR 013B
ENCODING 315
SWIDTH 562 0
DWIDTH 18 0
BBX 14 34 3 -10
BITMAP
E000
E000
E000
E000
E000
E000
E000
E000
E000
E000
E000
E000
E000
E000
E000
E000
E000
E000
E000
E000
E000
FFFC
FFFC
FFFC
0000
0000
0000
0700
0700
0700
0100
0100
0300
0600
ENDCHAR
STARTCHAR 013C
ENCODING 316
SWIDTH 218 0
DWIDTH 7 0
BBX 3 34 2 -10
BITMAP
E0
E0
E0
E0
E0
E0
E0
E0
E0
E0
E0
E0
E0
E0
E0
E0
E0
E0
E0
E0
E0
E0
E0
E0
00
00
00
E0
E0
E0
20
20
60
C0
ENDCHAR
STARTCHAR 013D
ENCODING 317
SWIDTH 562 0
DWIDTH 18 0
BBX 14 24 3 0
BITMAP
E0E0
E1C0
E180
E180
E300
E000
E000
E000
E000
E000
E000
E000
E000
E000
E000
E000
E000
E000
E000
E000
E000
FFFC
FFFC
FFFC
ENDCHAR
STARTCHAR 013E
ENCODING 318
SWIDTH 375 0
DWIDTH 12 0
BBX 9 24 2 0
BITMAP
E380
E700
E600
E600
EC00
E000
E000
E000
E000
E000
E000
E000
E000
E000
E000
E000
E000
E000
E000
E000
E000
E000
E000
E000
ENDCHAR
STARTCHAR 013F
ENCODING 319
SWIDTH 562 0
DWIDTH 18 0
BBX 14 24 3 0
BITMAP
E000
E000
E000
E000
E000
E000
E000
E000
E000
E000
E000
E000
E000
E01C
E01C
E01C
E000
E000
E000
E000
E000
FFFC
FFFC
FFFC
ENDCHAR
STARTCHAR 0140
ENCODING 320
SWIDTH 375 0
DWIDTH 12 0
BBX 9 24 2 0
BITMAP
E000
E000
E000
E000
E000
E000
E000
E000
E000
E000
E000
E000
E000
E380
E380
E380
E000
E000
E000
E000
E000
E000
E000
E000
ENDCHAR
STARTCHAR 0141
ENCODING 321
SWIDTH 625 0
DWIDTH 20 0
BBX 17 24 2 0
BITMAP
380000
380000
380000
380000
380000
380000
380000
380000
38C000
39C000
3F8000
3E0000
3C0000
780000
F80000
B80000
380000
380000
380000
380000
380000
3FFF80
3FFF80
3FFF80
ENDCHAR
STARTCHAR 0142
ENCODING 322
SWIDTH 250 0
DWIDTH 8 0
BBX 5 24 2 0
BITMAP
70
70
70
70
70
70
70
70
70
78
78
70
F0
F0
F0
70
70
70
70
70
70
70
70
70
ENDCHAR
STARTCHAR 0143
ENCODING 323
SWIDTH 718 0
DWIDTH 23 0
BBX 18 29 3 0
BITMAP
007000
00E000
01C000
038000
000000
F001C0
F001C0
F801C0
F801C0
FC01C0
EE01C0
EE01C0
E701C0
E701C0
E381C0
E1C1C0
E1C1C0
E0E1C0
E0E1C0
E071C0
E079C0
E039C0
E01DC0
E01DC0
E00FC0
E00FC0
E007C0
E003C0
E003C0
ENDCHAR
STARTCHAR 0144
ENCODING 324
SWIDTH 531 0
DWIDTH 17 0
BBX 14 24 2 0
BITMAP
01E0
01C0
0380
0300
0600
0000
0000
E3E0
E7F8
EFFC
F83C
F01C
F01C
E01C
E01C
E01C
E01C
E01C
E01C
E01C
E01C
E01C
E01C
E01C
ENDCHAR
STARTCHAR 0145
ENCODING 325
SWIDTH 718 0
DWIDTH 23 0
BBX 18 34 3 -10
BITMAP
F001C0
F001C0
F801C0
F801C0
FC01C0
EE01C0
EE01C0
E701C0
E701C0
E381C0
E1C1C0
E1C1C0
E0E1C0
E0E1C0
E071C0
E079C0
E039C0
E01DC0
E01DC0
E00FC0
E00FC0
E007C0
E003C0
E003C0
000000
000000
000000
038000
038000
038000
008000
008000
018000
030000
ENDCHAR
STARTCHAR 0146
ENCODING 326
SWIDTH 531 0
DWIDTH 17 0
BBX 14 27 2 -10
BITMAP
E3E0
E7F8
EFFC
F83C
F01C
F01C
E01C
E01C
E01C
E01C
E01C
E01C
E01C
E01C
E01C
E01C
E01C
0000
0000
0000
0700
0700
0700
0100
0100
0300
0600
ENDCHAR
STARTCHAR 0147
ENCODING 327
SWIDTH 718 0
DWIDTH 23 0
BBX 18 29 3 0
BITMAP
1C7000
0EE000
07C000
038000
000000
F001C0
F001C0
F801C0
F801C0
FC01C0
EE01C0
EE01C0
E701C0
E701C0
E381C0
E1C1C0
E1C1C0
E0E1C0
E0E1C0
E071C0
E079C0
E039C0
E01DC0
E01DC0
E00FC0
E00FC0
E007C0
E003C0
E003C0
ENDCHAR
STARTCHAR 0148
ENCODING 328
SWIDTH 531 0
DWIDTH 17 0
BBX 14 24 2 0
BITMAP
1830
1C60
0CC0
07C0
0780
0000
0000
E3E0
E7F8
EFFC
F83C
F01C
F01C
E01C
E01C
E01C
E01C
E01C
E01C
E01C
E01C
E01C
E01C
E01C
ENDCHAR
STARTCHAR 0149
ENCODING 329
SWIDTH 656 0
DWIDTH 21 0
BBX 18 24 2 0
BITMAP
E00000
E00000
E00000
200000
200000
200000
600000
CE3E00
0EFF00
0FFF80
0F8780
0F03C0
0E03C0
0E01C0
0E01C0
0E01C0
0E01C0
0E01C0
0E01C0
0E01C0
0E01C0
0E01C0
0E01C0
0E01C0
ENDCHAR
STARTCHAR 014A
ENCODING 330
SWIDTH 687 0
DWIDTH 22 0
BBX 17 24 3 0
BITMAP
E3E000
E7F800
EFFC00
FC3E00
F80F00
F00F00
E00700
E00780
E00380
E00380
E00380
E00380
E00380
E00380
E00380
E00780
E00700
E00700
E00F00
E00E00
E03E00
E3FC00
E3F800
E3E000
ENDCHAR
STARTCHAR 014B
ENCODING 331
SWIDTH 531 0
DWIDTH 17 0
BBX 14 24 2 -7
BITMAP
E3E0
E7F8
EFF8
F83C
F01C
F01C
E01C
E01C
E01C
E01C
E01C
E01C
E01C
E01C
E01C
E01C
E01C
001C
001C
001C
001C
00FC
00F8
00F0
ENDCHAR
STARTCHAR 014C
ENCODING 332
SWIDTH 781 0
DWIDTH 25 0
BBX 23 28 1 1
BITMAP
01FF00
01FF00
01FF00
000000
00FE00
03FF80
0FFFE0
1F01F0
3C0078
380038
78003C
70001C
F0001E
E0000E
E0000E
E0000E
E0000E
E0000E
E0000E
F0001E
70001C
70003C
380038
3C0078
1F01F0
0FFFE0
07FFC0
00FE00
ENDCHAR
STARTCHAR 014D
ENCODING 333
SWIDTH 531 0
DWIDTH 17 0
BBX 15 22 1 1
BITMAP
1FF0
1FF0
1FF0
0000
0000
07C0
1FF0
3FF8
783C
701C
F01E
E00E
E00E
E00E
E00E
E00E
F01E
701C
783C
3FF8
1FF0
07C0
ENDCHAR
STARTCHAR 014E
ENCODING 334
SWIDTH 781 0
DWIDTH 25 0
BBX 23 29 1 1
BITMAP
030300
03CF00
01FE00
00FE00
003000
00FE00
03FF80
0FFFE0
1F01F0
3C0078
380038
78003C
70001C
F0001E
E0000E
E0000E
E0000E
E0000E
E0000E
E0000E
F0001E
70001C
70003C
380038
3C0078
1F01F0
0FFFE0
07FFC0
00FE00
ENDCHAR
STARTCHAR 014F
ENCODING 335
SWIDTH 531 0
DWIDTH 17 0
BBX 15 24 1 0
BITMAP
3830
1830
1FF0
0FE0
07C0
0000
0000
07C0
1FF0
3FF8
783C
701C
F01E
E00E
E00E
E00E
E00E
E00E
F01E
701C
783C
3FF8
1FF0
07C0
ENDCHAR
STARTCHAR 0150
ENCODING 336
SWIDTH 781 0
DWIDTH 25 0
BBX 23 29 1 0
BITMAP
007BC0
007380
006700
00E600
000000
00FE00
03FF80
0FFFE0
1F01F0
3C0078
380038
78003C
70001C
F0001E
E0000E
E0000E
E0000E
E0000E
E0000E
E0000E
F0001E
70001C
70003C
380038
3C0078
1F01F0
0FFFE0
07FFC0
00FE00
ENDCHAR
STARTCHAR 0151
ENCODING 337
SWIDTH 531 0
DWIDTH 17 0
BBX 15 24 1 0
BITMAP
079C
0738
0738
0E70
0C60
0000
0000
07C0
1FF0
3FF8
783C
701C
F01E
E00E
E00E
E00E
E00E
E00E
F01E
701C
783C
3FF8
1FF0
07C0
ENDCHAR
STARTCHAR 0152
ENCODING 338
SWIDTH 1000 0
DWIDTH 32 0
BBX 29 24 1 0
BITMAP
01F8FFF8
07FEFFF8
1FFFFFF8
3C07E000
3801E000
7000E000
7000E000
7000E000
E000E000
E000E000
E000FFF8
E000FFF8
E000FFF8
E000E000
E000E000
E000E000
7000E000
7000E000
7801E000
3C03E000
3E07E000
1FFFFFF8
07FEFFF8
01F8FFF8
ENDCHAR
STARTCHAR 0153
ENCODING 339
SWIDTH 906 0
DWIDTH 29 0
BBX 28 17 1 0
BITMAP
0FC07E00
1FF1FF80
3FFBFFC0
783F81E0
F01F00E0
E00E0070
E00FFFF0
E00FFFF0
E00FFFF0
E00E0000
E00E0000
F01F0000
701F00E0
783BC1E0
3FFBFFC0
1FF1FF80
07C07E00
ENDCHAR
STARTCHAR 0154
ENCODING 340
SWIDTH 718 0
DWIDTH 23 0
BBX 18 29 3 0
BITMAP
00E000
01C000
038000
070000
000000
FFF800
FFFE00
FFFF00
E00F00
E00780
E00380
E00380
E00380
E00380
E00700
E00F00
FFFE00
FFFC00
FFFF00
E00F00
E00780
E00380
E00380
E00380
E00380
E00380
E00380
E00380
E003C0
ENDCHAR
STARTCHAR 0155
ENCODING 341
SWIDTH 343 0
DWIDTH 11 0
BBX 8 24 2 0
BITMAP
0F
0E
1C
18
30
00
00
E3
EF
EF
FC
F0
E0
E0
E0
E0
E0
E0
E0
E0
E0
E0
E0
E0
ENDCHAR
STARTCHAR 0156
ENCODING 342
SWIDTH 718 0
DWIDTH 23 0
BBX 18 34 3 -10
BITMAP
FFF800
FFFE00
FFFF00
E00F00
E00780
E00380
E00380
E00380
E00380
E00700
E00F00
FFFE00
FFFC00
FFFF00
E00F00
E00780
E00380
E00380
E00380
E00380
E00380
E00380
E00380
E003C0
000000
000000
000000
01C000
01C000
01C000
004000
004000
00C000
018000
ENDCHAR
STARTCHAR 0157
ENCODING 343
SWIDTH 343 0
DWIDTH 11 0
BBX 8 27 2 -10
BITMAP
E3
EF
EF
FC
F0
E0
E0
E0
E0
E0
E0
E0
E0
E0
E0
E0
E0
00
00
00
E0
E0
E0
20
20
60
C0
ENDCHAR
STARTCHAR 0158
ENCODING 344
SWIDTH 718 0
DWIDTH 23 0
BBX 18 29 3 0
BITMAP
1C7000
0EE000
07C000
038000
000000
FFF800
FFFE00
FFFF00
E00F00
E00780
E00380
E00380
E00380
E00380
E00700
E00F00
FFFE00
FFFC00
FFFF00
E00F00
E00780
E00380
E00380
E00380
E00380
E00380
E00380
E00380
E003C0
ENDCHAR
STARTCHAR 0159
ENCODING 345
SWIDTH 343 0
DWIDTH 11 0
BBX 9 24 2 0
BITMAP
C380
6300
7600
3E00
1C00
0000
0000
E300
EF00
EF00
FC00
F000
E000
E000
E000
E000
E000
E000
E000
E000
E000
E000
E000
E000
ENDCHAR
STARTCHAR 015A
ENCODING 346
SWIDTH 656 0
DWIDTH 21 0
BBX 19 29 1 0
BITMAP
003800
007000
00E000
01C000
000000
03F800
0FFE00
1FFF00
3C0F80
7803C0
7001C0
7001C0
700000
780000
7C0000
3F8000
1FF800
03FF00
007F80
0007C0
0001E0
E000E0
E000E0
F000E0
7001C0
7C07C0
3FFF80
1FFF00
03F800
ENDCHAR
STARTCHAR 015B
ENCODING 347
SWIDTH 500 0
DWIDTH 16 0
BBX 13 24 2 0
BITMAP
0380
0300
0700
0600
0C00
0000
0000
1F80
3FE0
7FE0
F0F0
E070
E000
F000
7F00
3FE0
0FF0
00F8
0038
E038
F078
7FF0
7FE0
1F80
ENDCHAR
STARTCHAR 015C
ENCODING 348
SWIDTH 656 0
DWIDTH 21 0
BBX 19 29 1 0
BITMAP
00E000
01F000
03B800
071C00
000000
03F800
0FFE00
1FFF00
3C0F80
7803C0
7001C0
7001C0
700000
780000
7C0000
3F8000
1FF800
03FF00
007F80
0007C0
0001E0
E000E0
E000E0
F000E0
7001C0
7C07C0
3FFF80
1FFF00
03F800
ENDCHAR
STARTCHAR 015D
ENCODING 349
SWIDTH 500 0
DWIDTH 16 0
BBX 13 23 2 1
BITMAP
0F00
0F80
1980
38C0
3060
0000
1F80
3FE0
7FE0
F0F0
E070
E000
F000
7F00
3FE0
0FF0
00F8
0038
E038
F078
7FF0
7FE0
1F80
ENDCHAR
STARTCHAR 015E
ENCODING 350
SWIDTH 656 0
DWIDTH 21 0
BBX 19 31 1 -7
BITMAP
03F800
0FFE00
1FFF00
3C0F80
7803C0
7001C0
7001C0
700000
780000
7C0000
3F8000
1FF800
03FF00
007F80
0007C0
0001E0
E000E0
E000E0
F000E0
7801C0
7C07C0
3FFF80
0FFF00
03FC00
008000
008000
01F000
003800
003800
043800
03E000
ENDCHAR
STARTCHAR 015F
ENCODING 351
SWIDTH 500 0
DWIDTH 16 0
BBX 13 24 2 -7
BITMAP
0F80
3FE0
7FE0
F0F0
E070
E000
F000
FF00
7FE0
0FF0
00F8
0038
E038
E038
F078
7FF0
7FE0
1F80
0800
0F00
0380
0380
2380
1E00
ENDCHAR
STARTCHAR 0160
ENCODING 352
SWIDTH 656 0
DWIDTH 21 0
BBX 19 29 1 0
BITMAP
0E3800
077000
03E000
01C000
000000
03F800
0FFE00
1FFF00
3C0F80
7803C0
7001C0
7001C0
700000
780000
7C0000
3F8000
1FF800
03FF00
007F80
0007C0
0001E0
E000E0
E000E0
F000E0
7001C0
7C07C0
3FFF80
1FFF00
03F800
ENDCHAR
STARTCHAR 0161
ENCODING 353
SWIDTH 500 0
DWIDTH 16 0
BBX 13 24 2 0
BITMAP
30E0
38C0
1980
0F80
0F00
0000
0000
1F80
3FE0
7FE0
F0F0
E070
E000
F000
7F00
3FE0
0FF0
00F8
0038
E038
F078
7FF0
7FE0
1F80
ENDCHAR
STARTCHAR 0162
ENCODING 354
SWIDTH 625 0
DWIDTH 20 0
BBX 17 31 2 -7
BITMAP
FFFF80
FFFF80
FFFF80
01C000
01C000
01C000
01C000
01C000
01C000
01C000
01C000
01C000
01C000
01C000
01C000
01C000
01C000
01C000
01C000
01C000
01C000
01C000
01C000
01C000
00C000
018000
01F000
003800
003800
0C7800
07E000
ENDCHAR
STARTCHAR 0163
ENCODING 355
SWIDTH 281 0
DWIDTH 9 0
BBX 8 27 2 -7
BITMAP
70
70
70
FC
FC
FC
70
70
70
70
70
70
70
70
70
70
70
7C
7C
3C
08
10
1E
07
07
C7
7C
ENDCHAR
STARTCHAR 0164
ENCODING 356
SWIDTH 625 0
DWIDTH 20 0
BBX 17 29 2 0
BITMAP
1C7000
0EE000
07C000
038000
000000
FFFF80
FFFF80
FFFF80
01C000
01C000
01C000
01C000
01C000
01C000
01C000
01C000
01C000
01C000
01C000
01C000
01C000
01C000
01C000
01C000
01C000
01C000
01C000
01C000
01C000
ENDCHAR
STARTCHAR 0165
ENCODING 357
SWIDTH 437 0
DWIDTH 14 0
BBX 10 24 2 0
BITMAP
01C0
0380
0300
0300
7600
7000
7000
FC00
FC00
FC00
7000
7000
7000
7000
7000
7000
7000
7000
7000
7000
7000
7C00
7C00
3C00
ENDCHAR
STARTCHAR 0166
ENCODING 358
SWIDTH 625 0
DWIDTH 20 0
BBX 17 24 2 0
BITMAP
FFFF80
FFFF80
FFFF80
01C000
01C000
01C000
01C000
01C000
01C000
1FFC00
1FFC00
1FFC00
01C000
01C000
01C000
01C000
01C000
01C000
01C000
01C000
01C000
01C000
01C000
01C000
ENDCHAR
STARTCHAR 0167
ENCODING 359
SWIDTH 281 0
DWIDTH 9 0
BBX 7 20 1 0
BITMAP
38
38
38
7E
7E
7E
38
38
38
38
FE
FE
FE
38
38
38
38
3E
3E
1E
ENDCHAR
STARTCHAR 0168
ENCODING 360
SWIDTH 718 0
DWIDTH 23 0
BBX 17 30 3 0
BITMAP
070800
0F9800
0FF800
0CF800
087000
000000
E00380
E00380
E00380
E00380
E00380
E00380
E00380
E00380
E00380
E00380
E00380
E00380
E00380
E00380
E00380
E00380
E00380
E00380
E00780
700700
7C1F00
3FFE00
1FFC00
07F000
ENDCHAR
STARTCHAR 0169
ENCODING 361
SWIDTH 531 0
DWIDTH 17 0
BBX 14 25 2 0
BITMAP
0030
1E60
3FE0
37E0
31C0
0000
0000
0000
E01C
E01C
E01C
E01C
E01C
E01C
E01C
E01C
E01C
E01C
E01C
E03C
E03C
F07C
FFDC
7F9C
1F1C
ENDCHAR
STARTCHAR 016A
ENCODING 362
SWIDTH 718 0
DWIDTH 23 0
BBX 17 28 3 1
BITMAP
0FF800
0FF800
0FF800
000000
E00380
E00380
E00380
E00380
E00380
E00380
E00380
E00380
E00380
E00380
E00380
E00380
E00380
E00380
E00380
E00380
E00380
E00380
E00780
700700
7C1F00
3FFE00
1FFC00
07F000
ENDCHAR
STARTCHAR 016B
ENCODING 363
SWIDTH 531 0
DWIDTH 17 0
BBX 14 22 2 1
BITMAP
3FE0
3FE0
3FE0
0000
0000
E01C
E01C
E01C
E01C
E01C
E01C
E01C
E01C
E01C
E01C
E01C
E03C
E03C
F07C
FFDC
7F9C
1F1C
ENDCHAR
STARTCHAR 016C
ENCODING 364
SWIDTH 718 0
DWIDTH 23 0
BBX 17 29 3 1
BITMAP
1C1800
0E3800
0FF800
07F000
008000
E00380
E00380
E00380
E00380
E00380
E00380
E00380
E00380
E00380
E00380
E00380
E00380
E00380
E00380
E00380
E00380
E00380
E00380
E00780
700700
7C1F00
3FFE00
1FFC00
07F000
ENDCHAR
STARTCHAR 016D
ENCODING 365
SWIDTH 531 0
DWIDTH 17 0
BBX 14 24 2 0
BITMAP
7060
3060
3FE0
1FC0
0F80
0000
0000
E01C
E01C
E01C
E01C
E01C
E01C
E01C
E01C
E01C
E01C
E01C
E03C
E03C
F07C
FFDC
7F9C
1F1C
ENDCHAR
STARTCHAR 016E
ENCODING 366
SWIDTH 718 0
DWIDTH 23 0
BBX 17 31 3 1
BITMAP
01E000
03F000
073000
063000
033000
03F000
01C000
E00380
E00380
E00380
E00380
E00380
E00380
E00380
E00380
E00380
E00380
E00380
E00380
E00380
E00380
E00380
E00380
E00380
E00380
E00780
700700
7C1F00
3FFE00
1FFC00
07F000
ENDCHAR
STARTCHAR 016F
ENCODING 367
SWIDTH 531 0
DWIDTH 17 0
BBX 14 25 2 0
BITMAP
0780
0FC0
0CC0
18C0
0CC0
0FC0
0780
0000
E01C
E01C
E01C
E01C
E01C
E01C
E01C
E01C
E01C
E01C
E01C
E03C
E03C
F07C
FFDC
7F9C
1F1C
ENDCHAR
STARTCHAR 0170
ENCODING 368
SWIDTH 718 0
DWIDTH 23 0
BBX 17 29 3 0
BITMAP
07BC00
073800
067000
0E6000
000000
E00380
E00380
E00380
E00380
E00380
E00380
E00380
E00380
E00380
E00380
E00380
E00380
E00380
E00380
E00380
E00380
E00380
E00380
E00780
700700
7C1F00
3FFE00
1FFC00
07F000
ENDCHAR
STARTCHAR 0171
ENCODING 369
SWIDTH 531 0
DWIDTH 17 0
BBX 14 24 2 0
BITMAP
0E78
1E70
1CE0
18C0
3980
0000
0000
E01C
E01C
E01C
E01C
E01C
E01C
E01C
E01C
E01C
E01C
E01C
E03C
E03C
F07C
FFDC
7F9C
1F1C
ENDCHAR
STARTCHAR 0172
ENCODING 370
SWIDTH 718 0
DWIDTH 23 0
BBX 18 31 3 -7
BITMAP
E001C0
E001C0
E001C0
E001C0
E001C0
E001C0
E001C0
E001C0
E001C0
E001C0
E001C0
E001C0
E001C0
E001C0
E001C0
E001C0
E001C0
E001C0
E003C0
700780
7C1F80
3FFF00
1FFE00
07FC00
003800
007000
006000
006000
006000
003000
001F80
ENDCHAR
STARTCHAR 0173
ENCODING 371
SWIDTH 531 0
DWIDTH 17 0
BBX 15 24 2 -7
BITMAP
E01C
E01C
E01C
E01C
E01C
E01C
E01C
E01C
E01C
E01C
E01C
E03C
E03C
F07C
FFDC
7F9C
1F1C
0018
0030
0060
0060
0060
0030
001E
ENDCHAR
STARTCHAR 0174
ENCODING 372
SWIDTH 937 0
DWIDTH 30 0
BBX 29 29 0 0
BITMAP
00038000
0007C000
000EE000
001C7000
00000000
F0078038
70078038
70078038
700F8078
780FC070
380FC070
380FC070
381CC0F0
3C1CE0E0
1C1CE0E0
1C3C60E0
1C3870E0
1C3871C0
0E3871C0
0E7831C0
0E7039C0
0E703980
07703B80
07E01F80
07E01F80
07E01F00
03E00F00
03C00F00
03C00F00
ENDCHAR
STARTCHAR 0175
ENCODING 373
SWIDTH 718 0
DWIDTH 23 0
BBX 23 23 0 1
BITMAP
003C00
007C00
00E600
00C700
018300
000000
E0380E
703C1C
707C1C
707C1C
306C1C
386E38
38EE38
38EE38
18C630
1CC770
1DC770
0DC770
0D8360
0F83E0
0F83E0
0783C0
0701C0
ENDCHAR
STARTCHAR 0176
ENCODING 374
SWIDTH 687 0
DWIDTH 22 0
BBX 20 29 0 0
BITMAP
003800
007C00
00EE00
01C700
000000
F00070
7800F0
3800E0
3C01E0
1C01C0
1E0380
0E0780
070700
078F00
038E00
03DC00
01DC00
00F800
00F800
007000
007000
007000
007000
007000
007000
007000
007000
007000
007000
ENDCHAR
STARTCHAR 0177
ENCODING 375
SWIDTH 468 0
DWIDTH 15 0
BBX 15 30 0 -6
BITMAP
03C0
03E0
0660
0E30
0C18
0000
E00E
700C
701C
301C
3818
3838
1838
1C70
1C70
0C70
0EE0
0EE0
06C0
07C0
07C0
0380
0380
0380
0700
0700
0F00
7E00
7C00
7800
ENDCHAR
STARTCHAR 0178
ENCODING 376
SWIDTH 687 0
DWIDTH 22 0
BBX 20 28 0 1
BITMAP
01C700
01C700
01C700
000000
F00070
7800F0
3800E0
3C01E0
1C01C0
1E0380
0E0780
070700
078F00
038E00
03DC00
01DC00
00F800
00F800
007000
007000
007000
007000
007000
007000
007000
007000
007000
007000
ENDCHAR
STARTCHAR 0179
ENCODING 377
SWIDTH 625 0
DWIDTH 20 0
BBX 18 29 1 0
BITMAP
003800
007000
00E000
01C000
000000
7FFFC0
7FFFC0
7FFFC0
000380
000780
000F00
001E00
003C00
003800
007800
00F000
01E000
01C000
03C000
078000
0F0000
1E0000
1C0000
3C0000
780000
F00000
FFFFC0
FFFFC0
FFFFC0
ENDCHAR
STARTCHAR 017A
ENCODING 378
SWIDTH 500 0
DWIDTH 16 0
BBX 14 24 1 0
BITMAP
00E0
01C0
0380
0300
0600
0000
0000
7FF8
7FF8
7FF8
0078
0070
00E0
01C0
0380
0700
0E00
1C00
3800
7800
F000
FFFC
FFFC
FFFC
ENDCHAR
STARTCHAR 017B
ENCODING 379
SWIDTH 625 0
DWIDTH 20 0
BBX 18 28 1 1
BITMAP
00E000
00E000
00E000
000000
7FFFC0
7FFFC0
7FFFC0
000380
000780
000F00
001E00
003C00
003800
007800
00F000
01E000
01C000
03C000
078000
0F0000
1E0000
1C0000
3C0000
780000
F00000
FFFFC0
FFFFC0
FFFFC0
ENDCHAR
STARTCHAR 017C
ENCODING 380
SWIDTH 500 0
DWIDTH 16 0
BBX 14 23 1 1
BITMAP
0380
0380
0380
0000
0000
0000
7FF8
7FF8
7FF8
0078
0070
00E0
01C0
0380
0700
0E00
1C00
3800
7800
F000
FFFC
FFFC
FFFC
ENDCHAR
STARTCHAR 017D
ENCODING 381
SWIDTH 625 0
DWIDTH 20 0
BBX 18 29 1 0
BITMAP
0E3800
077000
03E000
01C000
000000
7FFFC0
7FFFC0
7FFFC0
000380
000780
000F00
001E00
003C00
003800
007800
00F000
01E000
01C000
03C000
078000
0F0000
1E0000
1C0000
3C0000
780000
F00000
FFFFC0
FFFFC0
FFFFC0
ENDCHAR
STARTCHAR 017E
ENCODING 382
SWIDTH 500 0
DWIDTH 16 0
BBX 14 24 1 0
BITMAP
1830
0C60
0EC0
07C0
0780
0000
0000
7FF8
7FF8
7FF8
0078
0070
00E0
01C0
0380
0700
0E00
1C00
3800
7800
F000
FFFC
FFFC
FFFC
ENDCHAR
STARTCHAR 017F
ENCODING 383
SWIDTH 281 0
DWIDTH 9 0
BBX 7 24 2 0
BITMAP
1E
3E
7E
70
70
70
70
F0
F0
F0
70
70
70
70
70
70
70
70
70
70
70
70
70
70
ENDCHAR
STARTCHAR 0180
ENCODING 384
SWIDTH 593 0
DWIDTH 19 0
BBX 17 24 1 0
BITMAP
380000
380000
380000
FF8000
FF8000
380000
380000
38F800
3BFC00
3FFE00
3E1F00
3C0700
3C0780
380380
380380
380380
380380
380380
3C0780
3C0700
3E1F00
3FFE00
37FC00
31F000
ENDCHAR
STARTCHAR 0181
ENCODING 385
SWIDTH 843 0
DWIDTH 27 0
BBX 25 24 1 0
BITMAP
3FFFF000
7FFFFC00
FFFFFE00
F1C01E00
E1C00F00
E1C00700
E1C00700
FDC00700
7DC00F00
3DC01E00
01FFFC00
01FFFC00
01FFFE00
01C00F00
01C00780
01C00380
01C00380
01C00380
01C00380
01C00780
01C00F00
01FFFF00
01FFFE00
01FFF800
ENDCHAR
STARTCHAR 0182
ENCODING 386
SWIDTH 656 0
DWIDTH 21 0
BBX 17 24 3 0
BITMAP
FFFE00
FFFE00
FFFE00
E00000
E00000
E00000
E00000
E00000
E00000
FFF000
FFFC00
FFFE00
E00F00
E00780
E00380
E00380
E00380
E00380
E00380
E00780
E00F00
FFFF00
FFFE00
FFF800
ENDCHAR
STARTCHAR 0183
ENCODING 387
SWIDTH 562 0
DWIDTH 18 0
BBX 15 24 2 0
BITMAP
FFF0
FFF0
FFF0
E000
E000
E000
E000
E3E0
EFF0
FFF8
F87C
F01C
F01E
E00E
E00E
E00E
E00E
E00E
F01E
F01C
F87C
FFF8
EFF0
E3C0
ENDCHAR
STARTCHAR 0184
ENCODING 388
SWIDTH 718 0
DWIDTH 23 0
BBX 22 24 0 0
BITMAP
0E0000
1E0000
3E0000
7E0000
FE0000
7E0000
3E0000
1E0000
0E0000
0FFF80
0FFFE0
0FFFF0
0E00F8
0E0038
0E001C
0E001C
0E001C
0E001C
0E001C
0E0038
0E00F8
0FFFF0
0FFFE0
0FFF80
ENDCHAR
STARTCHAR 0185
ENCODING 389
SWIDTH 593 0
DWIDTH 19 0
BBX 18 24 0 0
BITMAP
1C0000
3C0000
3C0000
7C0000
FC0000
FC0000
7C0000
7C7C00
3DFE00
1FFF00
1F0F80
1E0380
1E03C0
1C01C0
1C01C0
1C01C0
1C01C0
1C01C0
1E03C0
1E0380
1F0F80
1FFF00
1DFE00
1C7800
ENDCHAR
STARTCHAR 0186
ENCODING 390
SWIDTH 718 0
DWIDTH 23 0
BBX 20 24 2 -2
BITMAP
03F000
1FFE00
3FFF00
7C0F80
7803C0
F001C0
E001E0
E000E0
E000E0
0000E0
000070
000070
000070
000070
0000E0
0000E0
0000E0
E001E0
E001C0
F003C0
7C0F80
3FFF00
1FFE00
07F000
ENDCHAR
STARTCHAR 0187
ENCODING 391
SWIDTH 781 0
DWIDTH 25 0
BBX 23 24 1 0
BITMAP
01FC00
07FF1E
0FFFBE
1F03FE
3C00F0
3800F0
700070
700000
E00000
E00000
E00000
E00000
E00000
E00000
E00000
E00070
700070
7000F0
7800E0
3C01E0
1F03C0
0FFF80
07FF00
01FC00
ENDCHAR
STARTCHAR 0188
ENCODING 392
SWIDTH 562 0
DWIDTH 18 0
BBX 17 18 1 0
BITMAP
000780
07CF80
1FEF80
3FFC00
787C00
703C00
F01C00
E00000
E00000
E00000
E00000
E00000
F01C00
701C00
783C00
3FF800
1FF000
0FC000
ENDCHAR
STARTCHAR 0189
ENCODING 393
SWIDTH 718 0
DWIDTH 23 0
BBX 20 24 1 0
BITMAP
3FFC00
3FFF00
3FFF80
3807C0
3801C0
3800E0
3800E0
3800F0
380070
380070
FFC070
FFC070
FFC070
380070
380070
380070
3800E0
3800E0
3801E0
3801C0
3807C0
3FFF80
3FFF00
3FFC00
ENDCHAR
STARTCHAR 018A
ENCODING 394
SWIDTH 875 0
DWIDTH 28 0
BBX 26 24 1 0
BITMAP
3FFFE000
7FFFF800
FFFFFE00
F1C03E00
E1C00F00
E1C00780
E1C00380
FDC00380
7DC001C0
3DC001C0
01C001C0
01C001C0
01C001C0
01C001C0
01C001C0
01C001C0
01C003C0
01C00380
01C00780
01C00F00
01C01F00
01FFFE00
01FFFC00
01FFE000
ENDCHAR
STARTCHAR 018B
ENCODING 395
SWIDTH 656 0
DWIDTH 21 0
BBX 18 24 1 0
BITMAP
1FFFC0
1FFFC0
1FFFC0
0001C0
0001C0
0001C0
0001C0
0001C0
0001C0
07FFC0
1FFFC0
3FFFC0
7801C0
F001C0
E001C0
E001C0
E001C0
E001C0
E001C0
7001C0
7801C0
3FFFC0
3FFFC0
0FFFC0
ENDCHAR
STARTCHAR 018C
ENCODING 396
SWIDTH 562 0
DWIDTH 18 0
BBX 15 24 1 0
BITMAP
1FFE
1FFE
1FFE
000E
000E
000E
000E
0F8E
1FEE
3FFE
7C3E
701E
F01E
E00E
E00E
E00E
E00E
E00E
F01E
701E
7C3E
3FFE
1FEE
078E
ENDCHAR
STARTCHAR 018D
ENCODING 397
SWIDTH 562 0
DWIDTH 18 0
BBX 16 24 1 -6
BITMAP
07E0
1FF8
3FFC
783E
F01E
E00E
E00F
E007
E007
E007
E00E
E00E
701E
783C
3FFC
1FF8
0FE0
0380
01C0
00F0
003C
3FFC
3FFC
3FFC
ENDCHAR
STARTCHAR 018E
ENCODING 398
SWIDTH 625 0
DWIDTH 20 0
BBX 16 24 2 0
BITMAP
FFFF
FFFF
FFFF
0007
0007
0007
0007
0007
0007
0007
7FFF
7FFF
7FFF
0007
0007
0007
0007
0007
0007
0007
0007
FFFF
FFFF
FFFF
ENDCHAR
STARTCHAR 018F
ENCODING 399
SWIDTH 718 0
DWIDTH 23 0
BBX 20 24 1 0
BITMAP
03F800
0FFE00
1FFF00
3E0780
3803C0
7801E0
7000E0
0000E0
000070
000070
000070
000070
000070
FFFFF0
FFFFF0
FFFFF0
F000E0
7000E0
7801E0
7803C0
3E07C0
1FFF80
0FFE00
03F800
ENDCHAR
STARTCHAR 0190
ENCODING 400
SWIDTH 656 0
DWIDTH 21 0
BBX 19 24 1 0
BITMAP
03F800
0FFE00
3FFF00
3C0F80
7803C0
7001C0
7001C0
700000
780000
3E0000
1FF000
1FF000
3FF000
7C0000
F00000
E00000
E000E0
E000E0
E001E0
7001C0
7C07C0
3FFF80
1FFF00
07F800
ENDCHAR
STARTCHAR 0191
ENCODING 401
SWIDTH 593 0
DWIDTH 19 0
BBX 18 31 0 -7
BITMAP
1FFFC0
1FFFC0
1FFFC0
1C0000
1C0000
1C0000
1C0000
1C0000
1C0000
1C0000
1FFF80
1FFF80
1FFF80
1C0000
1C0000
1C0000
1C0000
1C0000
1C0000
1C0000
1C0000
1C0000
1C0000
1C0000
1C0000
1C0000
1C0000
3C0000
FC0000
F80000
F00000
ENDCHAR
STARTCHAR 0192
ENCODING 402
SWIDTH 281 0
DWIDTH 9 0
BBX 8 31 0 -7
BITMAP
07
0F
1F
1C
1C
1C
1C
3F
3F
3F
1C
1C
1C
1C
1C
1C
1C
1C
1C
1C
1C
1C
1C
1C
1C
1C
1C
1C
FC
F8
F0
ENDCHAR
STARTCHAR 0193
ENCODING 403
SWIDTH 812 0
DWIDTH 26 0
BBX 25 24 1 0
BITMAP
00FE0780
03FF8F80
0FFFFF80
1F80FC00
3E003C00
38001C00
78000000
70000000
F0000000
E0000000
E0000000
E007FC00
E007FC00
E007FC00
E0001C00
F0001C00
70001C00
78003C00
38003C00
3E007C00
1F81FC00
0FFFDC00
07FF0C00
00FC0C00
ENDCHAR
STARTCHAR 0194
ENCODING 404
SWIDTH 687 0
DWIDTH 22 0
BBX 20 25 1 -1
BITMAP
E000F0
F000E0
7801E0
3801C0
3C03C0
1C0380
1E0700
0F0F00
070E00
079E00
039C00
03F800
01F800
00F000
00F000
00F000
01F800
01F800
03FC00
039C00
039C00
039C00
03FC00
01F800
00F000
ENDCHAR
STARTCHAR 0195
ENCODING 405
SWIDTH 843 0
DWIDTH 27 0
BBX 24 24 2 0
BITMAP
E00000
E00000
E00000
E00000
E00000
E00000
E00000
E3E000
EFF800
EFF800
F83C38
F01C1C
F01C0E
E01C06
E01C07
E01C07
E01C07
E01C07
E01C0E
E01C0E
E01C3C
E01FFC
E01FF0
E00FE0
ENDCHAR
STARTCHAR 0196
ENCODING 406
SWIDTH 250 0
DWIDTH 8 0
BBX 6 24 2 0
BITMAP
E0
E0
E0
E0
E0
E0
E0
E0
E0
E0
E0
E0
E0
E0
E0
E0
E0
E0
E0
E0
E0
FC
FC
7C
ENDCHAR
STARTCHAR 0197
ENCODING 407
SWIDTH 375 0
DWIDTH 12 0
BBX 9 24 1 0
BITMAP
1C00
1C00
1C00
1C00
1C00
1C00
1C00
1C00
1C00
1C00
FF80
FF80
FF80
1C00
1C00
1C00
1C00
1C00
1C00
1C00
1C00
1C00
1C00
1C00
ENDCHAR
STARTCHAR 0198
ENCODING 408
SWIDTH 687 0
DWIDTH 22 0
BBX 19 24 3 0
BITMAP
E003C0
E007E0
E00FC0
E01E00
E03C00
E07800
E0F000
E1E000
E3C000
E78000
EFC000
EFC000
FDE000
F8F000
F07000
E07800
E03C00
E01C00
E01E00
E00F00
E00700
E00780
E003C0
E001C0
ENDCHAR
STARTCHAR 0199
ENCODING 409
SWIDTH 500 0
DWIDTH 16 0
BBX 14 24 2 0
BITMAP
3C00
7C00
FC00
E000
E000
E000
E000
E038
E070
E0E0
E1C0
E380
E700
EF00
FF80
FB80
F1C0
E1E0
E0E0
E0F0
E070
E038
E03C
E01C
ENDCHAR
STARTCHAR 019A
ENCODING 410
SWIDTH 343 0
DWIDTH 11 0
BBX 9 24 1 0
BITMAP
1C00
1C00
1C00
1C00
1C00
1C00
1C00
1C00
1C00
1C00
FF80
FF80
FF80
1C00
1C00
1C00
1C00
1C00
1C00
1C00
1C00
1C00
1C00
1C00
ENDCHAR
STARTCHAR 019B
ENCODING 411
SWIDTH 531 0
DWIDTH 17 0
BBX 17 24 0 1
BITMAP
3C1000
3E3000
3E7000
07E000
038000
0F8000
1D8000
7BC000
63C000
43C000
07E000
076000
066000
0E7000
0E3000
1C3800
1C3800
1C1800
381C00
381C00
700E00
700F80
700F80
E00700
ENDCHAR
STARTCHAR 019C
ENCODING 412
SWIDTH 875 0
DWIDTH 28 0
BBX 22 24 3 0
BITMAP
E0701C
E0701C
E0701C
E0701C
E0701C
E0701C
E0701C
E0701C
E0701C
E0701C
E0701C
E0701C
E0701C
E0701C
E0701C
E0701C
E0701C
E0701C
E0701C
E0F03C
F1F87C
FFBFFC
7F3FDC
3E0F1C
ENDCHAR
STARTCHAR 019D
ENCODING 413
SWIDTH 718 0
DWIDTH 23 0
BBX 21 31 0 -7
BITMAP
1E0038
1E0038
1F0038
1F0038
1F8038
1DC038
1DC038
1CE038
1CE038
1C7038
1C3838
1C3838
1C1C38
1C1C38
1C0E38
1C0F38
1C0738
1C03B8
1C03B8
1C01F8
1C01F8
1C00F8
1C0078
1C0078
1C0000
1C0000
1C0000
3C0000
FC0000
F80000
F00000
ENDCHAR
STARTCHAR 019E
ENCODING 414
SWIDTH 531 0
DWIDTH 17 0
BBX 14 24 2 -8
BITMAP
E3E0
E7F0
EFF8
F83C
F01C
F01C
E01C
E01C
E01C
E01C
E01C
E01C
E01C
E01C
E01C
E01C
E01C
001C
001C
001C
001C
001C
001C
001C
ENDCHAR
STARTCHAR 019F
ENCODING 415
SWIDTH 781 0
DWIDTH 25 0
BBX 23 24 1 0
BITMAP
00FE00
07FF80
0FFFE0
1F01F0
3C0078
380038
70001C
70001C
E0000E
E0000E
E0000E
FFFFFE
FFFFFE
FFFFFE
E0000E
E0000E
70001C
70001C
780038
3C0078
1F01F0
0FFFE0
07FFC0
00FE00
ENDCHAR
STARTCHAR 01A0
ENCODING 416
SWIDTH 781 0
DWIDTH 25 0
BBX 25 25 1 1
BITMAP
00000300
00FE0380
03FF8380
0FFFE780
1F01FF00
3C007E00
38003800
78003C00
70001C00
F0001E00
E0000E00
E0000E00
E0000E00
E0000E00
E0000E00
E0000E00
F0001E00
70001C00
70003C00
38003800
3C007800
1F01F000
0FFFE000
07FFC000
00FE0000
ENDCHAR
STARTCHAR 01A1
ENCODING 417
SWIDTH 562 0
DWIDTH 18 0
BBX 17 20 1 1
BITMAP
000100
000380
000380
07C380
1FFF80
3FFF00
783E00
701C00
F01C00
E00E00
E00E00
E00E00
E00E00
E00E00
F01E00
701C00
783C00
3FF800
1FF000
07C000
ENDCHAR
STARTCHAR 01A2
ENCODING 418
SWIDTH 1031 0
DWIDTH 33 0
BBX 29 24 1 1
BITMAP
00FE07C0
03FF9FF0
0FFFFFF0
1F01F878
3C007838
38003838
78003C38
70001C38
F0001E38
E0000E38
E0000E38
E0000E38
E0000E38
E0000E38
E0000E38
F0001E38
70001C38
70003C38
38003838
3C007838
1F01F038
0FFFE038
07FFC038
00FE0038
ENDCHAR
STARTCHAR 01A3
ENCODING 419
SWIDTH 718 0
DWIDTH 23 0
BBX 21 23 1 -6
BITMAP
07C3E0
1FEFF0
3FFFF8
783878
701C38
F01E38
E00E38
E00E38
E00E38
E00E38
E00E38
F01E38
701C38
783C38
3FF838
1FF038
07C038
000038
000038
000038
000038
000038
000038
ENDCHAR
STARTCHAR 01A4
ENCODING 420
SWIDTH 812 0
DWIDTH 26 0
BBX 24 24 1 0
BITMAP
3FFFF0
7FFFFC
FFFFFE
F1C01E
E1C00F
E1C007
E1C007
FDC007
7DC007
3DC007
01C01E
01FFFE
01FFFC
01FFF0
01C000
01C000
01C000
01C000
01C000
01C000
01C000
01C000
01C000
01C000
ENDCHAR
STARTCHAR 01A5
ENCODING 421
SWIDTH 562 0
DWIDTH 18 0
BBX 15 30 2 -6
BITMAP
3800
7800
F800
E000
E000
E000
E000
E3C0
EFF0
EFF8
F87C
F01C
F01E
E00E
E00E
E00E
E00E
E00E
F01E
F01C
F87C
FFF8
EFF0
E3E0
E000
E000
E000
E000
E000
E000
ENDCHAR
STARTCHAR 01A6
ENCODING 422
SWIDTH 656 0
DWIDTH 21 0
BBX 17 28 3 -4
BITMAP
E00000
E00000
E00000
E00000
FFF000
FFFC00
FFFE00
E01E00
E00F00
E00700
E00700
E00700
E00700
E00F00
E01E00
FFFE00
FFFC00
FFFC00
E01E00
E00F00
E00700
E00700
E00700
E00700
000700
000700
000780
000380
ENDCHAR
STARTCHAR 01A7
ENCODING 423
SWIDTH 656 0
DWIDTH 21 0
BBX 18 24 2 0
BITMAP
03F000
0FFC00
1FFE00
3C0F00
780780
700380
700380
000380
000780
000F80
007F00
07FE00
1FF800
7F8000
7C0000
F00000
E001C0
E001C0
E003C0
700380
780F80
3FFF00
1FFE00
07F800
ENDCHAR
STARTCHAR 01A8
ENCODING 424
SWIDTH 500 0
DWIDTH 16 0
BBX 13 17 1 0
BITMAP
0F80
3FE0
3FF0
7878
7038
0038
0078
03F0
3FF0
7FC0
FC00
E000
E038
F078
7FF0
3FF0
0FC0
ENDCHAR
STARTCHAR 01A9
ENCODING 425
SWIDTH 625 0
DWIDTH 20 0
BBX 18 24 1 0
BITMAP
FFFF80
FFFF80
FFFF80
F00000
780000
3C0000
1C0000
1E0000
0F0000
078000
03C000
01C000
01C000
03C000
078000
0F0000
1E0000
1C0000
3C0000
780000
F00000
FFFFC0
FFFFC0
FFFFC0
ENDCHAR
STARTCHAR 01AA
ENCODING 426
SWIDTH 343 0
DWIDTH 11 0
BBX 11 31 0 -7
BITMAP
3C00
7E00
E700
C300
C300
E700
7F00
3F00
0700
0700
0700
0700
0700
0700
0700
0700
0700
0700
0700
0700
0700
0700
0700
0700
0700
0700
0700
0700
07E0
03E0
01E0
ENDCHAR
STARTCHAR 01AB
ENCODING 427
SWIDTH 281 0
DWIDTH 9 0
BBX 7 29 2 -7
BITMAP
70
70
70
70
70
FE
FE
FE
70
70
70
70
70
70
70
70
70
70
70
70
7E
3E
0E
0E
0E
0E
7E
7C
78
ENDCHAR
STARTCHAR 01AC
ENCODING 428
SWIDTH 625 0
DWIDTH 20 0
BBX 19 24 0 0
BITMAP
3FFFE0
7FFFE0
FFFFE0
E07000
E07000
E07000
E07000
F87000
787000
387000
007000
007000
007000
007000
007000
007000
007000
007000
007000
007000
007000
007000
007000
007000
ENDCHAR
STARTCHAR 01AD
ENCODING 429
SWIDTH 281 0
DWIDTH 9 0
BBX 6 24 2 0
BITMAP
1C
3C
7C
70
70
70
70
FC
FC
FC
70
70
70
70
70
70
70
70
70
70
70
7C
7C
3C
ENDCHAR
STARTCHAR 01AE
ENCODING 430
SWIDTH 625 0
DWIDTH 20 0
BBX 17 31 2 -7
BITMAP
FFFF80
FFFF80
FFFF80
01C000
01C000
01C000
01C000
01C000
01C000
01C000
01C000
01C000
01C000
01C000
01C000
01C000
01C000
01C000
01C000
01C000
01C000
01C000
01C000
01C000
01C000
01C000
01C000
01E000
01F800
00F800
007800
ENDCHAR
STARTCHAR 01AF
ENCODING 431
SWIDTH 781 0
DWIDTH 25 0
BBX 22 28 3 1
BITMAP
000008
00003C
00001C
00001C
E003FC
E003F8
E003F0
E00380
E00380
E00380
E00380
E00380
E00380
E00380
E00380
E00380
E00380
E00380
E00380
E00380
E00380
E00380
E00780
700700
7C1F00
3FFE00
1FFC00
07F000
ENDCHAR
STARTCHAR 01B0
ENCODING 432
SWIDTH 625 0
DWIDTH 20 0
BBX 18 21 2 1
BITMAP
000080
0001C0
0001C0
0001C0
E01FC0
E01F80
E01F00
E01C00
E01C00
E01C00
E01C00
E01C00
E01C00
E01C00
E01C00
E03C00
E03C00
F07C00
FFDC00
7F9C00
1F1C00
ENDCHAR
STARTCHAR 01B1
ENCODING 433
SWIDTH 750 0
DWIDTH 24 0
BBX 22 24 1 0
BITMAP
7F87FC
7F87FC
7F87FC
0701C0
0E00E0
1C0070
380078
780038
70003C
70001C
E0001C
E0001C
E0001C
E0001C
E0001C
70001C
70003C
780038
3C0078
3E00F0
1FC7E0
0FFFC0
03FF00
007800
ENDCHAR
STARTCHAR 01B2
ENCODING 434
SWIDTH 687 0
DWIDTH 22 0
BBX 18 24 3 0
BITMAP
E03C00
E01E00
E00E00
E00F00
E00700
E00780
E00380
E00380
E001C0
E001C0
E001C0
E001C0
E001C0
E001C0
E001C0
E001C0
E00380
E00380
E00780
E00F00
783F00
7FFE00
3FF800
0FE000
ENDCHAR
STARTCHAR 01B3
ENCODING 435
SWIDTH 718 0
DWIDTH 23 0
BBX 22 24 0 0
BITMAP
F00038
78007C
3800FC
3C01E0
1C01C0
1E0380
0F0380
070700
078F00
038E00
03DC00
01DC00
00F800
00F800
007000
007000
007000
007000
007000
007000
007000
007000
007000
007000
ENDCHAR
STARTCHAR 01B4
ENCODING 436
SWIDTH 625 0
DWIDTH 20 0
BBX 20 31 0 -7
BITMAP
0000F0
0001F0
0003F0
000780
000700
000700
000E00
E00E00
700C00
701C00
301C00
381800
383800
183800
1C7000
1C7000
0C7000
0EE000
0EE000
06C000
07C000
07C000
038000
038000
038000
070000
070000
0E0000
7E0000
7C0000
780000
ENDCHAR
STARTCHAR 01B5
ENCODING 437
SWIDTH 625 0
DWIDTH 20 0
BBX 18 24 1 0
BITMAP
7FFFC0
7FFFC0
7FFFC0
000380
000700
000F00
001E00
003C00
007800
00F000
0FFC00
0FFC00
0FFC00
03C000
078000
0F0000
0E0000
1E0000
3C0000
780000
F00000
FFFFC0
FFFFC0
FFFFC0
ENDCHAR
STARTCHAR 01B6
ENCODING 438
SWIDTH 500 0
DWIDTH 16 0
BBX 14 17 1 0
BITMAP
7FF8
7FF8
7FF8
0078
00E0
01C0
7FF0
7FF0
7FF0
0E00
1C00
3800
7000
F000
FFFC
FFFC
FFFC
ENDCHAR
STARTCHAR 01B7
ENCODING 439
SWIDTH 625 0
DWIDTH 20 0
BBX 18 24 1 0
BITMAP
3FFFC0
3FFFC0
3FFFC0
0003C0
000780
000F00
001E00
003C00
007800
01F000
01FE00
01FF00
001F80
000780
0003C0
0001C0
0001C0
E001C0
E001C0
700380
7C0F80
3FFF00
1FFE00
07F000
ENDCHAR
STARTCHAR 01B8
ENCODING 440
SWIDTH 593 0
DWIDTH 19 0
BBX 18 24 1 0
BITMAP
FFFF00
FFFF00
FFFF00
F00000
780000
3C0000
1E0000
0E0000
070000
03C000
1FC000
3FC000
7C0000
700000
F00000
E00000
E00000
E001C0
E001C0
700380
7C0F80
3FFF00
1FFE00
07F800
ENDCHAR
STARTCHAR 01B9
ENCODING 441
SWIDTH 531 0
DWIDTH 17 0
BBX 15 22 1 -5
BITMAP
7FFC
7FFC
7FFC
3800
1C00
1E00
0E00
0700
0380
1F80
7F80
7000
E000
E000
E000
E00E
E00E
F01E
783C
3FFC
1FF8
0FE0
ENDCHAR
STARTCHAR 01BA
ENCODING 442
SWIDTH 500 0
DWIDTH 16 0
BBX 15 23 1 -6
BITMAP
7FF8
7FF8
7FF8
0038
0070
00E0
01C0
0380
03F0
03FC
003C
000E
000E
000E
001E
7C3C
FFFC
FFF8
E3E0
E010
7FF8
7FF8
1FC0
ENDCHAR
STARTCHAR 01BB
ENCODING 443
SWIDTH 562 0
DWIDTH 18 0
BBX 15 23 1 0
BITMAP
07E0
1FF8
3FFC
3C3C
781E
700E
700E
000E
000E
001E
001C
0E78
0FF0
03E0
07FC
1E3C
3C04
3800
7000
7000
7FFE
7FFE
FFFE
ENDCHAR
STARTCHAR 01BE
ENCODING 446
SWIDTH 500 0
DWIDTH 16 0
BBX 14 22 1 0
BITMAP
0700
0700
0700
0700
0700
0FC0
0FC0
0FC0
0700
0700
0780
03E0
00F0
0038
001C
E01C
E01C
F01C
7878
7FF8
3FF0
0FC0
ENDCHAR
STARTCHAR 01BF
ENCODING 447
SWIDTH 562 0
DWIDTH 18 0
BBX 15 24 2 -7
BITMAP
E3F0
EFFC
FFFC
FE1E
F80E
F00E
E00E
E00E
E01C
E01C
E038
E030
E060
E0C0
E180
E300
EE00
F800
F000
E000
E000
E000
E000
E000
ENDCHAR
STARTCHAR 01C0
ENCODING 448
SWIDTH 250 0
DWIDTH 8 0
BBX 2 30 3 -7
BITMAP
C0
C0
C0
C0
C0
C0
C0
C0
C0
C0
C0
C0
C0
C0
C0
C0
C0
C0
C0
C0
C0
C0
C0
C0
C0
C0
C0
C0
C0
C0
ENDCHAR
STARTCHAR 01C1
ENCODING 449
SWIDTH 375 0
DWIDTH 12 0
BBX 6 30 3 -7
BITMAP
CC
CC
CC
CC
CC
CC
CC
CC
CC
CC
CC
CC
CC
CC
CC
CC
CC
CC
CC
CC
CC
CC
CC
CC
CC
CC
CC
CC
CC
CC
ENDCHAR
STARTCHAR 01C2
ENCODING 450
SWIDTH 593 0
DWIDTH 19 0
BBX 14 29 2 -5
BITMAP
0300
0300
0300
0300
0300
0300
0300
0300
0300
0300
0300
0300
FFFC
FFFC
FFFC
0300
0300
FFFC
FFFC
FFFC
0300
0300
0300
0300
0300
0300
0300
0300
0300
ENDCHAR
STARTCHAR 01C3
ENCODING 451
SWIDTH 281 0
DWIDTH 9 0
BBX 3 24 4 0
BITMAP
E0
E0
E0
E0
E0
E0
E0
E0
E0
E0
E0
E0
E0
E0
E0
E0
40
40
40
00
00
E0
E0
E0
ENDCHAR
STARTCHAR 01C4
ENCODING 452
SWIDTH 1281 0
DWIDTH 41 0
BBX 37 29 3 0
BITMAP
000001C700
000000EE00
0000007C00
0000003C00
0000000000
FFF00FFFF8
FFFC0FFFF8
FFFE0FFFF8
E01F000070
E0070000F0
E0078001E0
E0038003C0
E003800380
E001C00780
E001C00F00
E001C01E00
E001C03C00
E001C03800
E001C07800
E001C0F000
E001C1E000
E00381C000
E00383C000
E007878000
E0070F0000
E01F1E0000
FFFE1FFFF8
FFFC1FFFF8
FFF01FFFF8
ENDCHAR
STARTCHAR 01C5
ENCODING 453
SWIDTH 1187 0
DWIDTH 38 0
BBX 34 24 3 0
BITMAP
FFF0018300
FFFC00C600
FFFE00EC00
E01F007C00
E007007800
E007800000
E003800000
E00387FF80
E001C7FF80
E001C7FF80
E001C00380
E001C00700
E001C00E00
E001C01C00
E001C03800
E001C07000
E00380E000
E00381C000
E007838000
E007078000
E01F0F0000
FFFE0FFFC0
FFFC0FFFC0
FFF00FFFC0
ENDCHAR
STARTCHAR 01C6
ENCODING 454
SWIDTH 1031 0
DWIDTH 33 0
BBX 31 24 1 0
BITMAP
000E0C18
000E0638
000E0330
000E03E0
000E01E0
000E0000
000E0000
0F8E3FFE
1FEE3FFE
3FFE3FFE
7C3E001C
701E0038
F01E0070
E00E00E0
E00E01E0
E00E03C0
E00E0780
E00E0700
F01E0E00
701E1C00
7C3E3800
3FF67FFE
1FE67FFE
0FC67FFE
ENDCHAR
STARTCHAR 01C7
ENCODING 455
SWIDTH 1062 0
DWIDTH 34 0
BBX 28 24 3 0
BITMAP
E0000070
E0000070
E0000070
E0000070
E0000070
E0000070
E0000070
E0000070
E0000070
E0000070
E0000070
E0000070
E0000070
E0000070
E0000070
E0000070
E001C070
E001C070
E001C070
E001C0F0
E001E1E0
FFFCFFE0
FFFC7FC0
FFFC3F00
ENDCHAR
STARTCHAR 01C8
ENCODING 456
SWIDTH 781 0
DWIDTH 25 0
BBX 21 31 3 -7
BITMAP
E00038
E00038
E00038
E00000
E00000
E00000
E00000
E00038
E00038
E00038
E00038
E00038
E00038
E00038
E00038
E00038
E00038
E00038
E00038
E00038
E00038
FFFC38
FFFC38
FFFC38
000038
000038
000038
000078
0001F8
0001F0
0001E0
ENDCHAR
STARTCHAR 01C9
ENCODING 457
SWIDTH 437 0
DWIDTH 14 0
BBX 10 31 2 -7
BITMAP
E1C0
E1C0
E1C0
E000
E000
E000
E000
E1C0
E1C0
E1C0
E1C0
E1C0
E1C0
E1C0
E1C0
E1C0
E1C0
E1C0
E1C0
E1C0
E1C0
E1C0
E1C0
E1C0
01C0
01C0
01C0
01C0
07C0
07C0
0780
ENDCHAR
STARTCHAR 01CA
ENCODING 458
SWIDTH 1218 0
DWIDTH 39 0
BBX 33 24 3 0
BITMAP
F001C00380
F001C00380
F801C00380
F801C00380
FC01C00380
EE01C00380
EE01C00380
E701C00380
E701C00380
E381C00380
E1C1C00380
E1C1C00380
E0E1C00380
E0E1C00380
E071C00380
E079C00380
E039CE0380
E01DCE0380
E01DCE0380
E00FCE0780
E00FCF0F00
E007C7FF00
E003C3FE00
E003C0F800
ENDCHAR
STARTCHAR 01CB
ENCODING 459
SWIDTH 937 0
DWIDTH 30 0
BBX 25 31 3 -7
BITMAP
F001C380
F001C380
F801C380
F801C000
FC01C000
EE01C000
EE01C000
E701C380
E701C380
E381C380
E1C1C380
E1C1C380
E0E1C380
E0E1C380
E071C380
E079C380
E039C380
E01DC380
E01DC380
E00FC380
E00FC380
E007C380
E003C380
E003C380
00000380
00000380
00000380
00000380
00000F80
00000F80
00000F00
ENDCHAR
STARTCHAR 01CC
ENCODING 460
SWIDTH 750 0
DWIDTH 24 0
BBX 21 31 2 -7
BITMAP
000038
000038
000038
000000
000000
000000
000000
E3E038
E7F838
EFFC38
F83C38
F01C38
F01C38
E01C38
E01C38
E01C38
E01C38
E01C38
E01C38
E01C38
E01C38
E01C38
E01C38
E01C38
000038
000038
000038
000038
0001F8
0001F8
0001E0
ENDCHAR
STARTCHAR 01CD
ENCODING 461
SWIDTH 656 0
DWIDTH 21 0
BBX 20 29 1 0
BITMAP
0E3800
077000
03E000
01C000
000000
00F000
01F000
01F000
01F800
03B800
03BC00
039C00
071C00
071E00
0E0E00
0E0E00
0E0F00
1C0700
1C0700
1FFF80
3FFF80
3FFF80
3803C0
7801C0
7001C0
7001E0
F000E0
E000E0
E000F0
ENDCHAR
STARTCHAR 01CE
ENCODING 462
SWIDTH 531 0
DWIDTH 17 0
BBX 16 24 1 0
BITMAP
0C38
0C30
0660
07E0
03C0
0000
0000
0FE0
3FF8
3FF8
783C
701C
001C
001C
01FC
3FFC
7F1C
F01C
E01C
E03C
F07C
7FFF
3FDF
1F0F
ENDCHAR
STARTCHAR 01CF
ENCODING 463
SWIDTH 312 0
DWIDTH 10 0
BBX 9 29 0 0
BITMAP
E380
7700
3E00
1C00
0000
1C00
1C00
1C00
1C00
1C00
1C00
1C00
1C00
1C00
1C00
1C00
1C00
1C00
1C00
1C00
1C00
1C00
1C00
1C00
1C00
1C00
1C00
1C00
1C00
ENDCHAR
STARTCHAR 01D0
ENCODING 464
SWIDTH 250 0
DWIDTH 8 0
BBX 9 24 0 0
BITMAP
C180
6300
7700
3600
3E00
0000
0000
1C00
1C00
1C00
1C00
1C00
1C00
1C00
1C00
1C00
1C00
1C00
1C00
1C00
1C00
1C00
1C00
1C00
ENDCHAR
STARTCHAR 01D1
ENCODING 465
SWIDTH 781 0
DWIDTH 25 0
BBX 23 29 1 0
BITMAP
038E00
01DC00
00F800
007000
000000
00FE00
03FF80
0FFFE0
1F01F0
3C0078
380038
78003C
70001C
F0001E
E0000E
E0000E
E0000E
E0000E
E0000E
E0000E
F0001E
70001C
70003C
380038
3C0078
1F01F0
0FFFE0
07FFC0
00FE00
ENDCHAR
STARTCHAR 01D2
ENCODING 466
SWIDTH 531 0
DWIDTH 17 0
BBX 15 24 1 0
BITMAP
0C30
0C30
0660
07E0
03C0
0000
0000
07C0
1FF0
3FF8
783C
701C
F01E
E00E
E00E
E00E
E00E
E00E
F01E
701C
783C
3FF8
1FF0
07C0
ENDCHAR
STARTCHAR 01D3
ENCODING 467
SWIDTH 718 0
DWIDTH 23 0
BBX 17 29 3 0
BITMAP
1C7000
0EE000
07C000
038000
000000
E00380
E00380
E00380
E00380
E00380
E00380
E00380
E00380
E00380
E00380
E00380
E00380
E00380
E00380
E00380
E00380
E00380
E00380
E00780
700700
7C1F00
3FFE00
1FFC00
07F000
ENDCHAR
STARTCHAR 01D4
ENCODING 468
SWIDTH 531 0
DWIDTH 17 0
BBX 14 24 2 0
BITMAP
1860
1860
0CC0
0FC0
0780
0000
0000
E01C
E01C
E01C
E01C
E01C
E01C
E01C
E01C
E01C
E01C
E01C
E03C
E03C
F07C
FFDC
7F9C
1F1C
ENDCHAR
STARTCHAR 01D5
ENCODING 469
SWIDTH 718 0
DWIDTH 23 0
BBX 17 31 3 1
BITMAP
0FF800
0FF800
0FF800
0E3800
0E3800
0E3800
000000
E00380
E00380
E00380
E00380
E00380
E00380
E00380
E00380
E00380
E00380
E00380
E00380
E00380
E00380
E00380
E00380
E00380
E00380
E00780
700700
7C1F00
3FFE00
1FFC00
07F000
ENDCHAR
STARTCHAR 01D6
ENCODING 470
SWIDTH 531 0
DWIDTH 17 0
BBX 14 27 2 0
BITMAP
3FE0
3FE0
3FE0
0000
0000
1C70
1C70
1C70
0000
0000
E01C
E01C
E01C
E01C
E01C
E01C
E01C
E01C
E01C
E01C
E01C
E03C
E03C
F07C
FFDC
7F9C
1F1C
ENDCHAR
STARTCHAR 01D7
ENCODING 471
SWIDTH 718 0
DWIDTH 23 0
BBX 17 32 3 0
BITMAP
007000
00E000
01C000
038000
000000
0E3800
0E3800
0E3800
E00380
E00380
E00380
E00380
E00380
E00380
E00380
E00380
E00380
E00380
E00380
E00380
E00380
E00380
E00380
E00380
E00380
E00380
E00780
700700
7C1F00
3FFE00
1FFC00
07F000
ENDCHAR
STARTCHAR 01D8
ENCODING 472
SWIDTH 531 0
DWIDTH 17 0
BBX 14 29 2 1
BITMAP
00E0
00C0
01C0
0180
0300
0000
0000
1C70
1C70
1C70
0000
0000
E01C
E01C
E01C
E01C
E01C
E01C
E01C
E01C
E01C
E01C
E01C
E03C
E03C
F07C
FFDC
7F9C
1F1C
ENDCHAR
STARTCHAR 01D9
ENCODING 473
SWIDTH 718 0
DWIDTH 23 0
BBX 17 32 3 0
BITMAP
1C7000
0EE000
07C000
038000
000000
0E3800
0E3800
0E3800
E00380
E00380
E00380
E00380
E00380
E00380
E00380
E00380
E00380
E00380
E00380
E00380
E00380
E00380
E00380
E00380
E00380
E00380
E00780
700700
7C1F00
3FFE00
1FFC00
07F000
ENDCHAR
STARTCHAR 01DA
ENCODING 474
SWIDTH 531 0
DWIDTH 17 0
BBX 14 29 2 1
BITMAP
1860
0CE0
0EC0
0780
0780
0000
0000
1C70
1C70
1C70
0000
0000
E01C
E01C
E01C
E01C
E01C
E01C
E01C
E01C
E01C
E01C
E01C
E03C
E03C
F07C
FFDC
7F9C
1F1C
ENDCHAR
STARTCHAR 01DB
ENCODING 475
SWIDTH 718 0
DWIDTH 23 0
BBX 17 32 3 0
BITMAP
0E0000
070000
038000
01C000
000000
0E3800
0E3800
0E3800
E00380
E00380
E00380
E00380
E00380
E00380
E00380
E00380
E00380
E00380
E00380
E00380
E00380
E00380
E00380
E00380
E00380
E00380
E00780
700700
7C1F00
3FFE00
1FFC00
07F000
ENDCHAR
STARTCHAR 01DC
ENCODING 476
SWIDTH 531 0
DWIDTH 17 0
BBX 14 29 2 1
BITMAP
3800
1800
0C00
0E00
0600
0000
0000
1C70
1C70
1C70
0000
0000
E01C
E01C
E01C
E01C
E01C
E01C
E01C
E01C
E01C
E01C
E01C
E03C
E03C
F07C
FFDC
7F9C
1F1C
ENDCHAR
STARTCHAR 01DD
ENCODING 477
SWIDTH 531 0
DWIDTH 17 0
BBX 15 17 1 -1
BITMAP
0100
1FE0
3FF8
7FF8
703C
001C
000E
000E
FFFE
FFFE
FFFE
E00E
600E
701C
7FFC
3FF8
1FE0
ENDCHAR
STARTCHAR 01DE
ENCODING 478
SWIDTH 656 0
DWIDTH 21 0
BBX 20 31 1 1
BITMAP
03FE00
03FE00
03FE00
038E00
038E00
038E00
000000
00F000
01F000
01F000
01F800
03B800
03BC00
039C00
071C00
071E00
0E0E00
0E0E00
0E0F00
1C0700
1C0700
1FFF80
3FFF80
3FFF80
3803C0
7801C0
7001C0
7001E0
F000E0
E000E0
E000F0
ENDCHAR
STARTCHAR 01DF
ENCODING 479
SWIDTH 531 0
DWIDTH 17 0
BBX 16 26 1 1
BITMAP
0FF8
0FF8
0FF8
0000
0E38
0E38
0E38
0000
0000
0FE0
3FF8
3FF8
783C
701C
001C
001C
01FC
3FFC
7F1C
F01C
E01C
E03C
F07C
7FFF
3FDF
1F0F
ENDCHAR
STARTCHAR 01E0
ENCODING 480
SWIDTH 656 0
DWIDTH 21 0
BBX 20 31 1 1
BITMAP
07FE00
07FE00
07FE00
000000
00E000
00E000
00E000
00F000
01F000
01F000
01F800
03B800
03BC00
039C00
071C00
071E00
0E0E00
0E0E00
0E0F00
1C0700
1C0700
1FFF80
3FFF80
3FFF80
3803C0
7801C0
7001C0
7001E0
F000E0
E000E0
E000F0
ENDCHAR
STARTCHAR 01E1
ENCODING 481
SWIDTH 531 0
DWIDTH 17 0
BBX 16 26 1 1
BITMAP
0FF8
0FF8
0FF8
0000
0380
0380
0380
0000
0000
0FE0
3FF8
3FF8
783C
701C
001C
001C
01FC
3FFC
7F1C
F01C
E01C
E03C
F07C
7FFF
3FDF
1F0F
ENDCHAR
STARTCHAR 01E2
ENCODING 482
SWIDTH 968 0
DWIDTH 31 0
BBX 29 28 1 1
BITMAP
0001FF00
0001FF00
0001FF00
00000000
007FFFF0
00FFFFF0
00FFFFF0
00E38000
01C38000
01C38000
03838000
03838000
03838000
07038000
0703FFF0
0E03FFF0
0E03FFF0
0E038000
1FFF8000
1FFF8000
3FFF8000
38038000
38038000
70038000
70038000
F003FFF8
E003FFF8
E003FFF8
ENDCHAR
STARTCHAR 01E3
ENCODING 483
SWIDTH 875 0
DWIDTH 28 0
BBX 26 23 1 0
BITMAP
007FC000
007FC000
007FC000
00000000
00000000
00000000
0FC0F800
3FF1FE00
3FFBFF00
783F0780
701E0380
001C01C0
07FFFFC0
3FFFFFC0
7FDFFFC0
F81C0000
E01C0000
E01E0000
E03E01C0
F0778780
7FE7FF80
7FC3FF00
1F00FC00
ENDCHAR
STARTCHAR 01E4
ENCODING 484
SWIDTH 781 0
DWIDTH 25 0
BBX 23 24 1 0
BITMAP
00FF00
03FFC0
0FFFE0
1F81F0
3E0078
38003C
78001C
700000
F00000
E00000
E00000
E007FC
E007FC
E007FC
E0001C
F0001C
7007FE
7807FE
38001C
3E003C
1F81FC
0FFFDC
07FF0C
00FC0C
ENDCHAR
STARTCHAR 01E5
ENCODING 485
SWIDTH 562 0
DWIDTH 18 0
BBX 16 24 1 -7
BITMAP
0F8E
1FEE
3FEE
787E
701E
F01E
E00E
E00E
E00E
E00E
E00E
F01E
701E
783E
3FEE
1FCE
0F8E
000E
E0FF
E0FF
783C
7FF8
3FF0
0FC0
ENDCHAR
STARTCHAR 01E6
ENCODING 486
SWIDTH 750 0
DWIDTH 24 0
BBX 22 29 1 0
BITMAP
038E00
01DC00
00F800
007000
000000
00FF00
03FFC0
0FFFE0
1F81F0
3E0078
38003C
78001C
700000
F00000
E00000
E00000
E007FC
E007FC
E007FC
E0001C
F0001C
70001C
78003C
38003C
3E007C
1F81FC
0FFFDC
07FF0C
00FC0C
ENDCHAR
STARTCHAR 01E7
ENCODING 487
SWIDTH 562 0
DWIDTH 18 0
BBX 15 31 1 -7
BITMAP
1830
0C60
0EE0
07C0
0780
0000
0000
0F8E
1FEE
3FFE
787E
701E
F01E
E00E
E00E
E00E
E00E
E00E
F01E
701E
783E
3FEE
1FCE
0F8E
000E
001E
E01C
F03C
7FF8
3FF8
0FE0
ENDCHAR
STARTCHAR 01E8
ENCODING 488
SWIDTH 687 0
DWIDTH 22 0
BBX 18 29 3 0
BITMAP
0E3800
077000
03E000
01C000
000000
E003C0
E00780
E00F00
E01E00
E03C00
E07800
E0F000
E1E000
E3C000
E38000
E78000
EFC000
FDE000
F8E000
F07000
E07800
E03800
E01C00
E01E00
E00F00
E00700
E00780
E003C0
E001C0
ENDCHAR
STARTCHAR 01E9
ENCODING 489
SWIDTH 500 0
DWIDTH 16 0
BBX 14 29 2 1
BITMAP
1860
18C0
0DC0
0F80
0780
E000
E000
E000
E000
E000
E000
E000
E038
E070
E0E0
E1C0
E380
E700
EF00
FF80
FB80
F1C0
E1E0
E0E0
E0F0
E070
E038
E03C
E01C
ENDCHAR
STARTCHAR 01EA
ENCODING 490
SWIDTH 781 0
DWIDTH 25 0
BBX 23 31 1 -7
BITMAP
00FE00
07FF80
0FFFE0
1F03F0
3C00F0
380078
78003C
70001C
F0001C
E0000E
E0000E
E0000E
E0000E
E0000E
E0000E
E0000E
E0001E
70001C
70003C
780038
3C0078
1E01F0
0FFFE0
07FF80
01FE00
006000
00C000
018000
018000
01C000
007C00
ENDCHAR
STARTCHAR 01EB
ENCODING 491
SWIDTH 531 0
DWIDTH 17 0
BBX 15 24 1 -7
BITMAP
0FC0
1FF0
3FF8
787C
703C
F01C
E00E
E00E
E00E
E00E
E00E
E00E
E01E
701C
703C
3CF8
3FF0
0FE0
0600
0C00
1800
1800
1800
07C0
ENDCHAR
STARTCHAR 01EC
ENCODING 492
SWIDTH 781 0
DWIDTH 25 0
BBX 23 35 1 -6
BITMAP
01FF00
01FF00
01FF00
000000
00FE00
07FF80
0FFFE0
1F03F0
3C00F0
380078
78003C
70001C
F0001C
E0000E
E0000E
E0000E
E0000E
E0000E
E0000E
E0000E
E0001E
70001C
70003C
780038
3C0078
1E01F0
0FFFE0
07FF80
01FE00
006000
00C000
018000
018000
01C000
007C00
ENDCHAR
STARTCHAR 01ED
ENCODING 493
SWIDTH 531 0
DWIDTH 17 0
BBX 15 28 1 -6
BITMAP
1FF0
1FF0
1FF0
0000
0FC0
1FF0
3FF8
787C
703C
F01C
E00E
E00E
E00E
E00E
E00E
E00E
E01E
701C
703C
3CF8
3FF0
0FE0
0600
0C00
1800
1800
1800
07C0
ENDCHAR
STARTCHAR 01EE
ENCODING 494
SWIDTH 625 0
DWIDTH 20 0
BBX 18 29 1 0
BITMAP
0E3800
077000
03E000
01C000
000000
3FFFC0
3FFFC0
3FFFC0
0003C0
000780
000F00
001E00
003C00
007800
01F000
01FE00
01FF00
001F80
000780
0003C0
0001C0
0001C0
E001C0
E001C0
700380
7C0F80
3FFF00
1FFE00
07F000
ENDCHAR
STARTCHAR 01EF
ENCODING 495
SWIDTH 531 0
DWIDTH 17 0
BBX 15 29 1 -5
BITMAP
1830
0C60
0EE0
06C0
03C0
0000
0000
7FFC
7FFC
7FFC
0038
0070
00F0
01E0
01C0
0380
03F0
03FC
001C
000E
000E
000E
E00E
E00E
F01E
783C
7FF8
3FF0
0FE0
ENDCHAR
STARTCHAR 01F0
ENCODING 496
SWIDTH 218 0
DWIDTH 7 0
BBX 9 30 -1 -6
BITMAP
6180
7300
3700
1E00
1E00
0000
1C00
1C00
1C00
1C00
1C00
1C00
1C00
1C00
1C00
1C00
1C00
1C00
1C00
1C00
1C00
1C00
1C00
1C00
1C00
1C00
1C00
FC00
F800
F000
ENDCHAR
STARTCHAR 01F1
ENCODING 497
SWIDTH 1312 0
DWIDTH 42 0
BBX 38 24 3 0
BITMAP
FFF007FFF8
FFFC07FFF8
FFFE07FFF8
E01F000078
E007000070
E0078000F0
E0038001E0
E0038003C0
E001C00780
E001C00780
E001C00F00
E001C01E00
E001C03C00
E001C03800
E001C07800
E001C0F000
E00381E000
E00383C000
E00783C000
E007078000
E01F0F0000
FFFE0FFFFC
FFFC0FFFFC
FFF00FFFFC
ENDCHAR
STARTCHAR 01F2
ENCODING 498
SWIDTH 1187 0
DWIDTH 38 0
BBX 34 24 3 0
BITMAP
FFF0000000
FFFC000000
FFFE000000
E01F000000
E007000000
E007800000
E003800000
E00387FF80
E001C7FF80
E001C7FF80
E001C00380
E001C00700
E001C00E00
E001C01C00
E001C03800
E001C07000
E00380E000
E00381E000
E00783C000
E007078000
E01F0F0000
FFFE0FFFC0
FFFC0FFFC0
FFF00FFFC0
ENDCHAR
STARTCHAR 01F3
ENCODING 499
SWIDTH 1031 0
DWIDTH 33 0
BBX 31 24 1 0
BITMAP
000E0000
000E0000
000E0000
000E0000
000E0000
000E0000
000E0000
0F8E3FFE
1FEE3FFE
3FFE3FFE
7C3E001E
701E003C
F01E0078
E00E0070
E00E00E0
E00E01C0
E00E0380
E00E0700
F01E0E00
701E1C00
7C3E3800
3FF63FFE
1FE63FFE
0FC63FFE
ENDCHAR
STARTCHAR 01F4
ENCODING 500
SWIDTH 750 0
DWIDTH 24 0
BBX 22 29 1 0
BITMAP
000E00
001C00
003800
007000
000000
00FF00
03FFC0
0FFFE0
1F81F0
3E0078
38003C
78001C
700000
F00000
E00000
E00000
E007FC
E007FC
E007FC
E0001C
F0001C
70001C
78003C
38003C
3E007C
1F81FC
0FFFDC
07FF0C
00FC0C
ENDCHAR
STARTCHAR 01F5
ENCODING 501
SWIDTH 562 0
DWIDTH 18 0
BBX 15 31 1 -7
BITMAP
0070
00E0
00C0
01C0
0180
0000
0000
0F8E
1FEE
3FFE
787E
701E
F01E
E00E
E00E
E00E
E00E
E00E
F01E
701E
783E
3FEE
1FCE
0F8E
000E
001E
E01C
F03C
7FF8
3FF8
0FE0
ENDCHAR
STARTCHAR 01F7
ENCODING 503
SWIDTH 593 0
DWIDTH 19 0
BBX 15 24 3 0
BITMAP
01F0
E7F8
EFFC
FE1E
F80E
F00E
E00E
E00E
E01E
E01C
E03C
E078
E0F0
E1E0
E3C0
E780
FF00
FE00
F800
E000
E000
E000
E000
E000
ENDCHAR
STARTCHAR 01F8
ENCODING 504
SWIDTH 718 0
DWIDTH 23 0
BBX 18 29 3 0
BITMAP
070000
038000
01C000
00E000
000000
F001C0
F001C0
F801C0
F801C0
FC01C0
EE01C0
EE01C0
E701C0
E701C0
E381C0
E1C1C0
E1C1C0
E0E1C0
E0E1C0
E071C0
E079C0
E039C0
E01DC0
E01DC0
E00FC0
E00FC0
E007C0
E003C0
E003C0
ENDCHAR
STARTCHAR 01F9
ENCODING 505
SWIDTH 531 0
DWIDTH 17 0
BBX 14 24 2 0
BITMAP
1C00
0E00
0600
0300
0300
0000
0000
E3E0
E7F8
EFFC
F83C
F01C
F01C
E01C
E01C
E01C
E01C
E01C
E01C
E01C
E01C
E01C
E01C
E01C
ENDCHAR
STARTCHAR 01FA
ENCODING 506
SWIDTH 656 0
DWIDTH 21 0
BBX 20 29 1 0
BITMAP
00E000
01C000
038000
070000
00F000
01F800
039800
031800
01F800
01F000
004000
00F000
01F000
01F800
03B800
039C00
071C00
071E00
0E0E00
0E0E00
1C0700
1C0700
3FFF80
3FFF80
3803C0
7001C0
7001E0
E000E0
E000F0
ENDCHAR
STARTCHAR 01FB
ENCODING 507
SWIDTH 531 0
DWIDTH 17 0
BBX 16 29 1 0
BITMAP
01C0
0380
0700
0E00
03C0
07E0
0660
0C60
0660
07E0
03C0
0000
0FE0
3FF8
3FF8
783C
701C
001C
001C
01FC
3FFC
7F1C
F01C
E01C
E03C
F07C
7FFF
3FDF
1F0F
ENDCHAR
STARTCHAR 01FC
ENCODING 508
SWIDTH 968 0
DWIDTH 31 0
BBX 29 29 1 0
BITMAP
00001C00
00003800
00007000
0000E000
00000000
007FFFF0
00FFFFF0
00FFFFF0
00E38000
01C38000
01C38000
03838000
03838000
03838000
07038000
0703FFF0
0E03FFF0
0E03FFF0
0E038000
1FFF8000
1FFF8000
3FFF8000
38038000
38038000
70038000
70038000
F003FFF8
E003FFF8
E003FFF8
ENDCHAR
STARTCHAR 01FD
ENCODING 509
SWIDTH 875 0
DWIDTH 28 0
BBX 26 24 1 0
BITMAP
0001C000
00038000
00030000
00070000
00060000
00000000
00000000
0FC0F800
3FF1FE00
3FFBFF00
783F0780
701E0380
001C01C0
07FFFFC0
3FFFFFC0
7FDFFFC0
F81C0000
E01C0000
E01E0000
E03E01C0
F0778780
7FE7FF80
7FC3FF00
1F00FC00
ENDCHAR
STARTCHAR 01FE
ENCODING 510
SWIDTH 781 0
DWIDTH 25 0
BBX 23 29 1 0
BITMAP
000E00
001C00
003800
007000
000000
00FE06
07FF8E
0FFFDC
1F01F8
3C0078
380078
7800FC
70019C
F0031E
E0060E
E00C0E
E0180E
E0300E
E0600E
E0C00E
F1801E
73001C
7E003C
3C0038
3C0078
3F01F0
6FFFE0
C3FFC0
00FE00
ENDCHAR
STARTCHAR 01FF
ENCODING 511
SWIDTH 625 0
DWIDTH 20 0
BBX 15 25 1 -1
BITMAP
0038
0070
00E0
00C0
0180
0000
0000
07C2
1FF6
3FFC
783C
701C
F03C
E04E
E08E
E10E
E20E
E60E
FC1E
781C
383C
7FF8
DFF0
87C0
8000
ENDCHAR
STARTCHAR 0200
ENCODING 512
SWIDTH 656 0
DWIDTH 21 0
BBX 20 29 1 0
BITMAP
1E7000
073800
033800
019800
000000
00F000
01F000
01F000
01F800
03B800
03BC00
039C00
071C00
071E00
0E0E00
0E0E00
0E0F00
1C0700
1C0700
1FFF80
3FFF80
3FFF80
3803C0
7801C0
7001C0
7001E0
F000E0
E000E0
E000F0
ENDCHAR
STARTCHAR 0201
ENCODING 513
SWIDTH 531 0
DWIDTH 17 0
BBX 16 24 1 0
BITMAP
73C0
39C0
39C0
1CE0
0C60
0000
0000
0FE0
3FF8
3FF8
783C
701C
001C
001C
01FC
3FFC
7F1C
F01C
E01C
E03C
F07C
7FFF
3FDF
1F0F
ENDCHAR
STARTCHAR 0202
ENCODING 514
SWIDTH 656 0
DWIDTH 21 0
BBX 20 29 1 0
BITMAP
00F000
03FC00
03FC00
070E00
060600
00F000
01F000
01F000
01F800
03B800
03BC00
039C00
071C00
071E00
0E0E00
0E0E00
0E0F00
1C0700
1C0700
1FFF80
3FFF80
3FFF80
3803C0
7801C0
7001C0
7001E0
F000E0
E000E0
E000F0
ENDCHAR
STARTCHAR 0203
ENCODING 515
SWIDTH 531 0
DWIDTH 17 0
BBX 16 23 1 0
BITMAP
03C0
0FF0
1FF0
1C38
1818
0000
0FE0
3FF8
3FF8
783C
701C
001C
001C
01FC
3FFC
7F1C
F01C
E01C
E03C
F07C
7FFF
3FDF
1F0F
ENDCHAR
STARTCHAR 0204
ENCODING 516
SWIDTH 625 0
DWIDTH 20 0
BBX 16 29 3 0
BITMAP
79C0
1CE0
0CE0
0660
0000
FFFF
FFFF
FFFF
E000
E000
E000
E000
E000
E000
E000
FFFE
FFFE
FFFE
E000
E000
E000
E000
E000
E000
E000
E000
FFFF
FFFF
FFFF
ENDCHAR
STARTCHAR 0205
ENCODING 517
SWIDTH 531 0
DWIDTH 17 0
BBX 15 24 1 0
BITMAP
79C0
39C0
1CE0
0C60
0E60
0000
0000
07E0
1FF0
3FF8
783C
701C
E00E
FFFE
FFFE
FFFE
E000
E000
F000
701E
783C
3FFC
1FF8
07E0
ENDCHAR
STARTCHAR 0206
ENCODING 518
SWIDTH 625 0
DWIDTH 20 0
BBX 16 29 3 0
BITMAP
03E0
0FF0
0FF8
1C38
1818
FFFF
FFFF
FFFF
E000
E000
E000
E000
E000
E000
E000
FFFE
FFFE
FFFE
E000
E000
E000
E000
E000
E000
E000
E000
FFFF
FFFF
FFFF
ENDCHAR
STARTCHAR 0207
ENCODING 519
SWIDTH 531 0
DWIDTH 17 0
BBX 15 23 1 0
BITMAP
03E0
0FF0
0FF8
1C38
1818
0000
07E0
1FF0
3FF8
783C
701C
E00E
FFFE
FFFE
FFFE
E000
E000
F000
701E
783C
3FFC
1FF8
07E0
ENDCHAR
STARTCHAR 0208
ENCODING 520
SWIDTH 312 0
DWIDTH 10 0
BBX 10 29 -1 0
BITMAP
F380
39C0
19C0
0CC0
0000
0E00
0E00
0E00
0E00
0E00
0E00
0E00
0E00
0E00
0E00
0E00
0E00
0E00
0E00
0E00
0E00
0E00
0E00
0E00
0E00
0E00
0E00
0E00
0E00
ENDCHAR
STARTCHAR 0209
ENCODING 521
SWIDTH 250 0
DWIDTH 8 0
BBX 10 24 -2 0
BITMAP
E780
7380
7180
39C0
18C0
0000
0000
0700
0700
0700
0700
0700
0700
0700
0700
0700
0700
0700
0700
0700
0700
0700
0700
0700
ENDCHAR
STARTCHAR 020A
ENCODING 522
SWIDTH 312 0
DWIDTH 10 0
BBX 10 29 0 0
BITMAP
1E00
7F80
7F80
E1C0
C0C0
1C00
1C00
1C00
1C00
1C00
1C00
1C00
1C00
1C00
1C00
1C00
1C00
1C00
1C00
1C00
1C00
1C00
1C00
1C00
1C00
1C00
1C00
1C00
1C00
ENDCHAR
STARTCHAR 020B
ENCODING 523
SWIDTH 250 0
DWIDTH 8 0
BBX 9 23 0 0
BITMAP
3E00
7F00
FF80
E380
C180
0000
1C00
1C00
1C00
1C00
1C00
1C00
1C00
1C00
1C00
1C00
1C00
1C00
1C00
1C00
1C00
1C00
1C00
ENDCHAR
STARTCHAR 020C
ENCODING 524
SWIDTH 781 0
DWIDTH 25 0
BBX 23 29 1 0
BITMAP
079C00
01CE00
00CE00
006600
000000
00FE00
03FF80
0FFFE0
1F01F0
3C0078
380038
78003C
70001C
F0001E
E0000E
E0000E
E0000E
E0000E
E0000E
E0000E
F0001E
70001C
70003C
380038
3C0078
1F01F0
0FFFE0
07FFC0
00FE00
ENDCHAR
STARTCHAR 020D
ENCODING 525
SWIDTH 531 0
DWIDTH 17 0
BBX 15 24 1 0
BITMAP
F380
79C0
39C0
1CC0
0C60
0000
0000
07C0
1FF0
3FF8
783C
701C
F01E
E00E
E00E
E00E
E00E
E00E
F01E
701C
783C
3FF8
1FF0
07C0
ENDCHAR
STARTCHAR 020E
ENCODING 526
SWIDTH 781 0
DWIDTH 25 0
BBX 23 29 1 0
BITMAP
003C00
00FE00
01FF00
01C380
018180
00FE00
03FF80
0FFFE0
1F01F0
3C0078
380038
78003C
70001C
F0001E
E0000E
E0000E
E0000E
E0000E
E0000E
E0000E
F0001E
70001C
70003C
380038
3C0078
1F01F0
0FFFE0
07FFC0
00FE00
ENDCHAR
STARTCHAR 020F
ENCODING 527
SWIDTH 531 0
DWIDTH 17 0
BBX 15 23 1 0
BITMAP
03E0
0FF0
0FF8
1C38
1818
0000
07C0
1FF0
3FF8
783C
701C
F01E
E00E
E00E
E00E
E00E
E00E
F01E
701C
783C
3FF8
1FF0
07C0
ENDCHAR
STARTCHAR 0210
ENCODING 528
SWIDTH 718 0
DWIDTH 23 0
BBX 18 29 3 0
BITMAP
79C000
1CE000
0CE000
066000
000000
FFF800
FFFE00
FFFF00
E00F00
E00780
E00380
E00380
E00380
E00380
E00700
E00F00
FFFE00
FFFC00
FFFF00
E00F00
E00780
E00380
E00380
E00380
E00380
E00380
E00380
E00380
E003C0
ENDCHAR
STARTCHAR 0211
ENCODING 529
SWIDTH 343 0
DWIDTH 11 0
BBX 11 24 -1 0
BITMAP
F380
79C0
39C0
18C0
0CE0
0000
0000
1C60
1DE0
1DE0
1F80
1E00
1C00
1C00
1C00
1C00
1C00
1C00
1C00
1C00
1C00
1C00
1C00
1C00
ENDCHAR
STARTCHAR 0212
ENCODING 530
SWIDTH 718 0
DWIDTH 23 0
BBX 18 29 3 0
BITMAP
03E000
07F000
0FF800
0E3800
0C1800
FFF800
FFFE00
FFFF00
E00F00
E00780
E00380
E00380
E00380
E00380
E00700
E00F00
FFFE00
FFFC00
FFFF00
E00F00
E00780
E00380
E00380
E00380
E00380
E00380
E00380
E00380
E003C0
ENDCHAR
STARTCHAR 0213
ENCODING 531
SWIDTH 343 0
DWIDTH 11 0
BBX 10 23 2 0
BITMAP
3E00
7F00
FF80
E180
C1C0
0000
E300
EF00
EF00
FC00
F000
E000
E000
E000
E000
E000
E000
E000
E000
E000
E000
E000
E000
ENDCHAR
STARTCHAR 0214
ENCODING 532
SWIDTH 718 0
DWIDTH 23 0
BBX 17 29 3 0
BITMAP
79C000
1CE000
0CE000
066000
000000
E00380
E00380
E00380
E00380
E00380
E00380
E00380
E00380
E00380
E00380
E00380
E00380
E00380
E00380
E00380
E00380
E00380
E00380
E00780
700700
7C1F00
3FFE00
1FFC00
07F000
ENDCHAR
STARTCHAR 0215
ENCODING 533
SWIDTH 531 0
DWIDTH 17 0
BBX 14 24 2 0
BITMAP
73C0
39C0
38C0
1CE0
0C60
0000
0000
E01C
E01C
E01C
E01C
E01C
E01C
E01C
E01C
E01C
E01C
E01C
E03C
E03C
F07C
FFDC
7F9C
1F1C
ENDCHAR
STARTCHAR 0216
ENCODING 534
SWIDTH 718 0
DWIDTH 23 0
BBX 17 29 3 0
BITMAP
01E000
07F800
07F800
0E1C00
0C0C00
E00380
E00380
E00380
E00380
E00380
E00380
E00380
E00380
E00380
E00380
E00380
E00380
E00380
E00380
E00380
E00380
E00380
E00380
E00780
700700
7C1F00
3FFE00
1FFC00
07F000
ENDCHAR
STARTCHAR 0217
ENCODING 535
SWIDTH 531 0
DWIDTH 17 0
BBX 14 23 2 0
BITMAP
0780
1FE0
1FE0
3870
3030
0000
E01C
E01C
E01C
E01C
E01C
E01C
E01C
E01C
E01C
E01C
E01C
E03C
E03C
F07C
FFDC
7F9C
1F1C
ENDCHAR
STARTCHAR 0218
ENCODING 536
SWIDTH 656 0
DWIDTH 21 0
BBX 19 34 1 -10
BITMAP
03F800
0FFE00
1FFF00
3C0F80
7803C0
7001C0
7001C0
700000
780000
7C0000
3F8000
1FF800
03FF00
007F80
0007C0
0001E0
E000E0
E000E0
F000E0
7001C0
7C07C0
3FFF80
1FFF00
03F800
000000
000000
000000
00E000
00E000
00E000
002000
002000
006000
00C000
ENDCHAR
STARTCHAR 0219
ENCODING 537
SWIDTH 500 0
DWIDTH 16 0
BBX 13 27 2 -10
BITMAP
1F80
3FE0
7FE0
F0F0
E070
E000
F000
7F00
3FE0
0FF0
00F8
0038
E038
F078
7FF0
7FE0
1F80
0000
0000
0000
0E00
0E00
0E00
0200
0200
0600
0C00
ENDCHAR
STARTCHAR 021A
ENCODING 538
SWIDTH 625 0
DWIDTH 20 0
BBX 17 34 2 -10
BITMAP
FFFF80
FFFF80
FFFF80
01C000
01C000
01C000
01C000
01C000
01C000
01C000
01C000
01C000
01C000
01C000
01C000
01C000
01C000
01C000
01C000
01C000
01C000
01C000
01C000
01C000
000000
000000
000000
038000
038000
038000
008000
008000
018000
030000
ENDCHAR
STARTCHAR 021B
ENCODING 539
SWIDTH 281 0
DWIDTH 9 0
BBX 6 30 2 -10
BITMAP
70
70
70
FC
FC
FC
70
70
70
70
70
70
70
70
70
70
70
7C
7C
3C
00
00
00
70
70
70
10
10
30
60
ENDCHAR
STARTCHAR 021C
ENCODING 540
SWIDTH 531 0
DWIDTH 17 0
BBX 15 26 1 -4
BITMAP
0FC0
3FF0
7FF8
7878
F03C
E01C
E01C
001C
001C
0038
00F8
03F0
0FF8
0F3C
0C1E
000E
000E
000E
001E
003C
00FC
03F8
0FE0
7F80
FE00
7000
ENDCHAR
STARTCHAR 021D
ENCODING 541
SWIDTH 406 0
DWIDTH 13 0
BBX 11 20 1 -3
BITMAP
1F00
7F80
7FC0
F1E0
E0E0
00E0
00E0
01C0
03C0
0F80
1FC0
08E0
00E0
00E0
01E0
01C0
07C0
1F00
7C00
7000
ENDCHAR
STARTCHAR 021E
ENCODING 542
SWIDTH 718 0
DWIDTH 23 0
BBX 18 29 3 0
BITMAP
1C7000
0EE000
07C000
038000
000000
E001C0
E001C0
E001C0
E001C0
E001C0
E001C0
E001C0
E001C0
E001C0
E001C0
FFFFC0
FFFFC0
FFFFC0
E001C0
E001C0
E001C0
E001C0
E001C0
E001C0
E001C0
E001C0
E001C0
E001C0
E001C0
ENDCHAR
STARTCHAR 021F
ENCODING 543
SWIDTH 531 0
DWIDTH 17 0
BBX 14 29 2 1
BITMAP
0C30
0E60
06E0
07C0
03C0
E000
E000
E000
E000
E000
E000
E000
E3E0
EFF8
EFFC
F83C
F01C
F01C
E01C
E01C
E01C
E01C
E01C
E01C
E01C
E01C
E01C
E01C
E01C
ENDCHAR
STARTCHAR 0220
ENCODING 544
SWIDTH 718 0
DWIDTH 23 0
BBX 17 31 3 -8
BITMAP
E7F000
FFFC00
FFFE00
FC1F00
F00700
F00780
E00380
E00380
E00380
E00380
E00380
E00380
E00380
E00380
E00380
E00380
E00380
E00380
E00380
E00380
E00380
E00380
E00380
E00380
000380
000380
000380
000380
000380
000380
000380
ENDCHAR
STARTCHAR 0224
ENCODING 548
SWIDTH 625 0
DWIDTH 20 0
BBX 17 31 2 -7
BITMAP
7FFF80
7FFF80
7FFF80
000780
000F00
000E00
001C00
003C00
007800
007000
00E000
01C000
03C000
038000
070000
0E0000
1E0000
1C0000
380000
700000
E00000
FFFF80
FFFF80
FFFF80
000380
000380
000380
000380
001F80
001F00
001E00
ENDCHAR
STARTCHAR 0225
ENCODING 549
SWIDTH 500 0
DWIDTH 16 0
BBX 13 24 2 -7
BITMAP
7FF8
7FF8
7FF8
0070
00E0
01C0
0380
0300
0700
0E00
1C00
3800
7000
E000
FFF8
FFF8
FFF8
0038
0038
0038
0038
01F8
01F0
01E0
ENDCHAR
STARTCHAR 0226
ENCODING 550
SWIDTH 656 0
DWIDTH 21 0
BBX 20 29 1 0
BITMAP
00E000
00E000
00E000
000000
000000
00F000
01F000
01F000
01F800
03B800
03BC00
039C00
071C00
071E00
0E0E00
0E0E00
0E0F00
1C0700
1C0700
1FFF80
3FFF80
3FFF80
3803C0
7801C0
7001C0
7001E0
F000E0
E000E0
E000F0
ENDCHAR
STARTCHAR 0227
ENCODING 551
SWIDTH 531 0
DWIDTH 17 0
BBX 16 23 1 1
BITMAP
0380
0380
0380
0000
0000
0000
0FE0
3FF8
3FF8
783C
701C
001C
001C
01FC
3FFC
7F1C
F01C
E01C
E03C
F07C
7FFF
3FDF
1F0F
ENDCHAR
STARTCHAR 0228
ENCODING 552
SWIDTH 625 0
DWIDTH 20 0
BBX 16 31 3 -7
BITMAP
FFFF
FFFF
FFFF
E000
E000
E000
E000
E000
E000
E000
FFFE
FFFE
FFFE
E000
E000
E000
E000
E000
E000
E000
E000
FFFF
FFFF
FFFF
0100
0100
03E0
0070
0070
0C70
07C0
ENDCHAR
STARTCHAR 0229
ENCODING 553
SWIDTH 531 0
DWIDTH 17 0
BBX 15 24 1 -7
BITMAP
07C0
1FF0
3FF8
783C
701C
E00E
E00E
FFFE
FFFE
FFFE
E000
E000
E00E
701C
783C
3FF8
1FF0
0300
0200
03C0
00E0
00E0
18E0
0F80
ENDCHAR
STARTCHAR 022A
ENCODING 554
SWIDTH 781 0
DWIDTH 25 0
BBX 23 31 1 1
BITMAP
01FF00
01FF00
01FF00
01C700
01C700
01C700
000000
00FE00
03FF80
0FFFE0
1F01F0
3C0078
380038
78003C
70001C
F0001E
E0000E
E0000E
E0000E
E0000E
E0000E
E0000E
F0001E
70001C
70003C
380038
3C0078
1F01F0
0FFFE0
07FFC0
00FE00
ENDCHAR
STARTCHAR 022B
ENCODING 555
SWIDTH 531 0
DWIDTH 17 0
BBX 15 26 1 1
BITMAP
0FF8
0FF8
0FF8
0000
1C70
1C70
1C70
0000
0000
07C0
1FF0
3FF8
783C
701C
F01E
E00E
E00E
E00E
E00E
E00E
F01E
701C
783C
3FF8
1FF0
07C0
ENDCHAR
STARTCHAR 022C
ENCODING 556
SWIDTH 781 0
DWIDTH 25 0
BBX 23 33 1 0
BITMAP
01FF00
01FF00
01FF00
01FF00
01FB00
01FF00
031E00
030400
000000
00FE00
03FF80
0FFFE0
1F01F0
3C0078
380038
78003C
70001C
F0001E
E0000E
E0000E
E0000E
E0000E
E0000E
E0000E
F0001E
70001C
70003C
380038
3C0078
1F01F0
0FFFE0
07FFC0
00FE00
ENDCHAR
STARTCHAR 022D
ENCODING 557
SWIDTH 531 0
DWIDTH 17 0
BBX 15 26 1 1
BITMAP
0FF8
0FF8
0FF8
1F30
1FF0
1BF0
18E0
0000
0000
07C0
1FF0
3FF8
783C
701C
F01E
E00E
E00E
E00E
E00E
E00E
F01E
701C
783C
3FF8
1FF0
07C0
ENDCHAR
STARTCHAR 022E
ENCODING 558
SWIDTH 781 0
DWIDTH 25 0
BBX 23 29 1 0
BITMAP
003800
003800
003800
000000
000000
00FE00
03FF80
0FFFE0
1F01F0
3C0078
380038
78003C
70001C
F0001E
E0000E
E0000E
E0000E
E0000E
E0000E
E0000E
F0001E
70001C
70003C
380038
3C0078
1F01F0
0FFFE0
07FFC0
00FE00
ENDCHAR
STARTCHAR 022F
ENCODING 559
SWIDTH 531 0
DWIDTH 17 0
BBX 15 23 1 0
BITMAP
0380
0380
0380
0000
0000
0000
07C0
1FF0
3FF8
783C
701C
F01E
E00E
E00E
E00E
E00E
E00E
F01E
701C
783C
3FF8
1FF0
07C0
ENDCHAR
STARTCHAR 0230
ENCODING 560
SWIDTH 781 0
DWIDTH 25 0
BBX 23 32 1 1
BITMAP
01FF00
01FF00
01FF00
000000
003800
003800
003800
000000
00FE00
03FF80
0FFFE0
1F01F0
3C0078
380038
78003C
70001C
F0001E
E0000E
E0000E
E0000E
E0000E
E0000E
E0000E
F0001E
70001C
70003C
380038
3C0078
1F01F0
0FFFE0
07FFC0
00FE00
ENDCHAR
STARTCHAR 0231
ENCODING 561
SWIDTH 531 0
DWIDTH 17 0
BBX 15 26 1 1
BITMAP
1FF0
1FF0
1FF0
0000
0380
0380
0380
0000
0000
07C0
1FF0
3FF8
783C
701C
F01E
E00E
E00E
E00E
E00E
E00E
F01E
701C
783C
3FF8
1FF0
07C0
ENDCHAR
STARTCHAR 0232
ENCODING 562
SWIDTH 687 0
DWIDTH 22 0
BBX 20 28 0 0
BITMAP
03FF00
03FF00
03FF00
000000
F00070
7800F0
3800E0
3C01E0
1C01C0
1E0380
0E0780
070700
078F00
038E00
03DC00
01DC00
00F800
00F800
007000
007000
007000
007000
007000
007000
007000
007000
007000
007000
ENDCHAR
STARTCHAR 0233
ENCODING 563
SWIDTH 468 0
DWIDTH 15 0
BBX 15 28 0 -6
BITMAP
0FF8
0FF8
0FF8
0000
E00E
700C
701C
301C
3818
3838
1838
1C70
1C70
0C70
0EE0
0EE0
06C0
07C0
07C0
0380
0380
0380
0700
0700
0F00
7E00
7C00
7800
ENDCHAR
STARTCHAR 0237
ENCODING 567
SWIDTH 218 0
DWIDTH 7 0
BBX 6 24 -1 -7
BITMAP
1C
1C
1C
1C
1C
1C
1C
1C
1C
1C
1C
1C
1C
1C
1C
1C
1C
1C
1C
1C
1C
FC
F8
F0
ENDCHAR
STARTCHAR 0238
ENCODING 568
SWIDTH 906 0
DWIDTH 29 0
BBX 28 24 1 0
BITMAP
000E0000
000E0000
000E0000
000E0000
000E0000
000E0000
000E0000
0F8E3E00
1FEEFF80
3FFFFFC0
7C3FC3E0
701F00E0
F01F00F0
E00E0070
E00E0070
E00E0070
E00E0070
E00E0070
F01F00F0
701F00E0
7C3FC3E0
3FF6FFC0
1FE6FF80
0FC63E00
ENDCHAR
STARTCHAR 0239
ENCODING 569
SWIDTH 906 0
DWIDTH 29 0
BBX 27 22 1 -5
BITMAP
07C63C00
1FF6FF00
3FF6FF80
7C3F87C0
701F01C0
F01F01E0
E00E00E0
E00E00E0
E00E00E0
E00E00E0
E00E00E0
F01F01E0
701F01C0
7C3F87C0
3FFFFF80
1FEEFF00
0F8E3E00
000E0000
000E0000
000E0000
000E0000
000E0000
ENDCHAR
STARTCHAR 0250
ENCODING 592
SWIDTH 531 0
DWIDTH 17 0
BBX 16 17 0 -1
BITMAP
0020
F9FC
FBFE
FFFF
3E07
3C07
3807
381F
3BFE
3FF0
3E00
3800
380E
3C0E
1FFE
1FFC
0FF8
ENDCHAR
STARTCHAR 0251
ENCODING 593
SWIDTH 562 0
DWIDTH 18 0
BBX 17 17 1 0
BITMAP
0F8E00
1FEE00
3FEE00
787E00
703E00
F01E00
E00E00
E00E00
E00E00
E00E00
E00E00
F01E00
701E00
7C3E00
3FFF80
1FEF80
078780
ENDCHAR
STARTCHAR 0252
ENCODING 594
SWIDTH 562 0
DWIDTH 18 0
BBX 17 17 0 -1
BITMAP
707000
F9FC00
FBFE00
3F1F00
3E0700
3C0780
3C0380
3C0380
380380
380380
3C0380
3C0380
3E0780
3F0F00
3BFF00
3BFE00
38F800
ENDCHAR
STARTCHAR 0253
ENCODING 595
SWIDTH 562 0
DWIDTH 18 0
BBX 15 24 2 0
BITMAP
3C00
7C00
FC00
E000
E000
E000
E000
E3E0
EFF0
FFF8
F87C
F01C
F01E
E00E
E00E
E00E
E00E
E00E
F01E
F01C
F87C
FFF8
EFF0
E3C0
ENDCHAR
STARTCHAR 0254
ENCODING 596
SWIDTH 500 0
DWIDTH 16 0
BBX 15 17 0 -1
BITMAP
0100
1FE0
3FF8
7FFC
703C
F01E
000E
000E
000E
000E
000E
E00E
701E
703C
7FFC
3FF8
1FE0
ENDCHAR
STARTCHAR 0255
ENCODING 597
SWIDTH 500 0
DWIDTH 16 0
BBX 15 17 0 -1
BITMAP
03E0
0FF8
1FFC
3C3E
381E
780E
7000
7000
7000
70F8
71FC
73FE
3F0E
1C0E
3FFE
FFFC
63F0
ENDCHAR
STARTCHAR 0256
ENCODING 598
SWIDTH 593 0
DWIDTH 19 0
BBX 18 31 1 -7
BITMAP
000E00
000E00
000E00
000E00
000E00
000E00
000E00
0F8E00
1FEE00
3FFE00
7C3E00
701E00
F01E00
E00E00
E00E00
E00E00
E00E00
E00E00
F01E00
701E00
7C3E00
3FF600
1FE600
0FC600
000600
000600
000600
000700
0007C0
0003C0
0001C0
ENDCHAR
STARTCHAR 0257
ENCODING 599
SWIDTH 593 0
DWIDTH 19 0
BBX 18 24 1 0
BITMAP
0003C0
0007C0
000FC0
000E00
000E00
000E00
000E00
0F8E00
1FEE00
3FFE00
7C3E00
701E00
F01E00
E00E00
E00E00
E00E00
E00E00
E00E00
F01E00
701E00
7C3E00
3FF600
1FE600
0FC600
ENDCHAR
STARTCHAR 0258
ENCODING 600
SWIDTH 531 0
DWIDTH 17 0
BBX 15 17 1 0
BITMAP
0FC0
1FF0
3FF8
783C
701C
E00E
FFFE
FFFE
FFFE
000E
000E
001E
E01C
783C
7FF8
3FF0
0FC0
ENDCHAR
STARTCHAR 0259
ENCODING 601
SWIDTH 531 0
DWIDTH 17 0
BBX 15 17 1 -1
BITMAP
0100
1FE0
3FF8
7FF8
703C
001C
000E
000E
FFFE
FFFE
FFFE
E00E
600E
701C
7FFC
3FF8
1FE0
ENDCHAR
STARTCHAR 025A
ENCODING 602
SWIDTH 781 0
DWIDTH 25 0
BBX 23 18 1 0
BITMAP
0001C0
0FC3C0
1FF7C0
3FFEE0
783CE0
E01C60
000C70
000E72
000E3E
FFFE3E
FFFE1C
FFFE00
E00E00
601C00
783C00
3FF800
3FF000
0FC000
ENDCHAR
STARTCHAR 025B
ENCODING 603
SWIDTH 500 0
DWIDTH 16 0
BBX 13 17 1 0
BITMAP
0FC0
1FF0
3FF0
7878
7038
7000
7800
3F00
3F00
7F00
F000
E000
E038
F078
7FF0
3FF0
0FC0
ENDCHAR
STARTCHAR 025C
ENCODING 604
SWIDTH 500 0
DWIDTH 16 0
BBX 14 17 1 0
BITMAP
1F80
7FE0
7FF0
F078
E038
0038
0078
03F0
03F0
03F8
003C
001C
E01C
F03C
7FF8
7FF0
1FC0
ENDCHAR
STARTCHAR 025D
ENCODING 605
SWIDTH 750 0
DWIDTH 24 0
BBX 22 18 1 0
BITMAP
000380
1F8780
7FEF80
7FFD80
F079C0
E039C0
0038C0
0078E4
03F07C
03E07C
03F838
003C00
001C00
E01C00
F03C00
7FF800
7FF000
1FC000
ENDCHAR
STARTCHAR 025E
ENCODING 606
SWIDTH 500 0
DWIDTH 16 0
BBX 15 17 1 0
BITMAP
0FC0
3FF0
7FF8
783C
F01C
E01C
E03C
E1F8
E1F8
E1FC
E01E
E00E
700E
781E
7FFC
3FF8
0FE0
ENDCHAR
STARTCHAR 025F
ENCODING 607
SWIDTH 281 0
DWIDTH 9 0
BBX 8 24 0 -7
BITMAP
1C
1C
1C
1C
1C
1C
7F
7F
7F
1C
1C
1C
1C
1C
1C
1C
1C
1C
1C
1C
1C
FC
F8
F0
ENDCHAR
STARTCHAR 0260
ENCODING 608
SWIDTH 593 0
DWIDTH 19 0
BBX 18 28 1 -7
BITMAP
0003C0
0007C0
000FC0
000E00
0F8E00
1FEE00
3FEE00
787E00
701E00
F01E00
E00E00
E00E00
E00E00
E00E00
E00E00
F01E00
701E00
783E00
3FEE00
1FCE00
0F8E00
000E00
001E00
E01C00
F03C00
7FF800
3FF000
0FE000
ENDCHAR
STARTCHAR 0261
ENCODING 609
SWIDTH 562 0
DWIDTH 18 0
BBX 17 24 1 -7
BITMAP
0F8780
1FE700
3FFF00
783E00
701E00
F01E00
E00E00
E00E00
E00E00
E00E00
E00E00
F01E00
701E00
787E00
3FEE00
1FCE00
0F8E00
000E00
001E00
E01C00
F03C00
7FF800
3FF000
0FE000
ENDCHAR
STARTCHAR 0262
ENCODING 610
SWIDTH 562 0
DWIDTH 18 0
BBX 16 17 1 0
BITMAP
07F0
1FFC
3FFE
7C1E
7007
7000
E000
E000
E07F
E07F
E007
E007
700F
781F
3FFF
1FF1
07E1
ENDCHAR
STARTCHAR 0263
ENCODING 611
SWIDTH 468 0
DWIDTH 15 0
BBX 14 24 1 -7
BITMAP
E01C
7018
7038
3030
3870
1870
1CE0
0CE0
0EC0
0FC0
0780
0780
0300
0380
0780
0FC0
0FC0
1CE0
1CE0
1CE0
1CE0
1FE0
0FC0
0780
ENDCHAR
STARTCHAR 0264
ENCODING 612
SWIDTH 562 0
DWIDTH 18 0
BBX 18 18 0 0
BITMAP
0E1C00
3F3F00
7FFF80
71E380
F1C3C0
E1E1C0
03F000
077000
073800
0E3800
0E1C00
0E1C00
0E1C00
0E1C00
0F3C00
07F800
03F800
01E000
ENDCHAR
STARTCHAR 0265
ENCODING 613
SWIDTH 531 0
DWIDTH 17 0
BBX 14 24 1 -8
BITMAP
E01C
E01C
E01C
E01C
E01C
E01C
E01C
E01C
E01C
E01C
E01C
E01C
E03C
F07C
FFFC
7FDC
3F9C
001C
001C
001C
001C
001C
001C
001C
ENDCHAR
STARTCHAR 0266
ENCODING 614
SWIDTH 531 0
DWIDTH 17 0
BBX 14 24 2 0
BITMAP
3C00
7C00
FC00
E000
E000
E000
E000
E3E0
EFF8
EFFC
F83C
F01C
F01C
E01C
E01C
E01C
E01C
E01C
E01C
E01C
E01C
E01C
E01C
E01C
ENDCHAR
STARTCHAR 0267
ENCODING 615
SWIDTH 531 0
DWIDTH 17 0
BBX 14 31 2 -7
BITMAP
3C00
7C00
FC00
E000
E000
E000
E000
E3E0
EFF8
EFFC
F83C
F01C
F01C
E01C
E01C
E01C
E01C
E01C
E01C
E01C
E01C
E01C
E01C
E01C
001C
001C
001C
001C
00FC
00F8
00F0
ENDCHAR
STARTCHAR 0268
ENCODING 616
SWIDTH 281 0
DWIDTH 9 0
BBX 7 24 1 0
BITMAP
38
38
38
00
00
00
00
38
38
38
38
38
38
FE
FE
FE
38
38
38
38
38
38
38
38
ENDCHAR
STARTCHAR 0269
ENCODING 617
SWIDTH 250 0
DWIDTH 8 0
BBX 6 17 2 0
BITMAP
E0
E0
E0
E0
E0
E0
E0
E0
E0
E0
E0
E0
E0
E0
FC
FC
7C
ENDCHAR
STARTCHAR 026A
ENCODING 618
SWIDTH 281 0
DWIDTH 9 0
BBX 7 17 1 0
BITMAP
FE
FE
FE
38
38
38
38
38
38
38
38
38
38
38
FE
FE
FE
ENDCHAR
STARTCHAR 026B
ENCODING 619
SWIDTH 468 0
DWIDTH 15 0
BBX 13 24 1 0
BITMAP
0700
0700
0700
0700
0700
0700
0700
0700
0700
7F00
7F00
FF00
8788
07F8
07F8
0770
0700
0700
0700
0700
0700
0700
0700
0700
ENDCHAR
STARTCHAR 026C
ENCODING 620
SWIDTH 437 0
DWIDTH 14 0
BBX 11 24 1 0
BITMAP
0E00
0E00
0E00
0E00
0E00
0E00
0E00
3E00
7E00
FE00
EE00
EE00
FFE0
7FE0
3FE0
0E00
0E00
0E00
0E00
0E00
0E00
0E00
0E00
0E00
ENDCHAR
STARTCHAR 026D
ENCODING 621
SWIDTH 250 0
DWIDTH 8 0
BBX 6 31 2 -7
BITMAP
E0
E0
E0
E0
E0
E0
E0
E0
E0
E0
E0
E0
E0
E0
E0
E0
E0
E0
E0
E0
E0
E0
E0
E0
E0
E0
E0
E0
FC
7C
3C
ENDCHAR
STARTCHAR 026E
ENCODING 622
SWIDTH 593 0
DWIDTH 19 0
BBX 17 29 2 -5
BITMAP
E00000
E00000
E00000
E00000
E00000
E00000
E00000
FFFE00
FFFE00
FFFE00
E00E00
E01C00
E03800
E07000
E0F000
E0E000
E0FC00
E0FF00
E00700
E00380
E00380
E00380
E00380
E00380
0C0700
1E0F00
1FFE00
0FFC00
03F000
ENDCHAR
STARTCHAR 026F
ENCODING 623
SWIDTH 812 0
DWIDTH 26 0
BBX 22 17 2 -1
BITMAP
E0701C
E0701C
E0701C
E0701C
E0701C
E0701C
E0701C
E0701C
E0701C
E0701C
E0701C
E0701C
E0F03C
F0F87C
FFBFFC
7F3FDC
3E1F9C
ENDCHAR
STARTCHAR 0270
ENCODING 624
SWIDTH 812 0
DWIDTH 26 0
BBX 22 22 2 -5
BITMAP
E0381C
E0381C
E0381C
E0381C
E0381C
E0381C
E0381C
E0381C
E0381C
E0381C
E0381C
E0381C
E0783C
F0FC7C
FFDFDC
7F9FDC
3F079C
00001C
00001C
00001C
00001C
00001C
ENDCHAR
STARTCHAR 0271
ENCODING 625
SWIDTH 812 0
DWIDTH 26 0
BBX 22 24 2 -7
BITMAP
E3C1F0
EFF3F8
EFF7FC
F87E3C
F03C1C
E0381C
E0381C
E0381C
E0381C
E0381C
E0381C
E0381C
E0381C
E0381C
E0381C
E0381C
E0381C
00001C
00001C
00001C
00001C
00007C
000078
000070
ENDCHAR
STARTCHAR 0272
ENCODING 626
SWIDTH 562 0
DWIDTH 18 0
BBX 17 24 0 -7
BITMAP
1C7C00
1CFF00
1DFF00
1F0780
1E0380
1E0380
1C0380
1C0380
1C0380
1C0380
1C0380
1C0380
1C0380
1C0380
1C0380
1C0380
1C0380
1C0000
1C0000
1C0000
1C0000
FC0000
F80000
F00000
ENDCHAR
STARTCHAR 0273
ENCODING 627
SWIDTH 562 0
DWIDTH 18 0
BBX 17 24 2 -7
BITMAP
E3E000
E7F800
EFF800
F83C00
F01C00
F01C00
E01C00
E01C00
E01C00
E01C00
E01C00
E01C00
E01C00
E01C00
E01C00
E01C00
E01C00
001C00
001C00
001C00
001C00
001F80
000F80
000780
ENDCHAR
STARTCHAR 0274
ENCODING 628
SWIDTH 531 0
DWIDTH 17 0
BBX 14 17 2 0
BITMAP
F01C
F81C
F81C
FC1C
FC1C
EE1C
E61C
E71C
E31C
E39C
E19C
E1DC
E0FC
E0FC
E07C
E07C
E03C
ENDCHAR
STARTCHAR 0275
ENCODING 629
SWIDTH 531 0
DWIDTH 17 0
BBX 15 17 1 0
BITMAP
07C0
1FF0
3FF8
783C
701C
F01C
E00E
E00E
FFFE
FFFE
FFFE
E00E
701E
783C
3FF8
1FF0
0FE0
ENDCHAR
STARTCHAR 0276
ENCODING 630
SWIDTH 750 0
DWIDTH 24 0
BBX 22 17 1 0
BITMAP
07EFFC
1FFFFC
3FFFFC
783E00
700E00
E00E00
E00FF8
E00FF8
E00FF8
E00E00
E00E00
F00E00
701E00
783E00
3FFFFC
1FFFFC
07EFFC
ENDCHAR
STARTCHAR 0277
ENCODING 631
SWIDTH 718 0
DWIDTH 23 0
BBX 22 18 1 0
BITMAP
01FE00
0FFFC0
1FFFE0
3E01F0
780078
700038
F0703C
E0701C
E0701C
E0701C
E0701C
E0701C
E0701C
707038
78D878
7FDFF0
3F8FF0
0F07C0
ENDCHAR
STARTCHAR 0278
ENCODING 632
SWIDTH 687 0
DWIDTH 22 0
BBX 21 27 1 -5
BITMAP
007000
007000
007000
007000
007000
07FE00
1FFF80
3FFFC0
7C71E0
7070F0
F07070
E07078
E07038
E07038
E07038
E07078
F07070
7070F0
7C71F0
3FFFE0
1FFFC0
03FF00
007000
007000
007000
007000
007000
ENDCHAR
STARTCHAR 0279
ENCODING 633
SWIDTH 343 0
DWIDTH 11 0
BBX 9 17 0 -1
BITMAP
0380
0380
0380
0380
0380
0380
0380
0380
0380
0380
0780
0780
0780
0F80
FB80
F380
E380
ENDCHAR
STARTCHAR 027A
ENCODING 634
SWIDTH 343 0
DWIDTH 11 0
BBX 8 24 1 -1
BITMAP
07
07
07
07
07
07
07
07
07
07
07
07
07
07
07
07
07
07
0F
0F
3F
F7
F7
E7
ENDCHAR
STARTCHAR 027B
ENCODING 635
SWIDTH 375 0
DWIDTH 12 0
BBX 11 24 1 -7
BITMAP
0700
0700
0700
0700
0700
0700
0700
0700
0700
0700
0700
0700
0F00
3F00
F700
F700
E700
0700
0700
0700
0700
07E0
03E0
01E0
ENDCHAR
STARTCHAR 027C
ENCODING 636
SWIDTH 343 0
DWIDTH 11 0
BBX 8 24 2 -7
BITMAP
E7
EF
FF
FC
F0
F0
E0
E0
E0
E0
E0
E0
E0
E0
E0
E0
E0
E0
E0
E0
E0
E0
E0
E0
ENDCHAR
STARTCHAR 027D
ENCODING 637
SWIDTH 343 0
DWIDTH 11 0
BBX 8 24 2 -7
BITMAP
E3
EF
EF
FC
F0
E0
E0
E0
E0
E0
E0
E0
E0
E0
E0
E0
E0
E0
E0
E0
E0
FC
7C
3C
ENDCHAR
STARTCHAR 027E
ENCODING 638
SWIDTH 375 0
DWIDTH 12 0
BBX 9 17 2 0
BITMAP
3E00
7F80
FF80
E380
E000
E000
E000
E000
E000
E000
E000
E000
E000
E000
E000
E000
E000
ENDCHAR
STARTCHAR 027F
ENCODING 639
SWIDTH 375 0
DWIDTH 12 0
BBX 9 23 1 -6
BITMAP
3E00
FF00
FF80
E380
0380
0380
0380
0380
0380
0380
0380
0380
0380
0380
0380
0380
0380
0380
0380
0380
0380
0380
0380
ENDCHAR
STARTCHAR 0280
ENCODING 640
SWIDTH 531 0
DWIDTH 17 0
BBX 14 17 2 0
BITMAP
FFC0
FFF0
FFF0
E078
E038
E038
E078
FFF0
FFF0
FFC0
E380
E3C0
E1E0
E0F0
E070
E038
E01C
ENDCHAR
STARTCHAR 0281
ENCODING 641
SWIDTH 531 0
DWIDTH 17 0
BBX 15 17 2 -1
BITMAP
E01E
E03C
E078
E070
E0E0
E1C0
E380
FF80
FFE0
FFF0
E0F8
E038
E038
E078
FFF8
FFF0
FFE0
ENDCHAR
STARTCHAR 0282
ENCODING 642
SWIDTH 500 0
DWIDTH 16 0
BBX 14 24 1 -7
BITMAP
0FC0
3FE0
7FF0
F078
E038
E000
F800
7F80
3FF0
07F8
007C
E01C
E01C
F03C
FFF8
FFF0
EFC0
E000
E000
E000
E000
F800
7800
3800
ENDCHAR
STARTCHAR 0283
ENCODING 643
SWIDTH 312 0
DWIDTH 10 0
BBX 9 31 0 -7
BITMAP
0780
0F80
1F80
1C00
1C00
1C00
1C00
1C00
1C00
1C00
1C00
1C00
1C00
1C00
1C00
1C00
1C00
1C00
1C00
1C00
1C00
1C00
1C00
1C00
1C00
1C00
1C00
1C00
FC00
F800
F000
ENDCHAR
STARTCHAR 0284
ENCODING 644
SWIDTH 312 0
DWIDTH 10 0
BBX 8 31 0 -7
BITMAP
07
0F
1F
1C
1C
1C
1C
1C
1C
1C
1C
1C
1C
3F
3F
3F
1C
1C
1C
1C
1C
1C
1C
1C
1C
1C
1C
1C
FC
F8
F0
ENDCHAR
STARTCHAR 0285
ENCODING 645
SWIDTH 312 0
DWIDTH 10 0
BBX 9 24 1 -7
BITMAP
F000
F800
FC00
1C00
1C00
1C00
1C00
1C00
1C00
1C00
1C00
1C00
1C00
1C00
1C00
1C00
1C00
1C00
1C00
1C00
1C00
1F80
0F80
0780
ENDCHAR
STARTCHAR 0286
ENCODING 646
SWIDTH 468 0
DWIDTH 15 0
BBX 15 31 0 -7
BITMAP
003C
007C
00FC
00E0
00E0
00E0
00E0
00E0
00E0
00E0
00E0
00E0
00E0
00E0
00E0
00E0
00E0
00E0
00E0
00E0
00E0
00E0
00E0
3FE0
7FE0
FFF8
E0FE
E0E4
FFE0
7FC0
1F80
ENDCHAR
STARTCHAR 0287
ENCODING 647
SWIDTH 281 0
DWIDTH 9 0
BBX 6 20 1 2
BITMAP
F0
F8
F8
38
38
38
38
38
38
38
38
38
38
38
FC
FC
FC
38
38
38
ENDCHAR
STARTCHAR 0288
ENCODING 648
SWIDTH 281 0
DWIDTH 9 0
BBX 6 27 2 -7
BITMAP
70
70
70
FC
FC
FC
70
70
70
70
70
70
70
70
70
70
70
70
70
70
70
70
70
70
7C
7C
3C
ENDCHAR
STARTCHAR 0289
ENCODING 649
SWIDTH 593 0
DWIDTH 19 0
BBX 15 17 2 0
BITMAP
701C
701C
701C
701C
701C
701C
FFFE
FFFE
FFFE
701C
701C
701C
703C
787C
7FDC
3FDC
0F1C
ENDCHAR
STARTCHAR 028A
ENCODING 650
SWIDTH 593 0
DWIDTH 19 0
BBX 18 18 1 0
BITMAP
FE1FC0
FE1FC0
FE1FC0
1C1E00
380700
700380
700380
E001C0
E001C0
E001C0
E001C0
F003C0
700380
780780
3C0F00
1FFE00
0FFC00
03F000
ENDCHAR
STARTCHAR 028B
ENCODING 651
SWIDTH 531 0
DWIDTH 17 0
BBX 14 17 2 0
BITMAP
E000
E000
E0E0
E070
E038
E038
E01C
E01C
E01C
E01C
E03C
E038
E078
E0F0
FFE0
FFC0
7F00
ENDCHAR
STARTCHAR 028C
ENCODING 652
SWIDTH 500 0
DWIDTH 16 0
BBX 14 17 1 -1
BITMAP
0380
0780
0780
0FC0
0FC0
0CC0
1CE0
1CE0
1870
3870
3870
7038
7038
7038
E01C
E01C
E01C
ENDCHAR
STARTCHAR 028D
ENCODING 653
SWIDTH 718 0
DWIDTH 23 0
BBX 23 17 0 -1
BITMAP
0701C0
0781C0
0783E0
0F83E0
0D8360
0DC360
1DC770
1CC770
18C630
38E638
38EE38
386E38
306C1C
707C1C
707C1C
703C1C
E0380E
ENDCHAR
STARTCHAR 028E
ENCODING 654
SWIDTH 468 0
DWIDTH 15 0
BBX 14 24 1 -1
BITMAP
0070
00F8
01F8
01C0
0380
0380
0380
0700
0780
0780
0F80
0FC0
0DC0
1CC0
1CE0
38E0
3860
3870
7070
7030
6038
E038
E018
C01C
ENDCHAR
STARTCHAR 028F
ENCODING 655
SWIDTH 500 0
DWIDTH 16 0
BBX 15 17 1 0
BITMAP
E00E
F01C
701C
3838
3838
1C70
0EE0
0EE0
07C0
07C0
0380
0380
0380
0380
0380
0380
0380
ENDCHAR
STARTCHAR 0290
ENCODING 656
SWIDTH 562 0
DWIDTH 18 0
BBX 16 24 2 -7
BITMAP
7FF8
7FF8
7FF8
0070
00E0
01C0
0380
0300
0700
0E00
1C00
3800
7000
E000
FFF8
FFF8
FFF8
0038
0038
0038
0038
003F
001F
000F
ENDCHAR
STARTCHAR 0291
ENCODING 657
SWIDTH 500 0
DWIDTH 16 0
BBX 14 19 1 -2
BITMAP
7FF8
7FF8
7FF8
0078
0070
00E0
01C0
0380
0700
0E00
1C70
3DF8
79FC
718C
FFFC
FFFC
FFF0
0180
0180
ENDCHAR
STARTCHAR 0292
ENCODING 658
SWIDTH 531 0
DWIDTH 17 0
BBX 15 22 1 -5
BITMAP
7FFC
7FFC
7FFC
0038
0070
00F0
01E0
01C0
0380
03F0
03FC
001C
000E
000E
000E
E00E
E00E
F01E
783C
7FF8
3FF0
0FE0
ENDCHAR
STARTCHAR 0293
ENCODING 659
SWIDTH 531 0
DWIDTH 17 0
BBX 15 21 1 -4
BITMAP
FFF8
FFF8
FFF8
0070
00E0
01C0
03C0
0380
0780
07E0
07F8
0038
001C
001C
1F9C
3FFC
7FFC
703E
7FF0
3FE0
1F80
ENDCHAR
STARTCHAR 0294
ENCODING 660
SWIDTH 500 0
DWIDTH 16 0
BBX 14 23 1 0
BITMAP
0FC0
3FF0
7FF8
7878
F03C
E01C
E01C
001C
001C
0038
03F8
03F0
0380
0380
0380
0380
0380
0380
0380
0380
0380
0380
0380
ENDCHAR
STARTCHAR 0295
ENCODING 661
SWIDTH 500 0
DWIDTH 16 0
BBX 14 23 1 0
BITMAP
0FC0
3FF0
7FF8
7878
F03C
E01C
E01C
E000
E000
7000
7F80
3F80
0380
0380
0380
0380
0380
0380
0380
0380
0380
0380
0380
ENDCHAR
STARTCHAR 0296
ENCODING 662
SWIDTH 500 0
DWIDTH 16 0
BBX 14 23 1 -1
BITMAP
0700
0700
0700
0700
0700
0700
0700
0700
0700
0700
0700
3F00
7F00
7800
E000
E000
E01C
E01C
E03C
F038
7FF8
3FF0
1FC0
ENDCHAR
STARTCHAR 0297
ENCODING 663
SWIDTH 687 0
DWIDTH 22 0
BBX 20 31 1 -7
BITMAP
01FE00
07FF80
0FFFC0
1F03E0
3C00E0
3800F0
700070
700000
F00000
E00000
E00000
E00000
E00000
E00000
E00000
E00000
E00000
E00000
E00000
E00000
E00000
E00000
F00070
700070
7000F0
7800E0
3C01E0
1F03C0
0FFF80
07FF00
01FC00
ENDCHAR
STARTCHAR 0298
ENCODING 664
SWIDTH 781 0
DWIDTH 25 0
BBX 23 24 1 0
BITMAP
00FE00
03FF80
0FFFE0
1F01F0
3C0078
380038
78003C
70001C
F0001E
E0000E
E0000E
E0380E
E0380E
E0380E
E0000E
F0001E
70001C
70003C
380038
3C0078
1F01F0
0FFFE0
07FFC0
00FE00
ENDCHAR
STARTCHAR 0299
ENCODING 665
SWIDTH 500 0
DWIDTH 16 0
BBX 13 17 2 0
BITMAP
FF80
FFE0
FFE0
E0F0
E070
E070
E0E0
FFE0
FFC0
FFF0
E070
E038
E038
E078
E0F0
FFE0
FFC0
ENDCHAR
STARTCHAR 029A
ENCODING 666
SWIDTH 500 0
DWIDTH 16 0
BBX 14 17 1 0
BITMAP
0FE0
1FF0
3FF8
7878
703C
701C
781C
3F1C
3F1C
7F1C
F01C
E01C
E03C
F078
7FF8
3FF0
0FC0
ENDCHAR
STARTCHAR 029B
ENCODING 667
SWIDTH 625 0
DWIDTH 20 0
BBX 19 17 1 1
BITMAP
07E1E0
1FFBE0
3FFFE0
7C1F00
700700
700000
E00000
E00000
E07F00
E07F00
E00700
E00700
700F00
781F00
3FFF00
1FF100
07E100
ENDCHAR
STARTCHAR 029C
ENCODING 668
SWIDTH 531 0
DWIDTH 17 0
BBX 14 17 2 0
BITMAP
E01C
E01C
E01C
E01C
E01C
E01C
FFFC
FFFC
FFFC
E01C
E01C
E01C
E01C
E01C
E01C
E01C
E01C
ENDCHAR
STARTCHAR 029D
ENCODING 669
SWIDTH 468 0
DWIDTH 15 0
BBX 15 31 0 -7
BITMAP
00E0
00E0
00E0
0000
0000
0000
0000
00E0
00E0
00E0
00E0
00E0
00E0
00E0
00E0
00E0
00E0
00E0
00E0
00E0
00E0
00E0
00E0
3FE0
7FE0
FFF8
E0FE
E0E4
FFE0
7FC0
1F80
ENDCHAR
STARTCHAR 029E
ENCODING 670
SWIDTH 500 0
DWIDTH 16 0
BBX 14 24 0 -8
BITMAP
E01C
701C
781C
381C
1C1C
1E1C
0E1C
0F1C
073C
03FC
03FC
03DC
079C
0F1C
1E1C
3C1C
381C
001C
001C
001C
001C
001C
001C
001C
ENDCHAR
STARTCHAR 029F
ENCODING 671
SWIDTH 375 0
DWIDTH 12 0
BBX 9 17 2 0
BITMAP
E000
E000
E000
E000
E000
E000
E000
E000
E000
E000
E000
E000
E000
E000
FF80
FF80
FF80
ENDCHAR
STARTCHAR 02A0
ENCODING 672
SWIDTH 593 0
DWIDTH 19 0
BBX 18 26 1 -5
BITMAP
0003C0
0007C0
000FC0
000E00
078E00
1FEE00
3FFE00
7C3E00
701E00
F01E00
E00E00
E00E00
E00E00
E00E00
E00E00
F01E00
701E00
7C3E00
3FFE00
1FEE00
0F8E00
000E00
000E00
000E00
000E00
000E00
ENDCHAR
STARTCHAR 02A1
ENCODING 673
SWIDTH 500 0
DWIDTH 16 0
BBX 14 23 1 0
BITMAP
0FC0
3FF0
7FF8
7838
F03C
E01C
E01C
001C
001C
0038
03F8
03F0
0380
1FF0
1FF0
1FF0
0380
0380
0380
0380
0380
0380
0380
ENDCHAR
STARTCHAR 02A2
ENCODING 674
SWIDTH 500 0
DWIDTH 16 0
BBX 14 23 1 0
BITMAP
0FC0
3FF0
7FF8
7878
F03C
E01C
E01C
E000
E000
7000
7F80
1F80
0380
1FF0
1FF0
1FF0
0380
0380
0380
0380
0380
0380
0380
ENDCHAR
STARTCHAR 02A3
ENCODING 675
SWIDTH 906 0
DWIDTH 29 0
BBX 27 24 1 0
BITMAP
000E0000
000E0000
000E0000
000E0000
000E0000
000E0000
000E0000
0F8FFFE0
1FEFFFE0
3FFFFFE0
7C3E00E0
701E01C0
F01E0380
E00E0700
E00E0E00
E00E1C00
E00E3800
E00E7000
F01EE000
701EC000
783FC000
3FFFFFE0
1FEFFFE0
0FCFFFE0
ENDCHAR
STARTCHAR 02A4
ENCODING 676
SWIDTH 968 0
DWIDTH 31 0
BBX 29 29 1 -5
BITMAP
000E0000
000E0000
000E0000
000E0000
000E0000
000E0000
000E0000
0F8FFFE0
1FEFFFE0
3FFFFFE0
7C3E00E0
701E01C0
F01E0380
E00E0700
E00E0E00
E00E0FC0
E00E0FE0
E00E00F0
F01E0038
701E0038
7C3E0038
3FF60038
1FE60038
0FC60078
0001C070
0001E1F0
0000FFE0
00007FC0
00003F00
ENDCHAR
STARTCHAR 02A5
ENCODING 677
SWIDTH 937 0
DWIDTH 30 0
BBX 28 25 1 -1
BITMAP
000E0000
000E0000
000E0000
000E0000
000E0000
000E0000
000E0000
0F8FFFE0
1FEFFFE0
3FFFFFE0
783E01E0
F01E01C0
E00E0380
E00E0700
E00E0E00
E00E1C00
E00E39C0
E00E7BE0
F01EF7F0
701EE630
7C3FC630
3FFFFFF0
1FEFFFE0
07CFFFC0
00000600
ENDCHAR
STARTCHAR 02A6
ENCODING 678
SWIDTH 718 0
DWIDTH 23 0
BBX 20 20 2 0
BITMAP
700000
700000
700000
FC3F00
FCFFC0
FDFFC0
73C1E0
7380E0
738000
73E000
71FE00
70FFC0
701FE0
7001F0
700070
700070
7000F0
7FFFE0
7FFFC0
3FFF00
ENDCHAR
STARTCHAR 02A7
ENCODING 679
SWIDTH 531 0
DWIDTH 17 0
BBX 15 31 2 -7
BITMAP
001E
003E
007E
0070
7070
7070
7070
FFF0
FFF0
FFF0
7070
7070
7070
7070
7070
7070
7070
7070
7070
7070
7070
7FF0
7FF0
3FF0
0070
0070
0070
0070
03F0
03E0
03C0
ENDCHAR
STARTCHAR 02A8
ENCODING 680
SWIDTH 781 0
DWIDTH 25 0
BBX 22 22 2 -2
BITMAP
700000
700000
700000
FC0FC0
FC3FE0
FC7FF0
70F870
70E038
71E038
71C000
71C000
71C000
71C000
71C0F0
71E1F8
70E1FC
70798C
7FFFFC
7F9FF8
3C07F0
000180
000180
ENDCHAR
STARTCHAR 02A9
ENCODING 681
SWIDTH 812 0
DWIDTH 26 0
BBX 22 30 2 -6
BITMAP
1C0000
3C0000
7C0000
700000
700000
700000
700000
FFE3E0
FFEFF8
FFFFF8
70F83C
70F01C
70F01C
70E01C
70E01C
70E01C
70E01C
70E01C
70E01C
70E01C
70E01C
70E01C
70E01C
70E01C
00001C
00001C
00001C
0000FC
0000F8
0000F0
ENDCHAR
STARTCHAR 02AA
ENCODING 682
SWIDTH 656 0
DWIDTH 21 0
BBX 18 24 2 0
BITMAP
E00000
E00000
E00000
E00000
E00000
E00000
E00000
E0FC00
E1FF00
E3FF00
E78780
E70380
E70000
E7C000
E3FC00
E1FF00
E07F80
E007C0
E001C0
F801C0
FE03C0
FFFF80
E7FF00
E0FC00
ENDCHAR
STARTCHAR 02AB
ENCODING 683
SWIDTH 562 0
DWIDTH 18 0
BBX 15 24 2 0
BITMAP
E000
E000
E000
E000
E000
E000
E000
FFFE
FFFE
FFFE
E00E
E01C
E038
E070
E0E0
E1C0
E380
E700
E600
EC00
FC00
FFFE
FFFE
FFFE
ENDCHAR
STARTCHAR 02AC
ENCODING 684
SWIDTH 531 0
DWIDTH 17 0
BBX 15 23 1 1
BITMAP
C386
438C
638C
628C
66CC
36D8
34D8
3458
1C70
1C70
1870
0000
C386
438C
638C
628C
66CC
36D8
34D8
3458
1C70
1C70
1870
ENDCHAR
STARTCHAR 02AD
ENCODING 685
SWIDTH 500 0
DWIDTH 16 0
BBX 13 15 1 5
BITMAP
FFF8
FFF8
FFF8
C018
0000
0000
0000
0000
0000
0000
0000
FFF8
FFF8
FFF8
C018
ENDCHAR
STARTCHAR 02AE
ENCODING 686
SWIDTH 562 0
DWIDTH 18 0
BBX 17 29 0 -5
BITMAP
F00000
F80000
FC0000
1C0000
1C0000
1C0000
1C0000
1C0380
1C0380
1C0380
1C0380
1C0380
1C0380
1C0380
1C0380
1C0380
1C0380
1C0380
1C0380
1C0780
1C0780
1E1F80
0FFB80
0FF380
03E380
000380
000380
000380
000380
ENDCHAR
STARTCHAR 02AF
ENCODING 687
SWIDTH 625 0
DWIDTH 20 0
BBX 20 31 0 -7
BITMAP
F00000
F80000
FC0000
1C0000
1C0000
1C0000
1C0000
1C0000
1C0380
1C0380
1C0380
1C0380
1C0380
1C0380
1C0380
1C0380
1C0380
1C0380
1C0380
1C0780
1C0780
1E0F80
0FFB80
0FFB80
03E380
000380
000380
000380
0003F0
0001F0
0000F0
ENDCHAR
STARTCHAR 02B0
ENCODING 688
SWIDTH 343 0
DWIDTH 11 0
BBX 9 16 1 12
BITMAP
C000
C000
C000
C000
C000
CF00
DF80
E180
E180
C180
C180
C180
C180
C180
C180
C180
ENDCHAR
STARTCHAR 02B1
ENCODING 689
SWIDTH 343 0
DWIDTH 11 0
BBX 9 16 1 12
BITMAP
3000
7000
E000
C000
C000
CF00
DF80
E180
E180
C180
C180
C180
C180
C180
C180
C180
ENDCHAR
STARTCHAR 02B2
ENCODING 690
SWIDTH 156 0
DWIDTH 5 0
BBX 4 21 1 8
BITMAP
30
30
00
00
00
30
30
30
30
30
30
30
30
30
30
30
30
30
70
F0
80
ENDCHAR
STARTCHAR 02B3
ENCODING 691
SWIDTH 250 0
DWIDTH 8 0
BBX 6 11 1 13
BITMAP
CC
DC
E0
E0
C0
C0
C0
C0
C0
C0
C0
ENDCHAR
STARTCHAR 02B4
ENCODING 692
SWIDTH 250 0
DWIDTH 8 0
BBX 6 11 1 11
BITMAP
0C
0C
0C
0C
0C
0C
0C
1C
1C
EC
CC
ENDCHAR
STARTCHAR 02B5
ENCODING 693
SWIDTH 281 0
DWIDTH 9 0
BBX 7 16 0 8
BITMAP
08
08
08
08
08
08
08
08
08
18
F8
E8
08
08
0E
06
ENDCHAR
STARTCHAR 02B6
ENCODING 694
SWIDTH 343 0
DWIDTH 11 0
BBX 9 11 1 13
BITMAP
C180
C300
C600
CC00
FE00
FF00
C180
C180
C380
FF00
FC00
ENDCHAR
STARTCHAR 02B7
ENCODING 695
SWIDTH 500 0
DWIDTH 16 0
BBX 15 11 1 14
BITMAP
C386
438C
638C
628C
66CC
36D8
34D8
3458
1C70
1C70
1870
ENDCHAR
STARTCHAR 02B8
ENCODING 696
SWIDTH 343 0
DWIDTH 11 0
BBX 10 15 0 8
BITMAP
C0C0
6180
6180
6180
3300
3300
3200
1E00
1E00
1C00
0C00
0C00
1800
3800
7000
ENDCHAR
STARTCHAR 02B9
ENCODING 697
SWIDTH 281 0
DWIDTH 9 0
BBX 5 9 2 14
BITMAP
30
38
38
70
70
60
E0
C0
80
ENDCHAR
STARTCHAR 02BA
ENCODING 698
SWIDTH 468 0
DWIDTH 15 0
BBX 12 9 2 14
BITMAP
3060
3870
3870
70E0
70E0
60C0
E1C0
C180
8100
ENDCHAR
STARTCHAR 02BB
ENCODING 699
SWIDTH 250 0
DWIDTH 8 0
BBX 3 8 3 16
BITMAP
60
C0
80
80
80
E0
E0
E0
ENDCHAR
STARTCHAR 02BC
ENCODING 700
SWIDTH 250 0
DWIDTH 8 0
BBX 3 8 3 15
BITMAP
E0
E0
E0
20
20
20
60
C0
ENDCHAR
STARTCHAR 02BD
ENCODING 701
SWIDTH 250 0
DWIDTH 8 0
BBX 3 8 3 15
BITMAP
E0
E0
E0
80
80
80
C0
60
ENDCHAR
STARTCHAR 02BE
ENCODING 702
SWIDTH 250 0
DWIDTH 8 0
BBX 2 5 3 19
BITMAP
80
40
40
40
80
ENDCHAR
STARTCHAR 02BF
ENCODING 703
SWIDTH 250 0
DWIDTH 8 0
BBX 2 5 3 19
BITMAP
40
80
80
80
40
ENDCHAR
STARTCHAR 02C0
ENCODING 704
SWIDTH 343 0
DWIDTH 11 0
BBX 9 12 1 12
BITMAP
3E00
7F00
E380
C180
0180
0180
0700
1E00
1800
1800
1800
1800
ENDCHAR
STARTCHAR 02C1
ENCODING 705
SWIDTH 343 0
DWIDTH 11 0
BBX 9 12 1 12
BITMAP
3E00
7F00
E380
C180
C000
C000
7000
3C00
0C00
0C00
0C00
0C00
ENDCHAR
STARTCHAR 02C2
ENCODING 706
SWIDTH 343 0
DWIDTH 11 0
BBX 9 7 1 17
BITMAP
0180
0E00
7000
8000
7000
0E00
0180
ENDCHAR
STARTCHAR 02C3
ENCODING 707
SWIDTH 343 0
DWIDTH 11 0
BBX 9 7 1 17
BITMAP
C000
3800
0700
0080
0700
3800
C000
ENDCHAR
STARTCHAR 02C4
ENCODING 708
SWIDTH 343 0
DWIDTH 11 0
BBX 7 6 2 18
BITMAP
10
28
28
44
44
82
ENDCHAR
STARTCHAR 02C5
ENCODING 709
SWIDTH 343 0
DWIDTH 11 0
BBX 7 6 2 18
BITMAP
82
44
44
28
28
10
ENDCHAR
STARTCHAR 02C6
ENCODING 710
SWIDTH 343 0
DWIDTH 11 0
BBX 9 5 1 19
BITMAP
1C00
3E00
7600
6300
C180
ENDCHAR
STARTCHAR 02C7
ENCODING 711
SWIDTH 343 0
DWIDTH 11 0
BBX 9 5 1 19
BITMAP
C180
6300
3700
3E00
1C00
ENDCHAR
STARTCHAR 02C8
ENCODING 712
SWIDTH 250 0
DWIDTH 8 0
BBX 2 6 2 19
BITMAP
C0
C0
C0
C0
C0
C0
ENDCHAR
STARTCHAR 02C9
ENCODING 713
SWIDTH 343 0
DWIDTH 11 0
BBX 9 3 1 20
BITMAP
FF80
FF80
FF80
ENDCHAR
STARTCHAR 02CA
ENCODING 714
SWIDTH 343 0
DWIDTH 11 0
BBX 6 5 3 20
BITMAP
3C
38
70
60
C0
ENDCHAR
STARTCHAR 02CB
ENCODING 715
SWIDTH 343 0
DWIDTH 11 0
BBX 6 5 1 19
BITMAP
F0
70
38
18
0C
ENDCHAR
STARTCHAR 02CC
ENCODING 716
SWIDTH 250 0
DWIDTH 8 0
BBX 2 6 3 -8
BITMAP
C0
C0
C0
C0
C0
C0
ENDCHAR
STARTCHAR 02CD
ENCODING 717
SWIDTH 343 0
DWIDTH 11 0
BBX 9 3 1 -5
BITMAP
FF80
FF80
FF80
ENDCHAR
STARTCHAR 02CE
ENCODING 718
SWIDTH 343 0
DWIDTH 11 0
BBX 5 5 3 -7
BITMAP
E0
70
30
18
18
ENDCHAR
STARTCHAR 02CF
ENCODING 719
SWIDTH 343 0
DWIDTH 11 0
BBX 6 5 1 -5
BITMAP
3C
38
70
60
C0
ENDCHAR
STARTCHAR 02D0
ENCODING 720
SWIDTH 343 0
DWIDTH 11 0
BBX 5 19 3 -1
BITMAP
F0
60
60
00
00
00
00
00
00
00
00
00
00
00
00
00
30
30
78
ENDCHAR
STARTCHAR 02D1
ENCODING 721
SWIDTH 343 0
DWIDTH 11 0
BBX 4 3 3 14
BITMAP
F0
60
60
ENDCHAR
STARTCHAR 02D2
ENCODING 722
SWIDTH 250 0
DWIDTH 8 0
BBX 2 5 3 0
BITMAP
80
40
40
40
80
ENDCHAR
STARTCHAR 02D3
ENCODING 723
SWIDTH 250 0
DWIDTH 8 0
BBX 2 5 3 1
BITMAP
40
80
80
80
40
ENDCHAR
STARTCHAR 02D4
ENCODING 724
SWIDTH 343 0
DWIDTH 11 0
BBX 10 8 0 5
BITMAP
0C00
0C00
0C00
0C00
0C00
FFC0
FFC0
FFC0
ENDCHAR
STARTCHAR 02D5
ENCODING 725
SWIDTH 343 0
DWIDTH 11 0
BBX 10 8 1 5
BITMAP
FFC0
FFC0
FFC0
0C00
0C00
0C00
0C00
0C00
ENDCHAR
STARTCHAR 02D6
ENCODING 726
SWIDTH 343 0
DWIDTH 11 0
BBX 10 9 0 4
BITMAP
0C00
0C00
0C00
FFC0
FFC0
FFC0
0C00
0C00
0C00
ENDCHAR
STARTCHAR 02D7
ENCODING 727
SWIDTH 343 0
DWIDTH 11 0
BBX 10 3 0 7
BITMAP
FFC0
FFC0
FFC0
ENDCHAR
STARTCHAR 02D8
ENCODING 728
SWIDTH 343 0
DWIDTH 11 0
BBX 10 5 0 19
BITMAP
C0C0
E1C0
7F80
7F80
3E00
ENDCHAR
STARTCHAR 02D9
ENCODING 729
SWIDTH 343 0
DWIDTH 11 0
BBX 3 3 4 20
BITMAP
E0
E0
E0
ENDCHAR
STARTCHAR 02DA
ENCODING 730
SWIDTH 343 0
DWIDTH 11 0
BBX 7 7 2 18
BITMAP
38
7C
C6
C6
C6
7C
38
ENDCHAR
STARTCHAR 02DB
ENCODING 731
SWIDTH 343 0
DWIDTH 11 0
BBX 6 7 2 -7
BITMAP
30
60
C0
C0
C0
E0
7C
ENDCHAR
STARTCHAR 02DC
ENCODING 732
SWIDTH 343 0
DWIDTH 11 0
BBX 10 5 0 20
BITMAP
30C0
7CC0
FFC0
CF80
C300
ENDCHAR
STARTCHAR 02DD
ENCODING 733
SWIDTH 343 0
DWIDTH 11 0
BBX 10 5 0 19
BITMAP
79C0
7380
7380
E700
C600
ENDCHAR
STARTCHAR 02DE
ENCODING 734
SWIDTH 343 0
DWIDTH 11 0
BBX 10 10 0 7
BITMAP
3800
7800
F800
DC00
8C00
0E00
0E40
07C0
07C0
0380
ENDCHAR
STARTCHAR 02DF
ENCODING 735
SWIDTH 343 0
DWIDTH 11 0
BBX 10 6 0 19
BITMAP
4080
6380
1E00
1C00
3300
E1C0
ENDCHAR
STARTCHAR 02E0
ENCODING 736
SWIDTH 343 0
DWIDTH 11 0
BBX 9 15 1 8
BITMAP
C180
C300
6300
6600
2600
3400
1C00
1800
1800
1C00
3C00
3600
3600
3E00
3C00
ENDCHAR
STARTCHAR 02E1
ENCODING 737
SWIDTH 187 0
DWIDTH 6 0
BBX 2 16 1 12
BITMAP
C0
C0
C0
C0
C0
C0
C0
C0
C0
C0
C0
C0
C0
C0
C0
C0
ENDCHAR
STARTCHAR 02E2
ENCODING 738
SWIDTH 343 0
DWIDTH 11 0
BBX 9 11 1 14
BITMAP
3E00
7F00
E300
C000
7000
7F00
0F80
0180
E380
7F00
3E00
ENDCHAR
STARTCHAR 02E3
ENCODING 739
SWIDTH 343 0
DWIDTH 11 0
BBX 8 11 1 14
BITMAP
C3
C3
66
3C
38
18
3C
2C
66
C3
C3
ENDCHAR
STARTCHAR 02E4
ENCODING 740
SWIDTH 343 0
DWIDTH 11 0
BBX 9 15 1 12
BITMAP
3E00
7F00
E300
C180
C180
C000
E000
7C00
0C00
0C00
0C00
0C00
0C00
0C00
0C00
ENDCHAR
STARTCHAR 02E5
ENCODING 741
SWIDTH 531 0
DWIDTH 17 0
BBX 13 26 1 0
BITMAP
FFF8
FFF8
FFF8
0018
0018
0018
0018
0018
0018
0018
0018
0018
0018
0018
0018
0018
0018
0018
0018
0018
0018
0018
0018
0018
0018
0018
ENDCHAR
STARTCHAR 02E6
ENCODING 742
SWIDTH 531 0
DWIDTH 17 0
BBX 13 25 1 0
BITMAP
0018
0018
0018
0018
FFF8
FFF8
FFF8
0018
0018
0018
0018
0018
0018
0018
0018
0018
0018
0018
0018
0018
0018
0018
0018
0018
0018
ENDCHAR
STARTCHAR 02E7
ENCODING 743
SWIDTH 531 0
DWIDTH 17 0
BBX 13 25 1 0
BITMAP
0018
0018
0018
0018
0018
0018
0018
0018
0018
0018
FFF8
FFF8
FFF8
0018
0018
0018
0018
0018
0018
0018
0018
0018
0018
0018
0018
ENDCHAR
STARTCHAR 02E8
ENCODING 744
SWIDTH 531 0
DWIDTH 17 0
BBX 13 25 1 0
BITMAP
0018
0018
0018
0018
0018
0018
0018
0018
0018
0018
0018
0018
0018
0018
0018
0018
0018
FFF8
FFF8
FFF8
0018
0018
0018
0018
0018
ENDCHAR
STARTCHAR 02E9
ENCODING 745
SWIDTH 531 0
DWIDTH 17 0
BBX 13 25 1 0
BITMAP
0018
0018
0018
0018
0018
0018
0018
0018
0018
0018
0018
0018
0018
0018
0018
0018
0018
0018
0018
0018
0018
0018
FFF8
FFF8
FFF8
ENDCHAR
STARTCHAR 02EA
ENCODING 746
SWIDTH 531 0
DWIDTH 17 0
BBX 13 19 2 0
BITMAP
C000
C000
C000
C000
C000
C000
C000
C000
C000
C000
C000
C000
C000
C000
C000
C000
FFF8
FFF8
FFF8
ENDCHAR
STARTCHAR 02EB
ENCODING 747
SWIDTH 531 0
DWIDTH 17 0
BBX 13 19 2 0
BITMAP
C000
C000
C000
C000
C000
C000
C000
FFF8
FFF8
FFF8
C000
C000
C000
C000
C000
C000
C000
C000
C000
ENDCHAR
STARTCHAR 02EC
ENCODING 748
SWIDTH 343 0
DWIDTH 11 0
BBX 9 5 1 -6
BITMAP
C180
6300
3700
3E00
1C00
ENDCHAR
STARTCHAR 02ED
ENCODING 749
SWIDTH 343 0
DWIDTH 11 0
BBX 9 7 1 19
BITMAP
FF80
FF80
FF80
0000
FF80
FF80
FF80
ENDCHAR
STARTCHAR 02EE
ENCODING 750
SWIDTH 406 0
DWIDTH 13 0
BBX 8 8 3 16
BITMAP
E7
E7
E7
21
21
21
42
84
ENDCHAR
STARTCHAR 02EF
ENCODING 751
SWIDTH 343 0
DWIDTH 11 0
BBX 7 6 2 -6
BITMAP
82
44
44
28
28
10
ENDCHAR
STARTCHAR 02F0
ENCODING 752
SWIDTH 343 0
DWIDTH 11 0
BBX 7 6 2 -7
BITMAP
10
28
28
44
44
82
ENDCHAR
STARTCHAR 02F1
ENCODING 753
SWIDTH 343 0
DWIDTH 11 0
BBX 9 7 1 -8
BITMAP
0180
0E00
7000
8000
7000
0E00
0180
ENDCHAR
STARTCHAR 02F2
ENCODING 754
SWIDTH 343 0
DWIDTH 11 0
BBX 9 7 1 -7
BITMAP
C000
3800
0700
0080
0700
3800
C000
ENDCHAR
STARTCHAR 02F3
ENCODING 755
SWIDTH 343 0
DWIDTH 11 0
BBX 7 7 2 -8
BITMAP
38
7C
C6
C6
C6
7C
38
ENDCHAR
STARTCHAR 02F4
ENCODING 756
SWIDTH 250 0
DWIDTH 8 0
BBX 6 5 1 12
BITMAP
F0
70
38
18
0C
ENDCHAR
STARTCHAR 02F5
ENCODING 757
SWIDTH 343 0
DWIDTH 11 0
BBX 10 5 0 12
BITMAP
F780
7380
39C0
19C0
1CC0
ENDCHAR
STARTCHAR 02F6
ENCODING 758
SWIDTH 343 0
DWIDTH 11 0
BBX 10 5 0 12
BITMAP
79C0
7380
7380
E700
C600
ENDCHAR
STARTCHAR 02F7
ENCODING 759
SWIDTH 343 0
DWIDTH 11 0
BBX 10 5 0 -5
BITMAP
30C0
7CC0
FFC0
CF80
C300
ENDCHAR
STARTCHAR 02F8
ENCODING 760
SWIDTH 250 0
DWIDTH 8 0
BBX 3 17 3 2
BITMAP
E0
E0
E0
00
00
00
00
00
00
00
00
00
00
00
E0
E0
E0
ENDCHAR
STARTCHAR 02F9
ENCODING 761
SWIDTH 187 0
DWIDTH 6 0
BBX 4 7 1 18
BITMAP
F0
F0
F0
C0
C0
C0
C0
ENDCHAR
STARTCHAR 02FA
ENCODING 762
SWIDTH 187 0
DWIDTH 6 0
BBX 4 7 1 18
BITMAP
F0
F0
F0
30
30
30
30
ENDCHAR
STARTCHAR 02FB
ENCODING 763
SWIDTH 187 0
DWIDTH 6 0
BBX 4 7 1 -3
BITMAP
C0
C0
C0
C0
F0
F0
F0
ENDCHAR
STARTCHAR 02FC
ENCODING 764
SWIDTH 187 0
DWIDTH 6 0
BBX 4 7 1 -3
BITMAP
30
30
30
30
F0
F0
F0
ENDCHAR
STARTCHAR 02FD
ENCODING 765
SWIDTH 343 0
DWIDTH 11 0
BBX 10 6 0 -6
BITMAP
C0C0
C0C0
C0C0
FFC0
FFC0
FFC0
ENDCHAR
STARTCHAR 02FE
ENCODING 766
SWIDTH 343 0
DWIDTH 11 0
BBX 9 5 0 -6
BITMAP
C000
C000
FF80
FF80
FF80
ENDCHAR
STARTCHAR 02FF
ENCODING 767
SWIDTH 343 0
DWIDTH 11 0
BBX 11 6 0 -7
BITMAP
1000
2000
4000
FFE0
4000
2000
ENDCHAR
STARTCHAR 0300
ENCODING 768
SWIDTH 0 0
DWIDTH 0 0
BBX 5 5 -9 19
BITMAP
E0
60
70
38
18
ENDCHAR
STARTCHAR 0301
ENCODING 769
SWIDTH 0 0
DWIDTH 0 0
BBX 5 5 -7 19
BITMAP
38
70
60
C0
C0
ENDCHAR
STARTCHAR 0302
ENCODING 770
SWIDTH 0 0
DWIDTH 0 0
BBX 8 5 -9 19
BITMAP
3C
7C
6E
E6
C3
ENDCHAR
STARTCHAR 0303
ENCODING 771
SWIDTH 0 0
DWIDTH 0 0
BBX 10 5 -11 20
BITMAP
30C0
7CC0
7FC0
6FC0
C380
ENDCHAR
STARTCHAR 0304
ENCODING 772
SWIDTH 0 0
DWIDTH 0 0
BBX 9 3 -10 20
BITMAP
FF80
FF80
FF80
ENDCHAR
STARTCHAR 0305
ENCODING 773
SWIDTH 0 0
DWIDTH 0 0
BBX 18 3 -14 20
BITMAP
FFFFC0
FFFFC0
FFFFC0
ENDCHAR
STARTCHAR 0306
ENCODING 774
SWIDTH 0 0
DWIDTH 0 0
BBX 10 5 -11 19
BITMAP
C0C0
61C0
7FC0
3F80
1F00
ENDCHAR
STARTCHAR 0307
ENCODING 775
SWIDTH 0 0
DWIDTH 0 0
BBX 3 3 -7 20
BITMAP
E0
E0
E0
ENDCHAR
STARTCHAR 0308
ENCODING 776
SWIDTH 0 0
DWIDTH 0 0
BBX 9 3 -10 20
BITMAP
E380
E380
E380
ENDCHAR
STARTCHAR 0309
ENCODING 777
SWIDTH 0 0
DWIDTH 0 0
BBX 4 6 -9 18
BITMAP
E0
10
10
10
60
40
ENDCHAR
STARTCHAR 030A
ENCODING 778
SWIDTH 0 0
DWIDTH 0 0
BBX 7 7 -9 18
BITMAP
3C
7E
66
C6
66
7E
3C
ENDCHAR
STARTCHAR 030B
ENCODING 779
SWIDTH 0 0
DWIDTH 0 0
BBX 10 5 -10 20
BITMAP
79C0
7380
7380
E700
C600
ENDCHAR
STARTCHAR 030C
ENCODING 780
SWIDTH 0 0
DWIDTH 0 0
BBX 8 5 -9 19
BITMAP
C3
C6
6E
7C
3C
ENDCHAR
STARTCHAR 030D
ENCODING 781
SWIDTH 0 0
DWIDTH 0 0
BBX 2 6 -7 19
BITMAP
C0
C0
C0
C0
C0
C0
ENDCHAR
STARTCHAR 030E
ENCODING 782
SWIDTH 0 0
DWIDTH 0 0
BBX 6 6 -9 19
BITMAP
CC
CC
CC
CC
CC
CC
ENDCHAR
STARTCHAR 030F
ENCODING 783
SWIDTH 0 0
DWIDTH 0 0
BBX 10 5 -13 19
BITMAP
F780
7380
39C0
19C0
1CC0
ENDCHAR
STARTCHAR 0310
ENCODING 784
SWIDTH 0 0
DWIDTH 0 0
BBX 10 7 -11 20
BITMAP
0E00
0E00
CEC0
61C0
7FC0
3F80
1F00
ENDCHAR
STARTCHAR 0311
ENCODING 785
SWIDTH 0 0
DWIDTH 0 0
BBX 10 4 -10 19
BITMAP
3F00
7F80
FFC0
C0C0
ENDCHAR
STARTCHAR 0312
ENCODING 786
SWIDTH 0 0
DWIDTH 0 0
BBX 3 6 -7 19
BITMAP
60
40
80
E0
E0
E0
ENDCHAR
STARTCHAR 0313
ENCODING 787
SWIDTH 0 0
DWIDTH 0 0
BBX 3 6 -7 18
BITMAP
E0
E0
E0
20
20
C0
ENDCHAR
STARTCHAR 0314
ENCODING 788
SWIDTH 0 0
DWIDTH 0 0
BBX 3 6 -7 18
BITMAP
E0
E0
E0
80
80
60
ENDCHAR
STARTCHAR 0315
ENCODING 789
SWIDTH 0 0
DWIDTH 0 0
BBX 3 6 0 19
BITMAP
E0
E0
E0
20
40
80
ENDCHAR
STARTCHAR 0316
ENCODING 790
SWIDTH 0 0
DWIDTH 0 0
BBX 6 5 -10 -7
BITMAP
F0
70
38
18
0C
ENDCHAR
STARTCHAR 0317
ENCODING 791
SWIDTH 0 0
DWIDTH 0 0
BBX 6 5 -8 -7
BITMAP
3C
38
70
60
C0
ENDCHAR
STARTCHAR 0318
ENCODING 792
SWIDTH 0 0
DWIDTH 0 0
BBX 6 5 -9 -8
BITMAP
0C
FC
FC
FC
0C
ENDCHAR
STARTCHAR 0319
ENCODING 793
SWIDTH 0 0
DWIDTH 0 0
BBX 6 5 -8 -8
BITMAP
C0
FC
FC
FC
C0
ENDCHAR
STARTCHAR 031A
ENCODING 794
SWIDTH 0 0
DWIDTH 0 0
BBX 8 8 -6 15
BITMAP
FF
FF
FF
03
03
03
03
03
ENDCHAR
STARTCHAR 031B
ENCODING 795
SWIDTH 0 0
DWIDTH 0 0
BBX 6 7 -4 15
BITMAP
08
1C
1C
1C
FC
F8
F0
ENDCHAR
STARTCHAR 031C
ENCODING 796
SWIDTH 0 0
DWIDTH 0 0
BBX 2 5 -7 -6
BITMAP
40
80
80
80
40
ENDCHAR
STARTCHAR 031D
ENCODING 797
SWIDTH 0 0
DWIDTH 0 0
BBX 6 4 -8 -6
BITMAP
30
FC
FC
FC
ENDCHAR
STARTCHAR 031E
ENCODING 798
SWIDTH 0 0
DWIDTH 0 0
BBX 6 4 -8 -5
BITMAP
FC
FC
FC
30
ENDCHAR
STARTCHAR 031F
ENCODING 799
SWIDTH 0 0
DWIDTH 0 0
BBX 6 5 -8 -8
BITMAP
30
FC
FC
FC
30
ENDCHAR
STARTCHAR 0320
ENCODING 800
SWIDTH 0 0
DWIDTH 0 0
BBX 10 3 -14 -5
BITMAP
FFC0
FFC0
FFC0
ENDCHAR
STARTCHAR 0321
ENCODING 801
SWIDTH 0 0
DWIDTH 0 0
BBX 6 8 -6 -7
BITMAP
1C
1C
1C
1C
1C
FC
F8
F0
ENDCHAR
STARTCHAR 0322
ENCODING 802
SWIDTH 0 0
DWIDTH 0 0
BBX 6 8 -3 -7
BITMAP
E0
E0
E0
E0
E0
FC
7C
3C
ENDCHAR
STARTCHAR 0323
ENCODING 803
SWIDTH 0 0
DWIDTH 0 0
BBX 3 3 -8 -4
BITMAP
E0
E0
E0
ENDCHAR
STARTCHAR 0324
ENCODING 804
SWIDTH 0 0
DWIDTH 0 0
BBX 9 3 -11 -4
BITMAP
E380
E380
E380
ENDCHAR
STARTCHAR 0325
ENCODING 805
SWIDTH 0 0
DWIDTH 0 0
BBX 7 7 -11 -9
BITMAP
38
7E
E6
C6
E6
7E
3C
ENDCHAR
STARTCHAR 0326
ENCODING 806
SWIDTH 0 0
DWIDTH 0 0
BBX 3 7 -9 -10
BITMAP
E0
E0
E0
20
20
60
C0
ENDCHAR
STARTCHAR 0327
ENCODING 807
SWIDTH 0 0
DWIDTH 0 0
BBX 8 7 -11 -7
BITMAP
18
10
3E
07
07
8F
7C
ENDCHAR
STARTCHAR 0328
ENCODING 808
SWIDTH 0 0
DWIDTH 0 0
BBX 7 7 -9 -7
BITMAP
38
60
60
C0
C0
60
3E
ENDCHAR
STARTCHAR 0329
ENCODING 809
SWIDTH 0 0
DWIDTH 0 0
BBX 2 6 -9 -8
BITMAP
C0
C0
C0
C0
C0
C0
ENDCHAR
STARTCHAR 032A
ENCODING 810
SWIDTH 0 0
DWIDTH 0 0
BBX 9 4 -10 -6
BITMAP
FF80
FF80
FF80
C180
ENDCHAR
STARTCHAR 032B
ENCODING 811
SWIDTH 0 0
DWIDTH 0 0
BBX 9 4 -10 -6
BITMAP
8880
8880
8880
7700
ENDCHAR
STARTCHAR 032C
ENCODING 812
SWIDTH 0 0
DWIDTH 0 0
BBX 9 5 -10 -7
BITMAP
C180
6380
3300
3E00
1E00
ENDCHAR
STARTCHAR 032D
ENCODING 813
SWIDTH 0 0
DWIDTH 0 0
BBX 9 5 -10 -6
BITMAP
3C00
3E00
6600
E300
C180
ENDCHAR
STARTCHAR 032E
ENCODING 814
SWIDTH 0 0
DWIDTH 0 0
BBX 10 5 -11 -7
BITMAP
C0C0
E0C0
7FC0
7F80
3F80
ENDCHAR
STARTCHAR 032F
ENCODING 815
SWIDTH 0 0
DWIDTH 0 0
BBX 10 5 -10 -6
BITMAP
3F00
7F80
FF80
E1C0
C0C0
ENDCHAR
STARTCHAR 0330
ENCODING 816
SWIDTH 0 0
DWIDTH 0 0
BBX 10 5 -13 -5
BITMAP
38C0
7EC0
7FC0
6780
C100
ENDCHAR
STARTCHAR 0331
ENCODING 817
SWIDTH 0 0
DWIDTH 0 0
BBX 9 3 -12 -6
BITMAP
FF80
FF80
FF80
ENDCHAR
STARTCHAR 0332
ENCODING 818
SWIDTH 0 0
DWIDTH 0 0
BBX 20 2 -20 -6
BITMAP
FFFFF0
FFFFF0
ENDCHAR
STARTCHAR 0333
ENCODING 819
SWIDTH 0 0
DWIDTH 0 0
BBX 20 5 -20 -9
BITMAP
FFFFF0
FFFFF0
000000
FFFFF0
FFFFF0
ENDCHAR
STARTCHAR 0334
ENCODING 820
SWIDTH 0 0
DWIDTH 0 0
BBX 10 5 -15 7
BITMAP
30C0
7CC0
FFC0
CF80
C300
ENDCHAR
STARTCHAR 0335
ENCODING 821
SWIDTH 0 0
DWIDTH 0 0
BBX 9 3 -13 8
BITMAP
FF80
FF80
FF80
ENDCHAR
STARTCHAR 0336
ENCODING 822
SWIDTH 0 0
DWIDTH 0 0
BBX 20 2 -24 7
BITMAP
FFFFF0
FFFFF0
ENDCHAR
STARTCHAR 0337
ENCODING 823
SWIDTH 0 0
DWIDTH 0 0
BBX 21 20 -22 0
BITMAP
000018
000030
000060
0000C0
000180
000300
000600
000C00
001800
003000
006000
00C000
018000
030000
060000
0C0000
180000
300000
600000
C00000
ENDCHAR
STARTCHAR 0338
ENCODING 824
SWIDTH 0 0
DWIDTH 0 0
BBX 21 26 -22 -2
BITMAP
000018
000030
000070
000060
0000C0
000180
000380
000700
000600
000C00
001C00
003800
003000
006000
00E000
01C000
018000
030000
070000
0E0000
0C0000
180000
380000
700000
600000
C00000
ENDCHAR
STARTCHAR 0339
ENCODING 825
SWIDTH 0 0
DWIDTH 0 0
BBX 2 5 -8 -8
BITMAP
80
40
40
40
80
ENDCHAR
STARTCHAR 033A
ENCODING 826
SWIDTH 0 0
DWIDTH 0 0
BBX 9 4 -12 -6
BITMAP
C180
FF80
FF80
FF80
ENDCHAR
STARTCHAR 033B
ENCODING 827
SWIDTH 0 0
DWIDTH 0 0
BBX 9 10 -12 -10
BITMAP
FF80
FF80
FF80
C180
C180
C180
C180
FF80
FF80
FF80
ENDCHAR
STARTCHAR 033C
ENCODING 828
SWIDTH 0 0
DWIDTH 0 0
BBX 9 3 -12 -6
BITMAP
7700
8880
0800
ENDCHAR
STARTCHAR 033D
ENCODING 829
SWIDTH 0 0
DWIDTH 0 0
BBX 8 6 -10 18
BITMAP
C3
66
3C
3C
66
C3
ENDCHAR
STARTCHAR 033E
ENCODING 830
SWIDTH 0 0
DWIDTH 0 0
BBX 3 8 -7 20
BITMAP
60
E0
C0
C0
60
60
60
C0
ENDCHAR
STARTCHAR 033F
ENCODING 831
SWIDTH 0 0
DWIDTH 0 0
BBX 20 5 -20 19
BITMAP
FFFFF0
FFFFF0
000000
FFFFF0
FFFFF0
ENDCHAR
STARTCHAR 0340
ENCODING 832
SWIDTH 0 0
DWIDTH 0 0
BBX 5 5 -9 20
BITMAP
E0
60
30
38
18
ENDCHAR
STARTCHAR 0341
ENCODING 833
SWIDTH 0 0
DWIDTH 0 0
BBX 5 5 -7 19
BITMAP
38
70
60
C0
C0
ENDCHAR
STARTCHAR 0342
ENCODING 834
SWIDTH 0 0
DWIDTH 0 0
BBX 10 5 -11 20
BITMAP
30C0
7CC0
FFC0
CF80
C300
ENDCHAR
STARTCHAR 0343
ENCODING 835
SWIDTH 0 0
DWIDTH 0 0
BBX 3 6 -7 18
BITMAP
E0
E0
E0
20
20
C0
ENDCHAR
STARTCHAR 0344
ENCODING 836
SWIDTH 0 0
DWIDTH 0 0
BBX 11 5 -12 18
BITMAP
0300
0700
E6E0
EEE0
ECE0
ENDCHAR
STARTCHAR 0345
ENCODING 837
SWIDTH 0 0
DWIDTH 0 0
BBX 5 5 -10 -6
BITMAP
E0
E0
E0
E8
F0
ENDCHAR
STARTCHAR 0346
ENCODING 838
SWIDTH 0 0
DWIDTH 0 0
BBX 9 4 -10 19
BITMAP
FF80
FF80
FF80
C180
ENDCHAR
STARTCHAR 0347
ENCODING 839
SWIDTH 0 0
DWIDTH 0 0
BBX 9 6 -12 -8
BITMAP
FF80
FF80
FF80
FF80
FF80
FF80
ENDCHAR
STARTCHAR 0348
ENCODING 840
SWIDTH 0 0
DWIDTH 0 0
BBX 6 6 -11 -8
BITMAP
CC
CC
CC
CC
CC
CC
ENDCHAR
STARTCHAR 0349
ENCODING 841
SWIDTH 0 0
DWIDTH 0 0
BBX 4 4 -8 -7
BITMAP
F0
F0
30
30
ENDCHAR
STARTCHAR 034A
ENCODING 842
SWIDTH 0 0
DWIDTH 0 0
BBX 10 6 -12 18
BITMAP
0700
7EC0
7FC0
FF80
DF80
1800
ENDCHAR
STARTCHAR 034B
ENCODING 843
SWIDTH 0 0
DWIDTH 0 0
BBX 10 11 -13 18
BITMAP
0700
0700
77C0
7DC0
FF80
CF80
C300
0000
3800
3800
3800
ENDCHAR
STARTCHAR 034C
ENCODING 844
SWIDTH 0 0
DWIDTH 0 0
BBX 10 9 -12 19
BITMAP
30C0
7CC0
7FC0
CF80
F3C0
78C0
7FC0
EF80
C780
ENDCHAR
STARTCHAR 034D
ENCODING 845
SWIDTH 0 0
DWIDTH 0 0
BBX 15 6 -17 -7
BITMAP
1010
6008
8006
FFFE
6008
1010
ENDCHAR
STARTCHAR 034E
ENCODING 846
SWIDTH 0 0
DWIDTH 0 0
BBX 5 8 -11 -10
BITMAP
20
70
A8
20
20
20
20
20
ENDCHAR
STARTCHAR 034F
ENCODING 847
SWIDTH 0 0
DWIDTH 0 0
BBX 0 0 0 0
BITMAP
ENDCHAR
STARTCHAR 0350
ENCODING 848
SWIDTH 0 0
DWIDTH 0 0
BBX 9 7 -10 17
BITMAP
C000
3800
0700
0080
0700
3800
C000
ENDCHAR
STARTCHAR 0351
ENCODING 849
SWIDTH 0 0
DWIDTH 0 0
BBX 2 5 -6 20
BITMAP
40
80
80
80
40
ENDCHAR
STARTCHAR 0352
ENCODING 850
SWIDTH 0 0
DWIDTH 0 0
BBX 10 8 -11 18
BITMAP
0C00
7F00
7F80
F3C0
C0C0
1C00
1C00
1C00
ENDCHAR
STARTCHAR 0353
ENCODING 851
SWIDTH 0 0
DWIDTH 0 0
BBX 8 6 -14 -7
BITMAP
C3
66
3C
3C
66
C3
ENDCHAR
STARTCHAR 0354
ENCODING 852
SWIDTH 0 0
DWIDTH 0 0
BBX 9 7 -13 -8
BITMAP
0180
0E00
7000
8000
7000
0E00
0180
ENDCHAR
STARTCHAR 0355
ENCODING 853
SWIDTH 0 0
DWIDTH 0 0
BBX 9 7 -12 -7
BITMAP
C000
3800
0700
0080
0700
3800
C000
ENDCHAR
STARTCHAR 0356
ENCODING 854
SWIDTH 0 0
DWIDTH 0 0
BBX 15 6 -16 -7
BITMAP
C010
3828
0728
0744
38C4
C082
ENDCHAR
STARTCHAR 0357
ENCODING 855
SWIDTH 0 0
DWIDTH 0 0
BBX 2 5 -6 18
BITMAP
80
40
40
40
80
ENDCHAR
STARTCHAR 0358
ENCODING 856
SWIDTH 0 0
DWIDTH 0 0
BBX 3 3 -10 20
BITMAP
E0
E0
E0
ENDCHAR
STARTCHAR 0359
ENCODING 857
SWIDTH 0 0
DWIDTH 0 0
BBX 7 7 -13 -9
BITMAP
10
10
D6
7C
38
6C
44
ENDCHAR
STARTCHAR 035A
ENCODING 858
SWIDTH 0 0
DWIDTH 0 0
BBX 13 5 -16 -7
BITMAP
70F0
8D88
8208
8D88
70F0
ENDCHAR
STARTCHAR 035B
ENCODING 859
SWIDTH 0 0
DWIDTH 0 0
BBX 7 7 -11 19
BITMAP
60
60
60
FE
FC
0C
0C
ENDCHAR
STARTCHAR 035C
ENCODING 860
SWIDTH 0 0
DWIDTH 0 0
BBX 21 5 -11 -6
BITMAP
800008
F00078
7FFFF0
3FFFE0
07FF00
ENDCHAR
STARTCHAR 035D
ENCODING 861
SWIDTH 0 0
DWIDTH 0 0
BBX 21 5 -11 20
BITMAP
800008
F00078
7FFFF0
3FFFE0
07FF00
ENDCHAR
STARTCHAR 035E
ENCODING 862
SWIDTH 0 0
DWIDTH 0 0
BBX 20 3 -10 20
BITMAP
FFFFF0
FFFFF0
FFFFF0
ENDCHAR
STARTCHAR 035F
ENCODING 863
SWIDTH 0 0
DWIDTH 0 0
BBX 20 3 -10 -4
BITMAP
FFFFF0
FFFFF0
FFFFF0
ENDCHAR
STARTCHAR 0360
ENCODING 864
SWIDTH 0 0
DWIDTH 0 0
BBX 21 6 -11 18
BITMAP
1F0000
7FC000
FFF808
C07FF8
001FF0
0003E0
ENDCHAR
STARTCHAR 0361
ENCODING 865
SWIDTH 0 0
DWIDTH 0 0
BBX 21 5 -10 20
BITMAP
07FF00
3FFFE0
7FFFF0
F00078
800008
ENDCHAR
STARTCHAR 0362
ENCODING 866
SWIDTH 0 0
DWIDTH 0 0
BBX 20 7 -10 -8
BITMAP
000200
000380
0001C0
FFFFF0
0001C0
000380
000200
ENDCHAR
STARTCHAR 0363
ENCODING 867
SWIDTH 0 0
DWIDTH 0 0
BBX 7 6 -12 20
BITMAP
7C
04
3C
C4
CC
76
ENDCHAR
STARTCHAR 0364
ENCODING 868
SWIDTH 0 0
DWIDTH 0 0
BBX 6 6 -12 20
BITMAP
78
44
FC
C0
44
38
ENDCHAR
STARTCHAR 0365
ENCODING 869
SWIDTH 0 0
DWIDTH 0 0
BBX 1 9 -9 19
BITMAP
80
00
00
80
80
80
80
80
80
ENDCHAR
STARTCHAR 0366
ENCODING 870
SWIDTH 0 0
DWIDTH 0 0
BBX 6 6 -12 20
BITMAP
78
44
C4
C4
4C
38
ENDCHAR
STARTCHAR 0367
ENCODING 871
SWIDTH 0 0
DWIDTH 0 0
BBX 5 6 -11 20
BITMAP
88
88
88
88
98
E8
ENDCHAR
STARTCHAR 0368
ENCODING 872
SWIDTH 0 0
DWIDTH 0 0
BBX 6 6 -11 20
BITMAP
7C
44
C0
C0
4C
38
ENDCHAR
STARTCHAR 0369
ENCODING 873
SWIDTH 0 0
DWIDTH 0 0
BBX 6 9 -11 20
BITMAP
04
04
04
7C
44
C4
C4
4C
3C
ENDCHAR
STARTCHAR 036A
ENCODING 874
SWIDTH 0 0
DWIDTH 0 0
BBX 5 9 -10 19
BITMAP
80
80
80
F8
88
88
88
88
88
ENDCHAR
STARTCHAR 036B
ENCODING 875
SWIDTH 0 0
DWIDTH 0 0
BBX 8 6 -13 19
BITMAP
F7
89
89
89
89
89
ENDCHAR
STARTCHAR 036C
ENCODING 876
SWIDTH 0 0
DWIDTH 0 0
BBX 3 6 -9 19
BITMAP
E0
80
80
80
80
80
ENDCHAR
STARTCHAR 036D
ENCODING 877
SWIDTH 0 0
DWIDTH 0 0
BBX 2 8 -9 19
BITMAP
80
80
C0
80
80
80
80
C0
ENDCHAR
STARTCHAR 036E
ENCODING 878
SWIDTH 0 0
DWIDTH 0 0
BBX 6 6 -12 19
BITMAP
CC
48
48
30
30
30
ENDCHAR
STARTCHAR 036F
ENCODING 879
SWIDTH 0 0
DWIDTH 0 0
BBX 5 6 -12 19
BITMAP
48
30
30
30
48
C8
ENDCHAR
STARTCHAR 0374
ENCODING 884
SWIDTH 281 0
DWIDTH 9 0
BBX 5 9 2 14
BITMAP
30
38
38
70
70
60
E0
C0
80
ENDCHAR
STARTCHAR 0375
ENCODING 885
SWIDTH 187 0
DWIDTH 6 0
BBX 4 6 1 -6
BITMAP
10
30
70
E0
E0
40
ENDCHAR
STARTCHAR 037A
ENCODING 890
SWIDTH 343 0
DWIDTH 11 0
BBX 5 5 4 -6
BITMAP
E0
E0
E0
E8
78
ENDCHAR
STARTCHAR 037B
ENCODING 891
SWIDTH 468 0
DWIDTH 15 0
BBX 12 17 1 0
BITMAP
FE00
FF80
FFC0
03E0
00E0
00F0
0070
0070
0070
0070
0070
00F0
00E0
03E0
FFC0
FF80
FF00
ENDCHAR
STARTCHAR 037C
ENCODING 892
SWIDTH 468 0
DWIDTH 15 0
BBX 12 17 1 -1
BITMAP
07F0
1FF0
3FF0
7C00
7000
F000
E1C0
E1C0
E1C0
E000
E000
F000
7000
7C00
3FF0
1FF0
0FF0
ENDCHAR
STARTCHAR 037D
ENCODING 893
SWIDTH 468 0
DWIDTH 15 0
BBX 12 17 1 0
BITMAP
FE00
FF80
FFC0
03E0
00E0
00F0
3870
3870
3870
0070
0070
00F0
00E0
03E0
FFC0
FF80
FF00
ENDCHAR
STARTCHAR 037E
ENCODING 894
SWIDTH 281 0
DWIDTH 9 0
BBX 3 21 3 -5
BITMAP
E0
E0
E0
00
00
00
00
00
00
00
00
00
00
E0
E0
E0
20
20
20
60
C0
ENDCHAR
STARTCHAR 0384
ENCODING 900
SWIDTH 343 0
DWIDTH 11 0
BBX 5 5 4 19
BITMAP
38
70
60
C0
C0
ENDCHAR
STARTCHAR 0385
ENCODING 901
SWIDTH 343 0
DWIDTH 11 0
BBX 11 5 0 19
BITMAP
0300
0700
E6E0
EEE0
ECE0
ENDCHAR
STARTCHAR 0386
ENCODING 902
SWIDTH 656 0
DWIDTH 21 0
BBX 21 24 0 1
BITMAP
1C7800
38F800
30F800
60FC00
C1DC00
01DE00
01CE00
038E00
038F00
070700
070700
070780
0E0380
0E0380
0FFFC0
1FFFC0
1FFFC0
1C01E0
3C00E0
3800E0
3800F0
780070
700070
700078
ENDCHAR
STARTCHAR 0387
ENCODING 903
SWIDTH 281 0
DWIDTH 9 0
BBX 3 3 3 14
BITMAP
E0
E0
E0
ENDCHAR
STARTCHAR 0388
ENCODING 904
SWIDTH 781 0
DWIDTH 25 0
BBX 24 24 0 0
BITMAP
38FFFF
70FFFF
60FFFF
C0E000
C0E000
00E000
00E000
00E000
00E000
00E000
00FFFE
00FFFE
00FFFE
00E000
00E000
00E000
00E000
00E000
00E000
00E000
00E000
00FFFF
00FFFF
00FFFF
ENDCHAR
STARTCHAR 0389
ENCODING 905
SWIDTH 875 0
DWIDTH 28 0
BBX 25 24 1 0
BITMAP
39C00380
71C00380
61C00380
C1C00380
C1C00380
01C00380
01C00380
01C00380
01C00380
01C00380
01FFFF80
01FFFF80
01FFFF80
01C00380
01C00380
01C00380
01C00380
01C00380
01C00380
01C00380
01C00380
01C00380
01C00380
01C00380
ENDCHAR
STARTCHAR 038A
ENCODING 906
SWIDTH 406 0
DWIDTH 13 0
BBX 10 24 0 0
BITMAP
39C0
71C0
61C0
C1C0
C1C0
01C0
01C0
01C0
01C0
01C0
01C0
01C0
01C0
01C0
01C0
01C0
01C0
01C0
01C0
01C0
01C0
01C0
01C0
01C0
ENDCHAR
STARTCHAR 038C
ENCODING 908
SWIDTH 875 0
DWIDTH 28 0
BBX 27 24 0 0
BITMAP
1C1FE000
387FF800
30FFFE00
61F03F00
C3C00F00
07800780
070003C0
0F0001C0
0E0001C0
0E0001C0
0E0000E0
0E0000E0
0E0000E0
0E0000E0
0E0001C0
0E0001C0
0F0001C0
070003C0
07800780
03C00F00
01F03F00
00FFFE00
007FF800
001FE000
ENDCHAR
STARTCHAR 038E
ENCODING 910
SWIDTH 906 0
DWIDTH 29 0
BBX 27 24 0 1
BITMAP
1DE000E0
38F001E0
707001C0
60780380
C0380780
003C0700
001C0F00
000E0E00
000F1C00
00071C00
0007B800
0003F800
0001F000
0001E000
0000E000
0000E000
0000E000
0000E000
0000E000
0000E000
0000E000
0000E000
0000E000
0000E000
ENDCHAR
STARTCHAR 038F
ENCODING 911
SWIDTH 812 0
DWIDTH 26 0
BBX 23 24 1 0
BITMAP
38FE00
73FFC0
67FFE0
CF81F0
DE0078
3C003C
38001C
38001C
70000E
70000E
70000E
70000E
70000E
70000E
70001C
38001C
38003C
1C0038
0E0070
0F00E0
0383C0
7FC3FE
7FC3FE
7FC3FE
ENDCHAR
STARTCHAR 0390
ENCODING 912
SWIDTH 281 0
DWIDTH 9 0
BBX 11 25 -1 0
BITMAP
0380
0700
E7E0
E6E0
ECE0
0000
0000
0000
1C00
1C00
1C00
1C00
1C00
1C00
1C00
1C00
1C00
1C00
1C00
1C00
1C00
1C00
1F80
0FC0
07C0
ENDCHAR
STARTCHAR 0391
ENCODING 913
SWIDTH 656 0
DWIDTH 21 0
BBX 20 24 1 0
BITMAP
00F000
01F000
01F000
01F800
03B800
03BC00
039C00
071C00
071E00
0E0E00
0E0E00
0E0F00
1C0700
1C0700
1FFF80
3FFF80
3FFF80
3803C0
7801C0
7001C0
7001E0
F000E0
E000E0
E000F0
ENDCHAR
STARTCHAR 0392
ENCODING 914
SWIDTH 656 0
DWIDTH 21 0
BBX 17 24 3 0
BITMAP
FFF000
FFFC00
FFFE00
E01E00
E00F00
E00700
E00700
E00700
E00F00
E01E00
FFFC00
FFFC00
FFFE00
E00F00
E00780
E00380
E00380
E00380
E00380
E00780
E00F00
FFFF00
FFFE00
FFF800
ENDCHAR
STARTCHAR 0393
ENCODING 915
SWIDTH 593 0
DWIDTH 19 0
BBX 15 24 3 0
BITMAP
FFFE
FFFE
FFFE
E000
E000
E000
E000
E000
E000
E000
E000
E000
E000
E000
E000
E000
E000
E000
E000
E000
E000
E000
E000
E000
ENDCHAR
STARTCHAR 0394
ENCODING 916
SWIDTH 687 0
DWIDTH 22 0
BBX 21 24 1 0
BITMAP
00F000
01F000
01F800
01B800
039800
039C00
039C00
070E00
070E00
070E00
0E0700
0E0700
1E0700
1C0380
1C0380
3C01C0
3801C0
3801C0
7800E0
7000E0
7000F0
FFFFF0
FFFFF0
FFFFF8
ENDCHAR
STARTCHAR 0395
ENCODING 917
SWIDTH 625 0
DWIDTH 20 0
BBX 16 24 3 0
BITMAP
FFFF
FFFF
FFFF
E000
E000
E000
E000
E000
E000
E000
FFFE
FFFE
FFFE
E000
E000
E000
E000
E000
E000
E000
E000
FFFF
FFFF
FFFF
ENDCHAR
STARTCHAR 0396
ENCODING 918
SWIDTH 625 0
DWIDTH 20 0
BBX 18 24 1 0
BITMAP
7FFFC0
7FFFC0
7FFFC0
000380
000780
000F00
001E00
003C00
003800
007800
00F000
01E000
01C000
03C000
078000
0F0000
1E0000
1C0000
3C0000
780000
F00000
FFFFC0
FFFFC0
FFFFC0
ENDCHAR
STARTCHAR 0397
ENCODING 919
SWIDTH 718 0
DWIDTH 23 0
BBX 18 24 3 0
BITMAP
E001C0
E001C0
E001C0
E001C0
E001C0
E001C0
E001C0
E001C0
E001C0
E001C0
FFFFC0
FFFFC0
FFFFC0
E001C0
E001C0
E001C0
E001C0
E001C0
E001C0
E001C0
E001C0
E001C0
E001C0
E001C0
ENDCHAR
STARTCHAR 0398
ENCODING 920
SWIDTH 781 0
DWIDTH 25 0
BBX 23 24 1 0
BITMAP
00FE00
07FFC0
0FFFE0
1F01F0
3C0078
78003C
70001C
70001C
E0000E
E0000E
E3FF8E
E3FF8E
E3FF8E
E0000E
E0000E
F0001E
70001C
78003C
380038
3C00F8
1F03F0
0FFFE0
03FF80
00FE00
ENDCHAR
STARTCHAR 0399
ENCODING 921
SWIDTH 281 0
DWIDTH 9 0
BBX 3 24 3 0
BITMAP
E0
E0
E0
E0
E0
E0
E0
E0
E0
E0
E0
E0
E0
E0
E0
E0
E0
E0
E0
E0
E0
E0
E0
E0
ENDCHAR
STARTCHAR 039A
ENCODING 922
SWIDTH 687 0
DWIDTH 22 0
BBX 18 24 3 0
BITMAP
E003C0
E00780
E00F00
E01E00
E03C00
E07800
E0F000
E1E000
E3C000
E38000
E78000
EFC000
FDE000
F8E000
F07000
E07800
E03800
E01C00
E01E00
E00F00
E00700
E00780
E003C0
E001C0
ENDCHAR
STARTCHAR 039B
ENCODING 923
SWIDTH 656 0
DWIDTH 21 0
BBX 20 24 1 0
BITMAP
00F000
01F000
01F000
01F800
03B800
03BC00
039C00
071C00
071E00
0F0E00
0E0E00
0E0F00
1E0700
1C0700
1C0780
3C0380
380380
3803C0
7801C0
7001C0
7001E0
F000E0
E000E0
E000F0
ENDCHAR
STARTCHAR 039C
ENCODING 924
SWIDTH 843 0
DWIDTH 27 0
BBX 22 24 3 0
BITMAP
F0003C
F8007C
F8007C
F8007C
FC00FC
EC00FC
EC00DC
EE01DC
EE01DC
E6019C
E7039C
E7039C
E3031C
E3871C
E3871C
E1861C
E1CE1C
E1CE1C
E0CC1C
E0FC1C
E0FC1C
E0781C
E0781C
E0781C
ENDCHAR
STARTCHAR 039D
ENCODING 925
SWIDTH 718 0
DWIDTH 23 0
BBX 18 24 3 0
BITMAP
F001C0
F001C0
F801C0
F801C0
FC01C0
EE01C0
EE01C0
E701C0
E701C0
E381C0
E1C1C0
E1C1C0
E0E1C0
E0E1C0
E071C0
E079C0
E039C0
E01DC0
E01DC0
E00FC0
E00FC0
E007C0
E003C0
E003C0
ENDCHAR
STARTCHAR 039E
ENCODING 926
SWIDTH 625 0
DWIDTH 20 0
BBX 18 24 1 0
BITMAP
7FFFC0
7FFFC0
7FFFC0
000000
000000
000000
000000
000000
000000
000000
1FFF00
1FFF00
1FFF00
000000
000000
000000
000000
000000
000000
000000
000000
FFFFC0
FFFFC0
FFFFC0
ENDCHAR
STARTCHAR 039F
ENCODING 927
SWIDTH 781 0
DWIDTH 25 0
BBX 23 24 1 0
BITMAP
00FE00
03FF80
0FFFE0
1F01F0
3C0078
380038
78003C
70001C
F0001E
E0000E
E0000E
E0000E
E0000E
E0000E
E0000E
F0001E
70001C
70003C
380038
3C0078
1F01F0
0FFFE0
07FFC0
00FE00
ENDCHAR
STARTCHAR 03A0
ENCODING 928
SWIDTH 718 0
DWIDTH 23 0
BBX 17 24 3 0
BITMAP
FFFF80
FFFF80
FFFF80
E00380
E00380
E00380
E00380
E00380
E00380
E00380
E00380
E00380
E00380
E00380
E00380
E00380
E00380
E00380
E00380
E00380
E00380
E00380
E00380
E00380
ENDCHAR
STARTCHAR 03A1
ENCODING 929
SWIDTH 656 0
DWIDTH 21 0
BBX 16 24 3 0
BITMAP
FFF0
FFFC
FFFE
E01E
E00F
E007
E007
E007
E007
E00F
E01E
FFFE
FFFC
FFF0
E000
E000
E000
E000
E000
E000
E000
E000
E000
E000
ENDCHAR
STARTCHAR 03A3
ENCODING 931
SWIDTH 625 0
DWIDTH 20 0
BBX 18 24 1 0
BITMAP
7FFFC0
7FFFC0
7FFFC0
380000
1C0000
1E0000
0F0000
070000
038000
03C000
01E000
00E000
01E000
03C000
078000
070000
0F0000
1E0000
3C0000
780000
700000
FFFFC0
FFFFC0
FFFFC0
ENDCHAR
STARTCHAR 03A4
ENCODING 932
SWIDTH 625 0
DWIDTH 20 0
BBX 17 24 2 1
BITMAP
FFFF80
FFFF80
FFFF80
01C000
01C000
01C000
01C000
01C000
01C000
01C000
01C000
01C000
01C000
01C000
01C000
01C000
01C000
01C000
01C000
01C000
01C000
01C000
01C000
01C000
ENDCHAR
STARTCHAR 03A5
ENCODING 933
SWIDTH 687 0
DWIDTH 22 0
BBX 20 24 0 1
BITMAP
F00070
7800F0
3800E0
3C01E0
1C01C0
0E0380
0F0780
070700
078F00
038E00
01DC00
01FC00
00F800
00F800
007000
007000
007000
007000
007000
007000
007000
007000
007000
007000
ENDCHAR
STARTCHAR 03A6
ENCODING 934
SWIDTH 750 0
DWIDTH 24 0
BBX 21 24 1 0
BITMAP
003800
003800
01FF00
07FF80
1FFFC0
3F39E0
7C38F0
783870
703878
E03838
E03838
E03838
E03838
E03838
E03838
F03878
783870
7C38F0
3F39E0
1FFFE0
0FFF80
01FF00
003800
003800
ENDCHAR
STARTCHAR 03A7
ENCODING 935
SWIDTH 656 0
DWIDTH 21 0
BBX 19 24 1 0
BITMAP
F001E0
7801C0
380380
3C0780
1C0700
0E0E00
0F1E00
071C00
03B800
03F800
01F000
00E000
01F000
03F000
03B800
07BC00
0F1C00
0E0E00
1E0F00
3C0780
380380
7803C0
F001E0
E000E0
ENDCHAR
STARTCHAR 03A8
ENCODING 936
SWIDTH 750 0
DWIDTH 24 0
BBX 21 24 2 0
BITMAP
C00018
E07038
E07038
E07038
E07038
E07038
E07038
E07038
E07038
E07038
E07038
E07038
E07038
E07038
F07078
7870F0
7FFFF0
3FFFE0
0FFF80
007000
007000
007000
007000
007000
ENDCHAR
STARTCHAR 03A9
ENCODING 937
SWIDTH 750 0
DWIDTH 24 0
BBX 22 24 1 0
BITMAP
01FC00
07FF80
0FFFC0
1F03E0
3C00F0
780078
700038
700038
E0001C
E0001C
E0001C
E0001C
E0001C
E0001C
E00038
700038
700078
380070
1C00E0
1E01C0
070780
FF87FC
FF87FC
FF87FC
ENDCHAR
STARTCHAR 03AA
ENCODING 938
SWIDTH 281 0
DWIDTH 9 0
BBX 9 29 0 0
BITMAP
E380
E380
E380
0000
0000
1C00
1C00
1C00
1C00
1C00
1C00
1C00
1C00
1C00
1C00
1C00
1C00
1C00
1C00
1C00
1C00
1C00
1C00
1C00
1C00
1C00
1C00
1C00
1C00
ENDCHAR
STARTCHAR 03AB
ENCODING 939
SWIDTH 687 0
DWIDTH 22 0
BBX 20 29 0 0
BITMAP
01C700
01C700
01C700
000000
000000
F00070
7800F0
3800E0
3C01E0
1C01C0
0E0380
0F0780
070700
078F00
038E00
01DC00
01FC00
00F800
00F800
007000
007000
007000
007000
007000
007000
007000
007000
007000
007000
ENDCHAR
STARTCHAR 03AC
ENCODING 940
SWIDTH 562 0
DWIDTH 18 0
BBX 17 24 1 0
BITMAP
003800
007000
00E000
00C000
018000
000000
000000
07C600
1FF600
3FFE00
787E00
701E00
F01E00
E00E00
E00E00
E00E00
E00E00
E00E00
E01E00
701E00
783E00
3FF780
1FF780
0FC780
ENDCHAR
STARTCHAR 03AD
ENCODING 941
SWIDTH 500 0
DWIDTH 16 0
BBX 15 24 1 0
BITMAP
0070
00E0
00C0
0180
0100
0000
0000
0FE0
3FF8
7FFC
F01E
E000
E000
E000
7000
3F00
3F00
7000
E000
E000
F01E
7FFC
7FFC
1FF0
ENDCHAR
STARTCHAR 03AE
ENCODING 942
SWIDTH 562 0
DWIDTH 18 0
BBX 16 30 0 -6
BITMAP
0038
0070
0060
00C0
00C0
0000
0000
F0F8
73FC
7BFE
3E0E
3C0F
3807
3807
3807
3807
3807
3807
3807
3807
3807
3807
3807
3807
0007
0007
0007
0007
0007
0007
ENDCHAR
STARTCHAR 03AF
ENCODING 943
SWIDTH 312 0
DWIDTH 10 0
BBX 7 24 2 1
BITMAP
1C
38
30
60
60
00
00
E0
E0
E0
E0
E0
E0
E0
E0
E0
E0
E0
E0
E0
E0
FC
7E
3E
ENDCHAR
STARTCHAR 03B0
ENCODING 944
SWIDTH 562 0
DWIDTH 18 0
BBX 14 25 2 0
BITMAP
01C0
0380
73F0
7370
7670
0000
0000
0000
E01C
E01C
E01C
E01C
E01C
E01C
E01C
E01C
E01C
E01C
E01C
E01C
E03C
F07C
7FF8
3FF0
1FE0
ENDCHAR
STARTCHAR 03B1
ENCODING 945
SWIDTH 562 0
DWIDTH 18 0
BBX 17 17 1 0
BITMAP
07C600
1FF600
3FFE00
787E00
701E00
F01E00
E00E00
E00E00
E00E00
E00E00
E00E00
E01E00
701E00
783E00
3FF780
1FF780
0FC780
ENDCHAR
STARTCHAR 03B2
ENCODING 946
SWIDTH 531 0
DWIDTH 17 0
BBX 15 29 2 -5
BITMAP
0FC0
3FE0
7FF0
7878
F018
E018
E018
E018
E070
E3E0
E3F0
E3F8
E03C
E01C
E00E
E00E
E00E
E00E
E00E
F01E
F83C
FFFC
EFF8
E3E0
E000
E000
E000
E000
E000
ENDCHAR
STARTCHAR 03B3
ENCODING 947
SWIDTH 531 0
DWIDTH 17 0
BBX 16 24 0 -8
BITMAP
E007
F006
F80E
380E
381C
3C1C
1C1C
1E38
0E38
0E78
0770
0770
07E0
03E0
03E0
01C0
01C0
01C0
01C0
01C0
01C0
01C0
01C0
01C0
ENDCHAR
STARTCHAR 03B4
ENCODING 948
SWIDTH 562 0
DWIDTH 18 0
BBX 16 24 1 0
BITMAP
7FFC
7FFC
7FFC
3C00
0E00
0780
01C0
0FE0
1FF8
3FFC
7C3C
700E
F00E
E007
E007
E007
E007
E007
F00F
700E
783E
3FFC
1FF8
07E0
ENDCHAR
STARTCHAR 03B5
ENCODING 949
SWIDTH 500 0
DWIDTH 16 0
BBX 15 17 1 0
BITMAP
0FE0
3FF8
7FFC
F01E
E000
E000
E000
7000
3F00
3F00
7000
E000
E000
F01E
7FFC
7FFC
1FF0
ENDCHAR
STARTCHAR 03B6
ENCODING 950
SWIDTH 437 0
DWIDTH 14 0
BBX 13 30 1 -6
BITMAP
7FF0
7FF0
7FF0
01C0
0380
0700
0E00
1C00
3800
3800
7000
7000
7000
E000
E000
E000
E000
E000
E000
7000
7800
3F80
1FF0
03F8
0038
0038
0038
0038
0070
0030
ENDCHAR
STARTCHAR 03B7
ENCODING 951
SWIDTH 562 0
DWIDTH 18 0
BBX 16 23 0 -6
BITMAP
F0F8
73FC
7BFE
3E0E
3C0F
3807
3807
3807
3807
3807
3807
3807
3807
3807
3807
3807
3807
0007
0007
0007
0007
0007
0007
ENDCHAR
STARTCHAR 03B8
ENCODING 952
SWIDTH 500 0
DWIDTH 16 0
BBX 15 24 1 0
BITMAP
07C0
1FF0
3FF8
3838
701C
701C
E00C
E00E
E00E
E00E
FFFE
FFFE
FFFE
E00E
E00E
E00E
E00E
E01E
701C
701C
7838
3FF8
1FF0
07C0
ENDCHAR
STARTCHAR 03B9
ENCODING 953
SWIDTH 281 0
DWIDTH 9 0
BBX 7 17 2 0
BITMAP
E0
E0
E0
E0
E0
E0
E0
E0
E0
E0
E0
E0
E0
E0
FC
7E
3E
ENDCHAR
STARTCHAR 03BA
ENCODING 954
SWIDTH 500 0
DWIDTH 16 0
BBX 14 17 2 0
BITMAP
E078
E0F0
E1E0
E3C0
E780
EF00
FE00
FF00
FF00
F380
E3C0
E1C0
E0E0
E0F0
E070
E038
E03C
ENDCHAR
STARTCHAR 03BB
ENCODING 955
SWIDTH 531 0
DWIDTH 17 0
BBX 17 24 0 0
BITMAP
3C0000
3E0000
3E0000
070000
030000
038000
038000
03C000
03C000
03C000
07E000
076000
066000
0E7000
0E3000
1C3800
1C3800
1C1800
381C00
381C00
380E00
700F80
700F80
F00780
ENDCHAR
STARTCHAR 03BC
ENCODING 956
SWIDTH 531 0
DWIDTH 17 0
BBX 14 23 2 -5
BITMAP
E01C
E01C
E01C
E01C
E01C
E01C
E01C
E01C
E01C
E01C
E01C
E01C
E03C
F03C
F87C
FFFC
EFDC
E79C
E000
E000
E000
E000
E000
ENDCHAR
STARTCHAR 03BD
ENCODING 957
SWIDTH 500 0
DWIDTH 16 0
BBX 15 17 0 0
BITMAP
E00E
700E
700E
301C
381C
3818
1838
1C38
1C30
0C70
0E70
0E60
06E0
07C0
07C0
03C0
0380
ENDCHAR
STARTCHAR 03BE
ENCODING 958
SWIDTH 500 0
DWIDTH 16 0
BBX 14 30 1 -7
BITMAP
FFF0
FFF0
FFF0
1C00
3800
7000
7000
7000
7000
3800
3C00
0FE0
1FE0
3C00
7000
E000
E000
E000
E000
F000
7800
7FF0
3FF8
0FFC
001C
001C
001C
001C
0038
0038
ENDCHAR
STARTCHAR 03BF
ENCODING 959
SWIDTH 531 0
DWIDTH 17 0
BBX 16 17 1 0
BITMAP
07E0
1FF8
3FFC
7C3E
700E
F00F
E007
E007
E007
E007
E007
F00F
700E
7C3E
3FFC
1FF8
07E0
ENDCHAR
STARTCHAR 03C0
ENCODING 960
SWIDTH 593 0
DWIDTH 19 0
BBX 17 17 1 0
BITMAP
FFFF00
FFFF00
FFFF00
380E00
380E00
380E00
380E00
380E00
380E00
380E00
380E00
380E00
380E00
380E00
380F80
380F80
380780
ENDCHAR
STARTCHAR 03C1
ENCODING 961
SWIDTH 562 0
DWIDTH 18 0
BBX 16 22 2 -5
BITMAP
07E0
1FF8
3FFC
7C3E
700E
F00F
E007
E007
E007
E007
E007
F00F
F00E
FC3E
FFFC
EFF8
E3E0
E000
E000
E000
E000
E000
ENDCHAR
STARTCHAR 03C2
ENCODING 962
SWIDTH 531 0
DWIDTH 17 0
BBX 15 23 1 -7
BITMAP
07E0
1FF8
3FFC
7C3E
700E
F00E
E000
E000
E000
E000
E000
E000
7000
7800
3E00
1FF0
0FFC
01FE
000E
000E
001E
001C
001C
ENDCHAR
STARTCHAR 03C3
ENCODING 963
SWIDTH 593 0
DWIDTH 19 0
BBX 18 17 1 0
BITMAP
07FFC0
1FFFC0
3FFFC0
7C3C00
700E00
F00E00
E00700
E00700
E00700
E00700
E00700
F00F00
700E00
7C3E00
3FFC00
1FF800
07E000
ENDCHAR
STARTCHAR 03C4
ENCODING 964
SWIDTH 500 0
DWIDTH 16 0
BBX 14 17 1 0
BITMAP
FFFC
FFFC
FFFC
0700
0700
0700
0700
0700
0700
0700
0700
0700
0700
0700
07E0
03E0
03E0
ENDCHAR
STARTCHAR 03C5
ENCODING 965
SWIDTH 562 0
DWIDTH 18 0
BBX 14 17 2 0
BITMAP
E01C
E01C
E01C
E01C
E01C
E01C
E01C
E01C
E01C
E01C
E01C
E01C
E03C
F07C
7FF8
3FF0
1FE0
ENDCHAR
STARTCHAR 03C6
ENCODING 966
SWIDTH 718 0
DWIDTH 23 0
BBX 21 22 1 -5
BITMAP
007E00
1C7F80
3C7FE0
3871E0
7070F0
707070
E07038
E07038
E07038
E07038
E07038
F07078
7870F0
7C71F0
3FFFE0
1FFFC0
07FF00
007000
007000
007000
007000
007000
ENDCHAR
STARTCHAR 03C7
ENCODING 967
SWIDTH 562 0
DWIDTH 18 0
BBX 18 24 0 -7
BITMAP
F00380
F80380
FC0700
1C0700
1E0E00
0E0E00
0F1C00
071C00
03B800
03B800
01F000
01F000
00E000
01F000
03F800
03B800
073C00
0F1C00
0E1E00
1C0E00
3C0F00
3807C0
7007C0
F001C0
ENDCHAR
STARTCHAR 03C8
ENCODING 968
SWIDTH 687 0
DWIDTH 22 0
BBX 19 22 2 -5
BITMAP
E000E0
E0E0E0
E0E0E0
E0E0E0
E0E0E0
E0E0E0
E0E0E0
E0E0E0
E0E0E0
E0E0E0
E0E0E0
E0E0E0
F0E1E0
78E3C0
7FFFC0
3FFF80
0FFE00
00E000
00E000
00E000
00E000
00E000
ENDCHAR
STARTCHAR 03C9
ENCODING 969
SWIDTH 718 0
DWIDTH 23 0
BBX 22 17 1 0
BITMAP
1800E0
3C00F0
380070
700038
700038
607038
E0701C
E0701C
E0701C
E0701C
E0701C
E0701C
707038
78D878
7FDFF0
3F8FF0
0F07C0
ENDCHAR
STARTCHAR 03CA
ENCODING 970
SWIDTH 281 0
DWIDTH 9 0
BBX 10 23 -1 0
BITMAP
E380
E380
E380
0000
0000
0000
1C00
1C00
1C00
1C00
1C00
1C00
1C00
1C00
1C00
1C00
1C00
1C00
1C00
1C00
1F80
0FC0
07C0
ENDCHAR
STARTCHAR 03CB
ENCODING 971
SWIDTH 562 0
DWIDTH 18 0
BBX 14 23 2 0
BITMAP
38E0
38E0
38E0
0000
0000
0000
E01C
E01C
E01C
E01C
E01C
E01C
E01C
E01C
E01C
E01C
E01C
E01C
E03C
F07C
7FF8
3FF0
1FE0
ENDCHAR
STARTCHAR 03CC
ENCODING 972
SWIDTH 531 0
DWIDTH 17 0
BBX 16 24 1 1
BITMAP
0070
0070
00E0
00C0
0180
0000
0000
07E0
1FF8
3FFC
7C3E
700E
F00F
E007
E007
E007
E007
E007
F00F
700E
7C3E
3FFC
1FF8
07E0
ENDCHAR
STARTCHAR 03CD
ENCODING 973
SWIDTH 562 0
DWIDTH 18 0
BBX 14 24 2 1
BITMAP
01C0
01C0
0380
0300
0600
0000
0000
E01C
E01C
E01C
E01C
E01C
E01C
E01C
E01C
E01C
E01C
E01C
E01C
E03C
F07C
7FF8
3FF0
1FE0
ENDCHAR
STARTCHAR 03CE
ENCODING 974
SWIDTH 718 0
DWIDTH 23 0
BBX 22 24 1 1
BITMAP
000E00
000E00
001C00
001800
003000
000000
000000
1800E0
3C00F0
380070
700038
700038
607038
E0701C
E0701C
E0701C
E0701C
E0701C
E0701C
707038
78D878
7FDFF0
3F8FF0
0F07C0
ENDCHAR
STARTCHAR 03D1
ENCODING 977
SWIDTH 562 0
DWIDTH 18 0
BBX 15 24 1 0
BITMAP
03E0
07F0
0FF8
0E38
1C1C
1C1C
1C1C
1C1C
1C1C
1C1C
1FFE
1FFE
1FFE
001C
001C
E01C
E01C
E01C
F038
7038
7878
3FF0
1FE0
0FC0
ENDCHAR
STARTCHAR 03D2
ENCODING 978
SWIDTH 687 0
DWIDTH 22 0
BBX 21 24 1 0
BITMAP
E003C0
F807F0
FC0FF8
3C1E30
1E3C00
0E3800
077000
077000
036000
03E000
03E000
01E000
01C000
01C000
01C000
01C000
01C000
01C000
01C000
01C000
01C000
01C000
01C000
01C000
ENDCHAR
STARTCHAR 03D3
ENCODING 979
SWIDTH 875 0
DWIDTH 28 0
BBX 28 24 0 0
BITMAP
39C007C0
31F00FE0
71F81FF0
E07C3C60
C03C7800
001E7000
000EE000
0006E000
0007C000
0007C000
0003C000
0003C000
0003C000
00038000
00038000
00038000
00038000
00038000
00038000
00038000
00038000
00038000
00038000
00038000
ENDCHAR
STARTCHAR 03D4
ENCODING 980
SWIDTH 687 0
DWIDTH 22 0
BBX 21 29 1 0
BITMAP
0E3800
0E3800
0E3800
000000
000000
E003C0
F807F0
FC0FF8
3C1E30
1E3C00
0E3800
077000
077000
036000
03E000
03E000
01E000
01C000
01C000
01C000
01C000
01C000
01C000
01C000
01C000
01C000
01C000
01C000
01C000
ENDCHAR
STARTCHAR 03D5
ENCODING 981
SWIDTH 687 0
DWIDTH 22 0
BBX 21 27 1 -5
BITMAP
007000
007000
007000
007000
007000
07FE00
1FFF80
3FFFE0
7C71E0
7870F0
F07070
E07038
E07038
E07038
E07038
E07038
F07078
787070
7C71F0
3FFFE0
0FFFC0
03FF00
007000
007000
007000
007000
007000
ENDCHAR
STARTCHAR 03D6
ENCODING 982
SWIDTH 718 0
DWIDTH 23 0
BBX 22 17 1 0
BITMAP
FFFFFC
FFFFFC
FFFFFC
380070
700038
707038
60701C
E0701C
E0701C
E0701C
E0701C
E0701C
F0703C
70F878
7FDFF8
3F8FF0
0F07C0
ENDCHAR
STARTCHAR 03D7
ENCODING 983
SWIDTH 562 0
DWIDTH 18 0
BBX 17 24 1 -7
BITMAP
F00780
FE0700
FF0E00
0F1E00
03BC00
03B800
03F800
03F000
07F000
07E000
0FE000
0FE000
1EE000
3CF000
787F80
703F80
E00F80
000380
000380
000380
000380
000F80
000F00
000E00
ENDCHAR
STARTCHAR 03F0
ENCODING 1008
SWIDTH 593 0
DWIDTH 19 0
BBX 19 17 0 0
BITMAP
1E01C0
3F0380
7F8780
E3CF00
41CE00
01DC00
01F800
01F800
03F000
03F000
07F000
077000
0F7040
1E78E0
1C3FE0
381FC0
700F00
ENDCHAR
STARTCHAR 03F1
ENCODING 1009
SWIDTH 562 0
DWIDTH 18 0
BBX 16 23 2 -6
BITMAP
07E0
1FF8
3FFC
7C3E
700E
F00F
E007
E007
E007
E007
E007
F00F
F00E
FC3E
FFFC
EFF8
E3E0
E000
E000
F03C
7FFC
3FFC
0FC0
ENDCHAR
STARTCHAR 03F2
ENCODING 1010
SWIDTH 468 0
DWIDTH 15 0
BBX 12 17 1 -1
BITMAP
07F0
1FF0
3FF0
7C00
7000
F000
E000
E000
E000
E000
E000
F000
7000
7C00
3FF0
1FF0
0FF0
ENDCHAR
STARTCHAR 03F3
ENCODING 1011
SWIDTH 250 0
DWIDTH 8 0
BBX 6 31 0 -7
BITMAP
1C
1C
1C
00
00
00
00
1C
1C
1C
1C
1C
1C
1C
1C
1C
1C
1C
1C
1C
1C
1C
1C
1C
1C
1C
1C
1C
FC
F8
F0
ENDCHAR
STARTCHAR 03F4
ENCODING 1012
SWIDTH 781 0
DWIDTH 25 0
BBX 23 24 1 0
BITMAP
00FE00
07FF80
0FFFE0
1F01F0
3C0078
380038
70001C
70001C
E0000E
E0000E
E0000E
FFFFFE
FFFFFE
FFFFFE
E0000E
E0000E
70001C
70001C
780038
3C0078
1F01F0
0FFFE0
07FFC0
00FE00
ENDCHAR
STARTCHAR 03F5
ENCODING 1013
SWIDTH 312 0
DWIDTH 10 0
BBX 7 17 1 0
BITMAP
0E
1E
3E
78
70
E0
E0
FE
FE
FE
E0
E0
60
78
7E
3E
0E
ENDCHAR
STARTCHAR 03F6
ENCODING 1014
SWIDTH 312 0
DWIDTH 10 0
BBX 7 17 2 0
BITMAP
E0
F8
F8
3C
1C
0E
0E
FE
FE
FE
0E
0E
1C
3C
F8
F0
E0
ENDCHAR
STARTCHAR 03F9
ENCODING 1017
SWIDTH 625 0
DWIDTH 20 0
BBX 18 24 1 0
BITMAP
01FFC0
07FFC0
0FFFC0
1F0000
3C0000
780000
700000
700000
E00000
E00000
E00000
E00000
E00000
E00000
E00000
E00000
700000
700000
780000
3C0000
1F0000
0FFFC0
07FFC0
01FFC0
ENDCHAR
STARTCHAR 03FD
ENCODING 1021
SWIDTH 625 0
DWIDTH 20 0
BBX 18 24 1 -1
BITMAP
FFE000
FFF800
FFFC00
003E00
000F00
000780
000380
000380
0001C0
0001C0
0001C0
0001C0
0001C0
0001C0
0001C0
0001C0
000380
000380
000780
000F00
003E00
FFFC00
FFF800
FFE000
ENDCHAR
STARTCHAR 03FE
ENCODING 1022
SWIDTH 625 0
DWIDTH 20 0
BBX 18 24 1 0
BITMAP
01FFC0
07FFC0
0FFFC0
1F0000
3C0000
780000
700000
700000
E00000
E00000
E03800
E03800
E03800
E00000
E00000
E00000
700000
700000
780000
3C0000
1F0000
0FFFC0
07FFC0
01FFC0
ENDCHAR
STARTCHAR 03FF
ENCODING 1023
SWIDTH 625 0
DWIDTH 20 0
BBX 18 24 1 -1
BITMAP
FFE000
FFF800
FFFC00
003E00
000F00
000780
000380
000380
0001C0
0701C0
0701C0
0701C0
0001C0
0001C0
0001C0
0001C0
000380
000380
000780
000F00
003E00
FFFC00
FFF800
FFE000
ENDCHAR
STARTCHAR 0400
ENCODING 1024
SWIDTH 656 0
DWIDTH 21 0
BBX 16 29 3 0
BITMAP
0E00
0700
0380
01C0
0000
FFFF
FFFF
FFFF
E000
E000
E000
E000
E000
E000
E000
FFFE
FFFE
FFFE
E000
E000
E000
E000
E000
E000
E000
E000
FFFF
FFFF
FFFF
ENDCHAR
STARTCHAR 0401
ENCODING 1025
SWIDTH 656 0
DWIDTH 21 0
BBX 16 29 3 0
BITMAP
0E38
0E38
0E38
0000
0000
FFFF
FFFF
FFFF
E000
E000
E000
E000
E000
E000
E000
FFFE
FFFE
FFFE
E000
E000
E000
E000
E000
E000
E000
E000
FFFF
FFFF
FFFF
ENDCHAR
STARTCHAR 0402
ENCODING 1026
SWIDTH 781 0
DWIDTH 25 0
BBX 22 29 1 -5
BITMAP
FFFE00
FFFE00
FFFE00
038000
038000
038000
038000
038000
038000
03FFE0
03FFF8
03FFF8
03803C
03801C
03801C
03801C
03801C
03801C
03801C
03801C
03801C
03801C
03801C
03801C
00001C
00001C
0001FC
0001F8
0001F0
ENDCHAR
STARTCHAR 0403
ENCODING 1027
SWIDTH 593 0
DWIDTH 19 0
BBX 15 29 3 0
BITMAP
01C0
0380
0700
0E00
0000
FFFE
FFFE
FFFE
E000
E000
E000
E000
E000
E000
E000
E000
E000
E000
E000
E000
E000
E000
E000
E000
E000
E000
E000
E000
E000
ENDCHAR
STARTCHAR 0404
ENCODING 1028
SWIDTH 718 0
DWIDTH 23 0
BBX 20 24 1 0
BITMAP
01FE00
07FF80
0FFFC0
1F03E0
3C00E0
7800F0
700070
700000
E00000
E00000
FFFC00
FFFC00
FFFC00
E00000
E00000
E00070
700070
7000F0
7800E0
3C01E0
1F07C0
0FFF80
07FF00
01FC00
ENDCHAR
STARTCHAR 0405
ENCODING 1029
SWIDTH 656 0
DWIDTH 21 0
BBX 19 24 1 0
BITMAP
03F800
0FFE00
1FFF00
3C0F80
7803C0
7001C0
7001C0
700000
780000
7C0000
3F8000
1FF800
03FF00
007F80
0007C0
0001E0
E000E0
E000E0
F000E0
7001C0
7C07C0
3FFF80
1FFF00
03F800
ENDCHAR
STARTCHAR 0406
ENCODING 1030
SWIDTH 281 0
DWIDTH 9 0
BBX 3 24 3 0
BITMAP
E0
E0
E0
E0
E0
E0
E0
E0
E0
E0
E0
E0
E0
E0
E0
E0
E0
E0
E0
E0
E0
E0
E0
E0
ENDCHAR
STARTCHAR 0407
ENCODING 1031
SWIDTH 312 0
DWIDTH 10 0
BBX 9 29 0 0
BITMAP
E380
E380
E380
0000
0000
1C00
1C00
1C00
1C00
1C00
1C00
1C00
1C00
1C00
1C00
1C00
1C00
1C00
1C00
1C00
1C00
1C00
1C00
1C00
1C00
1C00
1C00
1C00
1C00
ENDCHAR
STARTCHAR 0408
ENCODING 1032
SWIDTH 531 0
DWIDTH 17 0
BBX 13 24 1 0
BITMAP
0038
0038
0038
0038
0038
0038
0038
0038
0038
0038
0038
0038
0038
0038
0038
0038
E038
E038
E038
E078
F0F0
7FF0
3FE0
0F80
ENDCHAR
STARTCHAR 0409
ENCODING 1033
SWIDTH 1000 0
DWIDTH 32 0
BBX 30 24 1 0
BITMAP
0FFF8000
0FFF8000
0FFF8000
0E038000
0E038000
0E038000
0E038000
0E038000
0E038000
0E038000
0E03FF80
0E03FFE0
0E03FFF0
0E038078
0E03803C
0E03801C
1C03801C
1C03801C
1C03801C
3C03803C
38038078
F803FFF8
F003FFF0
E003FFC0
ENDCHAR
STARTCHAR 040A
ENCODING 1034
SWIDTH 1000 0
DWIDTH 32 0
BBX 28 24 3 0
BITMAP
E00E0000
E00E0000
E00E0000
E00E0000
E00E0000
E00E0000
E00E0000
E00E0000
E00E0000
E00E0000
FFFFFE00
FFFFFF80
FFFFFFC0
E00E01E0
E00E00F0
E00E0070
E00E0070
E00E0070
E00E0070
E00E00F0
E00E01E0
E00FFFE0
E00FFFC0
E00FFF00
ENDCHAR
STARTCHAR 040B
ENCODING 1035
SWIDTH 781 0
DWIDTH 25 0
BBX 22 24 1 0
BITMAP
FFFE00
FFFE00
FFFE00
038000
038000
038000
038000
038000
038000
03FFE0
03FFF8
03FFF8
03803C
03801C
03801C
03801C
03801C
03801C
03801C
03801C
03801C
03801C
03801C
03801C
ENDCHAR
STARTCHAR 040C
ENCODING 1036
SWIDTH 625 0
DWIDTH 20 0
BBX 17 29 3 0
BITMAP
00E000
01C000
038000
070000
000000
E00F00
E01E00
E03C00
E07800
E0F000
E1E000
E3C000
E78000
E70000
EE0000
FC0000
F80000
FC0000
FE0000
EF0000
E78000
E3C000
E1E000
E0F000
E07800
E03C00
E01E00
E00F00
E00780
ENDCHAR
STARTCHAR 040D
ENCODING 1037
SWIDTH 718 0
DWIDTH 23 0
BBX 18 29 3 0
BITMAP
070000
038000
01C000
00E000
000000
E003C0
E003C0
E007C0
E007C0
E00FC0
E01DC0
E01DC0
E039C0
E039C0
E071C0
E0E1C0
E0E1C0
E1C1C0
E1C1C0
E381C0
E301C0
E701C0
EE01C0
EE01C0
FC01C0
FC01C0
F801C0
F001C0
F001C0
ENDCHAR
STARTCHAR 040E
ENCODING 1038
SWIDTH 625 0
DWIDTH 20 0
BBX 18 29 1 1
BITMAP
0C0C00
0F3C00
07F800
03F000
00C000
E001C0
F003C0
700380
780780
380700
3C0F00
1C0E00
1E1E00
0E1C00
0F3C00
073800
07F800
03F000
03F000
01E000
01E000
01C000
03C000
038000
078000
070000
0F0000
0E0000
1E0000
ENDCHAR
STARTCHAR 040F
ENCODING 1039
SWIDTH 718 0
DWIDTH 23 0
BBX 18 27 3 -3
BITMAP
E001C0
E001C0
E001C0
E001C0
E001C0
E001C0
E001C0
E001C0
E001C0
E001C0
E001C0
E001C0
E001C0
E001C0
E001C0
E001C0
E001C0
E001C0
E001C0
E001C0
E001C0
FFFFC0
FFFFC0
FFFFC0
01C000
01C000
01C000
ENDCHAR
STARTCHAR 0410
ENCODING 1040
SWIDTH 656 0
DWIDTH 21 0
BBX 20 24 1 0
BITMAP
00F000
01F000
01F000
01F800
03B800
03BC00
039C00
071C00
071E00
0E0E00
0E0E00
0E0F00
1C0700
1C0700
1FFF80
3FFF80
3FFF80
3803C0
7801C0
7001C0
7001E0
F000E0
E000E0
E000F0
ENDCHAR
STARTCHAR 0411
ENCODING 1041
SWIDTH 656 0
DWIDTH 21 0
BBX 17 24 3 0
BITMAP
FFFE00
FFFE00
FFFE00
E00000
E00000
E00000
E00000
E00000
E00000
FFF000
FFFC00
FFFE00
E00F00
E00780
E00380
E00380
E00380
E00380
E00380
E00780
E00F00
FFFF00
FFFE00
FFF800
ENDCHAR
STARTCHAR 0412
ENCODING 1042
SWIDTH 656 0
DWIDTH 21 0
BBX 17 24 3 0
BITMAP
FFF000
FFFC00
FFFE00
E01E00
E00F00
E00700
E00700
E00700
E00F00
E01E00
FFFC00
FFFC00
FFFE00
E00F00
E00780
E00380
E00380
E00380
E00380
E00780
E00F00
FFFF00
FFFE00
FFF800
ENDCHAR
STARTCHAR 0413
ENCODING 1043
SWIDTH 593 0
DWIDTH 19 0
BBX 15 24 3 0
BITMAP
FFFE
FFFE
FFFE
E000
E000
E000
E000
E000
E000
E000
E000
E000
E000
E000
E000
E000
E000
E000
E000
E000
E000
E000
E000
E000
ENDCHAR
STARTCHAR 0414
ENCODING 1044
SWIDTH 812 0
DWIDTH 26 0
BBX 24 28 1 -4
BITMAP
01FFF8
01FFF8
01FFF8
01C038
01C038
01C038
01C038
01C038
01C038
01C038
01C038
01C038
01C038
01C038
01C038
03C038
038038
038038
038038
078038
0F0038
FFFFFF
FFFFFF
FFFFFF
E00007
E00007
E00007
E00007
ENDCHAR
STARTCHAR 0415
ENCODING 1045
SWIDTH 656 0
DWIDTH 21 0
BBX 16 24 3 0
BITMAP
FFFF
FFFF
FFFF
E000
E000
E000
E000
E000
E000
E000
FFFE
FFFE
FFFE
E000
E000
E000
E000
E000
E000
E000
E000
FFFF
FFFF
FFFF
ENDCHAR
STARTCHAR 0416
ENCODING 1046
SWIDTH 906 0
DWIDTH 29 0
BBX 27 24 1 0
BITMAP
780E03C0
3C0E0780
1C0E0700
1E0E0F00
0F0E1E00
078E3C00
038E3800
01CE7800
01EEF000
00FFE000
007FC000
003F8000
007FC000
00FFE000
01EEF000
03CE7800
038E3800
070E3C00
0F0E1E00
1E0E0F00
3C0E0780
780E03C0
700E01C0
E00E01E0
ENDCHAR
STARTCHAR 0417
ENCODING 1047
SWIDTH 656 0
DWIDTH 21 0
BBX 19 24 1 0
BITMAP
03F800
0FFE00
1FFF00
3E0780
7803C0
7001C0
7001C0
0001C0
0003C0
000F80
01FF00
01FF00
01FF80
0007C0
0001E0
0000E0
E000E0
E000E0
F000E0
7001C0
7C07C0
3FFF80
1FFF00
03FC00
ENDCHAR
STARTCHAR 0418
ENCODING 1048
SWIDTH 718 0
DWIDTH 23 0
BBX 18 24 3 0
BITMAP
E003C0
E003C0
E007C0
E007C0
E00FC0
E01DC0
E01DC0
E039C0
E039C0
E071C0
E0E1C0
E0E1C0
E1C1C0
E1C1C0
E381C0
E301C0
E701C0
EE01C0
EE01C0
FC01C0
FC01C0
F801C0
F001C0
F001C0
ENDCHAR
STARTCHAR 0419
ENCODING 1049
SWIDTH 718 0
DWIDTH 23 0
BBX 18 29 3 1
BITMAP
1C1800
0E3800
0FF800
07F000
018000
E003C0
E003C0
E007C0
E007C0
E00FC0
E01DC0
E01DC0
E039C0
E039C0
E071C0
E0E1C0
E0E1C0
E1C1C0
E1C1C0
E381C0
E301C0
E701C0
EE01C0
EE01C0
FC01C0
FC01C0
F801C0
F001C0
F001C0
ENDCHAR
STARTCHAR 041A
ENCODING 1050
SWIDTH 625 0
DWIDTH 20 0
BBX 17 24 3 0
BITMAP
E00F00
E01E00
E03C00
E07800
E0F000
E1E000
E3C000
E78000
E70000
EE0000
FC0000
F80000
FC0000
FE0000
EF0000
E78000
E3C000
E1E000
E0F000
E07800
E03C00
E01E00
E00F00
E00780
ENDCHAR
STARTCHAR 041B
ENCODING 1051
SWIDTH 656 0
DWIDTH 21 0
BBX 18 24 1 0
BITMAP
0FFFC0
0FFFC0
0FFFC0
0E01C0
0E01C0
0E01C0
0E01C0
0E01C0
0E01C0
0E01C0
0E01C0
0E01C0
0E01C0
0E01C0
0E01C0
0E01C0
1C01C0
1C01C0
1C01C0
3C01C0
3801C0
F801C0
F001C0
E001C0
ENDCHAR
STARTCHAR 041C
ENCODING 1052
SWIDTH 843 0
DWIDTH 27 0
BBX 22 24 3 0
BITMAP
F0003C
F8007C
F8007C
F8007C
FC00FC
EC00FC
EC00DC
EE01DC
EE01DC
E6019C
E7039C
E7039C
E3031C
E3871C
E3871C
E1861C
E1CE1C
E1CE1C
E0CC1C
E0FC1C
E0FC1C
E0781C
E0781C
E0781C
ENDCHAR
STARTCHAR 041D
ENCODING 1053
SWIDTH 718 0
DWIDTH 23 0
BBX 18 24 3 0
BITMAP
E001C0
E001C0
E001C0
E001C0
E001C0
E001C0
E001C0
E001C0
E001C0
E001C0
FFFFC0
FFFFC0
FFFFC0
E001C0
E001C0
E001C0
E001C0
E001C0
E001C0
E001C0
E001C0
E001C0
E001C0
E001C0
ENDCHAR
STARTCHAR 041E
ENCODING 1054
SWIDTH 781 0
DWIDTH 25 0
BBX 23 24 1 0
BITMAP
00FE00
03FF80
0FFFE0
1F01F0
3C0078
380038
78003C
70001C
F0001E
E0000E
E0000E
E0000E
E0000E
E0000E
E0000E
F0001E
70001C
70003C
380038
3C0078
1F01F0
0FFFE0
07FFC0
00FE00
ENDCHAR
STARTCHAR 041F
ENCODING 1055
SWIDTH 718 0
DWIDTH 23 0
BBX 17 24 3 0
BITMAP
FFFF80
FFFF80
FFFF80
E00380
E00380
E00380
E00380
E00380
E00380
E00380
E00380
E00380
E00380
E00380
E00380
E00380
E00380
E00380
E00380
E00380
E00380
E00380
E00380
E00380
ENDCHAR
STARTCHAR 0420
ENCODING 1056
SWIDTH 656 0
DWIDTH 21 0
BBX 16 24 3 0
BITMAP
FFF0
FFFC
FFFE
E01E
E00F
E007
E007
E007
E007
E00F
E01E
FFFE
FFFC
FFF0
E000
E000
E000
E000
E000
E000
E000
E000
E000
E000
ENDCHAR
STARTCHAR 0421
ENCODING 1057
SWIDTH 718 0
DWIDTH 23 0
BBX 20 24 1 0
BITMAP
01FE00
07FF80
0FFFC0
1F03E0
3C00E0
7800F0
700070
700000
E00000
E00000
E00000
E00000
E00000
E00000
E00000
E00070
700070
7000F0
7800E0
3C01E0
1F03C0
0FFF80
07FF00
01FC00
ENDCHAR
STARTCHAR 0422
ENCODING 1058
SWIDTH 625 0
DWIDTH 20 0
BBX 17 24 2 0
BITMAP
FFFF80
FFFF80
FFFF80
01C000
01C000
01C000
01C000
01C000
01C000
01C000
01C000
01C000
01C000
01C000
01C000
01C000
01C000
01C000
01C000
01C000
01C000
01C000
01C000
01C000
ENDCHAR
STARTCHAR 0423
ENCODING 1059
SWIDTH 625 0
DWIDTH 20 0
BBX 18 24 1 0
BITMAP
E001C0
F003C0
700380
780780
380700
3C0F00
1C0E00
1E1E00
0E1C00
0F3C00
073800
07F800
03F000
03F000
01E000
01E000
01C000
03C000
038000
078000
070000
0F0000
0E0000
1E0000
ENDCHAR
STARTCHAR 0424
ENCODING 1060
SWIDTH 843 0
DWIDTH 27 0
BBX 25 24 1 0
BITMAP
001C0000
001C0000
001C0000
01FFC000
0FFFF800
3FFFFC00
3F1C7E00
781C0F00
701C0700
F01C0780
E01C0380
E01C0380
E01C0380
E01C0380
E01C0780
701C0700
781C0F00
7F1C7F00
3FFFFE00
0FFFF800
03FFE000
001C0000
001C0000
001C0000
ENDCHAR
STARTCHAR 0425
ENCODING 1061
SWIDTH 656 0
DWIDTH 21 0
BBX 19 24 1 0
BITMAP
F001E0
7801C0
380380
3C0780
1C0700
0E0E00
0F1E00
071C00
03B800
03F800
01F000
00E000
01F000
03F000
03B800
07BC00
0F1C00
0E0E00
1E0F00
3C0780
380380
7803C0
F001E0
E000E0
ENDCHAR
STARTCHAR 0426
ENCODING 1062
SWIDTH 750 0
DWIDTH 24 0
BBX 20 27 3 -3
BITMAP
E00380
E00380
E00380
E00380
E00380
E00380
E00380
E00380
E00380
E00380
E00380
E00380
E00380
E00380
E00380
E00380
E00380
E00380
E00380
E00380
E00380
FFFFF0
FFFFF0
FFFFF0
000070
000070
000070
ENDCHAR
STARTCHAR 0427
ENCODING 1063
SWIDTH 625 0
DWIDTH 20 0
BBX 15 24 2 0
BITMAP
E00E
E00E
E00E
E00E
E00E
E00E
E00E
E00E
E00E
E00E
E00E
F00E
7FFE
7FFE
1FFE
000E
000E
000E
000E
000E
000E
000E
000E
000E
ENDCHAR
STARTCHAR 0428
ENCODING 1064
SWIDTH 843 0
DWIDTH 27 0
BBX 21 24 3 0
BITMAP
E07038
E07038
E07038
E07038
E07038
E07038
E07038
E07038
E07038
E07038
E07038
E07038
E07038
E07038
E07038
E07038
E07038
E07038
E07038
E07038
E07038
FFFFF8
FFFFF8
FFFFF8
ENDCHAR
STARTCHAR 0429
ENCODING 1065
SWIDTH 843 0
DWIDTH 27 0
BBX 24 27 3 -3
BITMAP
E07038
E07038
E07038
E07038
E07038
E07038
E07038
E07038
E07038
E07038
E07038
E07038
E07038
E07038
E07038
E07038
E07038
E07038
E07038
E07038
E07038
FFFFFF
FFFFFF
FFFFFF
000007
000007
000007
ENDCHAR
STARTCHAR 042A
ENCODING 1066
SWIDTH 843 0
DWIDTH 27 0
BBX 25 24 1 0
BITMAP
FFC00000
FFC00000
FFC00000
01C00000
01C00000
01C00000
01C00000
01C00000
01C00000
01FFF000
01FFFC00
01FFFE00
01C01F00
01C00700
01C00380
01C00380
01C00380
01C00380
01C00380
01C00700
01C01F00
01FFFE00
01FFFC00
01FFF000
ENDCHAR
STARTCHAR 042B
ENCODING 1067
SWIDTH 875 0
DWIDTH 28 0
BBX 22 24 3 0
BITMAP
E0001C
E0001C
E0001C
E0001C
E0001C
E0001C
E0001C
E0001C
E0001C
FFF01C
FFFC1C
FFFE1C
E00F1C
E0079C
E0039C
E0039C
E0039C
E0039C
E0039C
E0071C
E00F1C
FFFE1C
FFFC1C
FFF81C
ENDCHAR
STARTCHAR 042C
ENCODING 1068
SWIDTH 656 0
DWIDTH 21 0
BBX 17 24 3 0
BITMAP
E00000
E00000
E00000
E00000
E00000
E00000
E00000
E00000
E00000
FFF000
FFFC00
FFFE00
E00F00
E00780
E00380
E00380
E00380
E00380
E00380
E00700
E00F00
FFFE00
FFFC00
FFF800
ENDCHAR
STARTCHAR 042D
ENCODING 1069
SWIDTH 718 0
DWIDTH 23 0
BBX 20 24 1 0
BITMAP
07F000
1FFE00
3FFF00
7C0F80
7003C0
F001C0
E001E0
0000E0
0000E0
0000E0
07FFF0
07FFF0
07FFF0
000070
0000E0
E000E0
E000E0
E001E0
7001C0
7803C0
3C0F80
3FFF00
1FFE00
03F800
ENDCHAR
STARTCHAR 042E
ENCODING 1070
SWIDTH 1000 0
DWIDTH 32 0
BBX 28 24 3 0
BITMAP
E007F800
E01FFE00
E03FFF00
E07C0F80
E0F003C0
E1E001E0
E1C000E0
E1C000E0
E3800070
E3800070
FF800070
FF800070
FF800070
E3800070
E3800070
E3800070
E1C000E0
E1C000E0
E1E001C0
E0F003C0
E07C0F80
E03FFF00
E01FFE00
E007F000
ENDCHAR
STARTCHAR 042F
ENCODING 1071
SWIDTH 687 0
DWIDTH 22 0
BBX 18 24 1 0
BITMAP
07FFC0
1FFFC0
3FFFC0
3C01C0
7801C0
7001C0
7001C0
7001C0
7001C0
3801C0
3C01C0
1FFFC0
0FFFC0
07FFC0
00E1C0
01C1C0
0381C0
0781C0
0F01C0
1E01C0
3C01C0
3801C0
7001C0
E001C0
ENDCHAR
STARTCHAR 0430
ENCODING 1072
SWIDTH 531 0
DWIDTH 17 0
BBX 16 17 1 0
BITMAP
0FE0
3FF8
3FF8
783C
701C
001C
001C
01FC
3FFC
7F1C
F01C
E01C
E03C
F07C
7FFF
3FDF
1F0F
ENDCHAR
STARTCHAR 0431
ENCODING 1073
SWIDTH 531 0
DWIDTH 17 0
BBX 15 25 1 0
BITMAP
0018
0038
00F8
0FF0
1FC0
3C00
3000
7000
67C0
6FF0
FFF8
F83C
F01C
F01E
E00E
E00E
E00E
E00E
E00E
F01E
701C
783C
3FF8
1FF0
0FC0
ENDCHAR
STARTCHAR 0432
ENCODING 1074
SWIDTH 500 0
DWIDTH 16 0
BBX 13 17 2 0
BITMAP
FF80
FFE0
FFE0
E0F0
E070
E070
E0E0
FFE0
FFC0
FFF0
E070
E038
E038
E078
E0F0
FFE0
FFC0
ENDCHAR
STARTCHAR 0433
ENCODING 1075
SWIDTH 375 0
DWIDTH 12 0
BBX 9 17 2 0
BITMAP
FF80
FF80
FF80
E000
E000
E000
E000
E000
E000
E000
E000
E000
E000
E000
E000
E000
E000
ENDCHAR
STARTCHAR 0434
ENCODING 1076
SWIDTH 593 0
DWIDTH 19 0
BBX 17 21 1 -4
BITMAP
0FFE00
0FFE00
0FFE00
0E0E00
0E0E00
0E0E00
0E0E00
0E0E00
0E0E00
0E0E00
0E0E00
1C0E00
1C0E00
1C0E00
3FFE00
FFFF80
FFFF80
C00180
C00180
C00180
C00180
ENDCHAR
STARTCHAR 0435
ENCODING 1077
SWIDTH 531 0
DWIDTH 17 0
BBX 15 17 1 0
BITMAP
07E0
1FF0
3FF8
783C
701C
E00E
FFFE
FFFE
FFFE
E000
E000
F000
701E
783C
3FFC
1FF8
07E0
ENDCHAR
STARTCHAR 0436
ENCODING 1078
SWIDTH 750 0
DWIDTH 24 0
BBX 23 17 1 0
BITMAP
70381C
383838
1C3870
0E38E0
0739C0
03BB80
01FF00
00FE00
00FE00
01FF00
03BB80
0739C0
0E38E0
1C3870
383838
70381C
E0380E
ENDCHAR
STARTCHAR 0437
ENCODING 1079
SWIDTH 500 0
DWIDTH 16 0
BBX 14 17 1 0
BITMAP
1F80
7FE0
7FF0
F078
E038
0038
0078
03F0
03F0
03F8
003C
001C
E01C
F03C
7FF8
7FF0
1FC0
ENDCHAR
STARTCHAR 0438
ENCODING 1080
SWIDTH 531 0
DWIDTH 17 0
BBX 14 17 2 0
BITMAP
E03C
E07C
E07C
E0FC
E0FC
E1DC
E19C
E39C
E31C
E71C
E61C
EE1C
FC1C
FC1C
F81C
F81C
F01C
ENDCHAR
STARTCHAR 0439
ENCODING 1081
SWIDTH 531 0
DWIDTH 17 0
BBX 14 23 2 0
BITMAP
7060
3060
3FE0
1FC0
0F80
0000
E03C
E07C
E07C
E0FC
E0FC
E1DC
E19C
E39C
E31C
E71C
E61C
EE1C
FC1C
FC1C
F81C
F81C
F01C
ENDCHAR
STARTCHAR 043A
ENCODING 1082
SWIDTH 468 0
DWIDTH 15 0
BBX 13 17 2 0
BITMAP
E070
E0E0
E1C0
E380
E700
EE00
FC00
F800
F800
FC00
EE00
E700
E380
E1C0
E0E0
E070
E038
ENDCHAR
STARTCHAR 043B
ENCODING 1083
SWIDTH 500 0
DWIDTH 16 0
BBX 14 17 0 0
BITMAP
1FFC
1FFC
1FFC
1C1C
1C1C
1C1C
1C1C
1C1C
1C1C
1C1C
1C1C
3C1C
381C
381C
F81C
F01C
E01C
ENDCHAR
STARTCHAR 043C
ENCODING 1084
SWIDTH 593 0
DWIDTH 19 0
BBX 16 17 2 0
BITMAP
F00F
F00F
F81F
F81F
F83F
FC3F
EC3F
EE77
EE77
E7E7
E7E7
E3E7
E3C7
E3C7
E187
E187
E007
ENDCHAR
STARTCHAR 043D
ENCODING 1085
SWIDTH 531 0
DWIDTH 17 0
BBX 14 17 2 0
BITMAP
E01C
E01C
E01C
E01C
E01C
E01C
FFFC
FFFC
FFFC
E01C
E01C
E01C
E01C
E01C
E01C
E01C
E01C
ENDCHAR
STARTCHAR 043E
ENCODING 1086
SWIDTH 531 0
DWIDTH 17 0
BBX 15 17 1 0
BITMAP
07C0
1FF0
3FF8
783C
701C
F01E
E00E
E00E
E00E
E00E
E00E
F01E
701C
783C
3FF8
1FF0
07C0
ENDCHAR
STARTCHAR 043F
ENCODING 1087
SWIDTH 531 0
DWIDTH 17 0
BBX 14 17 2 0
BITMAP
FFFC
FFFC
FFFC
E01C
E01C
E01C
E01C
E01C
E01C
E01C
E01C
E01C
E01C
E01C
E01C
E01C
E01C
ENDCHAR
STARTCHAR 0440
ENCODING 1088
SWIDTH 562 0
DWIDTH 18 0
BBX 15 22 2 -5
BITMAP
E3C0
EFF0
EFF8
F87C
F01C
F01E
E00E
E00E
E00E
E00E
E00E
F01E
F01C
F87C
FFF8
EFF0
E3E0
E000
E000
E000
E000
E000
ENDCHAR
STARTCHAR 0441
ENCODING 1089
SWIDTH 500 0
DWIDTH 16 0
BBX 15 17 1 0
BITMAP
07E0
1FF8
3FFC
7C3C
701E
F00E
E000
E000
E000
E000
E000
F00E
701E
783C
3FFC
1FF8
07E0
ENDCHAR
STARTCHAR 0442
ENCODING 1090
SWIDTH 406 0
DWIDTH 13 0
BBX 11 17 1 0
BITMAP
FFE0
FFE0
FFE0
0E00
0E00
0E00
0E00
0E00
0E00
0E00
0E00
0E00
0E00
0E00
0E00
0E00
0E00
ENDCHAR
STARTCHAR 0443
ENCODING 1091
SWIDTH 468 0
DWIDTH 15 0
BBX 15 24 0 -7
BITMAP
E00E
700C
701C
301C
3818
3838
1838
1C70
1C70
0C70
0EE0
0EE0
06C0
07C0
07C0
0380
0380
0380
0700
0700
0F00
7E00
7C00
7800
ENDCHAR
STARTCHAR 0444
ENCODING 1092
SWIDTH 843 0
DWIDTH 27 0
BBX 25 25 1 -5
BITMAP
001C0000
001C0000
001C0000
0F9CF800
3FDDFE00
3FFFFE00
787F0F00
703E0700
F01C0780
E01C0380
E01C0380
E01C0380
E01C0380
E01C0380
E01C0780
F03E0700
787F0F00
7FFFFE00
3FDDFE00
0F9CF800
001C0000
001C0000
001C0000
001C0000
001C0000
ENDCHAR
STARTCHAR 0445
ENCODING 1093
SWIDTH 468 0
DWIDTH 15 0
BBX 14 17 1 0
BITMAP
E038
7038
7070
38E0
1CE0
1DC0
0F80
0780
0700
0F80
0FC0
1DC0
38E0
3870
7070
E038
E03C
ENDCHAR
STARTCHAR 0446
ENCODING 1094
SWIDTH 562 0
DWIDTH 18 0
BBX 16 20 2 -3
BITMAP
E01C
E01C
E01C
E01C
E01C
E01C
E01C
E01C
E01C
E01C
E01C
E01C
E01C
E01C
FFFF
FFFF
FFFF
0003
0003
0003
ENDCHAR
STARTCHAR 0447
ENCODING 1095
SWIDTH 500 0
DWIDTH 16 0
BBX 12 17 2 0
BITMAP
E070
E070
E070
E070
E070
E070
E070
E070
FFF0
7FF0
3FF0
0070
0070
0070
0070
0070
0070
ENDCHAR
STARTCHAR 0448
ENCODING 1096
SWIDTH 656 0
DWIDTH 21 0
BBX 18 17 2 0
BITMAP
E1C1C0
E1C1C0
E1C1C0
E1C1C0
E1C1C0
E1C1C0
E1C1C0
E1C1C0
E1C1C0
E1C1C0
E1C1C0
E1C1C0
E1C1C0
E1C1C0
FFFFC0
FFFFC0
FFFFC0
ENDCHAR
STARTCHAR 0449
ENCODING 1097
SWIDTH 687 0
DWIDTH 22 0
BBX 20 20 2 -3
BITMAP
E1C1C0
E1C1C0
E1C1C0
E1C1C0
E1C1C0
E1C1C0
E1C1C0
E1C1C0
E1C1C0
E1C1C0
E1C1C0
E1C1C0
E1C1C0
E1C1C0
FFFFF0
FFFFF0
FFFFF0
000030
000030
000030
ENDCHAR
STARTCHAR 044A
ENCODING 1098
SWIDTH 656 0
DWIDTH 21 0
BBX 18 17 2 0
BITMAP
FF0000
FF0000
FF0000
070000
070000
07FE00
07FF00
07FF80
0703C0
0701C0
0701C0
0701C0
0701C0
0703C0
07FF80
07FF00
07FE00
ENDCHAR
STARTCHAR 044B
ENCODING 1099
SWIDTH 687 0
DWIDTH 22 0
BBX 18 17 2 0
BITMAP
E001C0
E001C0
E001C0
E001C0
E001C0
FFC1C0
FFE1C0
FFF1C0
E079C0
E039C0
E039C0
E039C0
E039C0
E079C0
FFF1C0
FFE1C0
FFC1C0
ENDCHAR
STARTCHAR 044C
ENCODING 1100
SWIDTH 500 0
DWIDTH 16 0
BBX 13 17 2 0
BITMAP
E000
E000
E000
E000
E000
FFC0
FFE0
FFF0
E078
E038
E038
E038
E038
E078
FFF0
FFE0
FFC0
ENDCHAR
STARTCHAR 044D
ENCODING 1101
SWIDTH 500 0
DWIDTH 16 0
BBX 14 17 1 0
BITMAP
0FC0
3FE0
7FF8
7838
F01C
E00C
07FC
07FC
07FC
000C
000C
E01C
F01C
7878
7FF0
3FE0
0FC0
ENDCHAR
STARTCHAR 044E
ENCODING 1102
SWIDTH 750 0
DWIDTH 24 0
BBX 21 17 2 0
BITMAP
E03F00
E0FFC0
E1FFE0
E1E0F0
E3C070
E38038
FF8038
FF8038
FF8038
E38038
E38038
E3C078
E1C070
E1E0F0
E0FFE0
E07FC0
E01F00
ENDCHAR
STARTCHAR 044F
ENCODING 1103
SWIDTH 531 0
DWIDTH 17 0
BBX 14 17 1 0
BITMAP
0FFC
3FFC
3FFC
781C
701C
701C
781C
3FFC
3FFC
0FFC
071C
0F1C
1E1C
3C1C
381C
701C
E01C
ENDCHAR
STARTCHAR 0450
ENCODING 1104
SWIDTH 531 0
DWIDTH 17 0
BBX 15 24 1 0
BITMAP
0E00
0700
0300
0180
0180
0000
0000
07E0
1FF0
3FF8
783C
701C
E00E
FFFE
FFFE
FFFE
E000
E000
F000
701E
783C
3FFC
1FF8
07E0
ENDCHAR
STARTCHAR 0451
ENCODING 1105
SWIDTH 531 0
DWIDTH 17 0
BBX 15 23 1 1
BITMAP
0E38
0E38
0E38
0000
0000
0000
07E0
1FF0
3FF8
783C
701C
E00E
FFFE
FFFE
FFFE
E000
E000
F000
701E
783C
3FFC
1FF8
07E0
ENDCHAR
STARTCHAR 0452
ENCODING 1106
SWIDTH 562 0
DWIDTH 18 0
BBX 16 29 1 -5
BITMAP
3800
3800
3800
FFC0
FFC0
3800
3800
38F8
39FE
3BFF
3E1F
3C07
3C07
3807
3807
3807
3807
3807
3807
3807
3807
3807
3807
3806
000E
000C
0018
0070
00C0
ENDCHAR
STARTCHAR 0453
ENCODING 1107
SWIDTH 375 0
DWIDTH 12 0
BBX 9 24 2 0
BITMAP
0700
0E00
1C00
1800
3000
0000
0000
FF80
FF80
FF80
E000
E000
E000
E000
E000
E000
E000
E000
E000
E000
E000
E000
E000
E000
ENDCHAR
STARTCHAR 0454
ENCODING 1108
SWIDTH 500 0
DWIDTH 16 0
BBX 14 17 2 0
BITMAP
0FC0
3FF0
7FF8
7078
E03C
C01C
FF80
FF80
FF80
C000
C000
E01C
E03C
7878
3FF8
1FF0
0FC0
ENDCHAR
STARTCHAR 0455
ENCODING 1109
SWIDTH 500 0
DWIDTH 16 0
BBX 13 17 2 0
BITMAP
0F80
3FE0
7FE0
F0F0
E070
E000
F800
7F80
3FE0
0FF0
00F8
0038
E038
F078
7FF0
7FE0
1F80
ENDCHAR
STARTCHAR 0456
ENCODING 1110
SWIDTH 218 0
DWIDTH 7 0
BBX 3 24 2 0
BITMAP
E0
E0
E0
00
00
00
00
E0
E0
E0
E0
E0
E0
E0
E0
E0
E0
E0
E0
E0
E0
E0
E0
E0
ENDCHAR
STARTCHAR 0457
ENCODING 1111
SWIDTH 250 0
DWIDTH 8 0
BBX 9 23 0 0
BITMAP
E380
E380
E380
0000
0000
0000
1C00
1C00
1C00
1C00
1C00
1C00
1C00
1C00
1C00
1C00
1C00
1C00
1C00
1C00
1C00
1C00
1C00
ENDCHAR
STARTCHAR 0458
ENCODING 1112
SWIDTH 250 0
DWIDTH 8 0
BBX 6 31 0 -7
BITMAP
1C
1C
1C
00
00
00
00
1C
1C
1C
1C
1C
1C
1C
1C
1C
1C
1C
1C
1C
1C
1C
1C
1C
1C
1C
1C
1C
FC
F8
F0
ENDCHAR
STARTCHAR 0459
ENCODING 1113
SWIDTH 781 0
DWIDTH 25 0
BBX 24 17 1 0
BITMAP
3FF800
3FF800
3FF800
383800
383800
383800
383FF8
383FFE
383FFE
38380F
383807
383807
703807
70380F
F03FFE
E03FFC
C03FF8
ENDCHAR
STARTCHAR 045A
ENCODING 1114
SWIDTH 843 0
DWIDTH 27 0
BBX 24 17 2 0
BITMAP
E01C00
E01C00
E01C00
E01C00
E01C00
E01C00
FFFFF8
FFFFFE
FFFFFE
E01C0F
E01C07
E01C07
E01C07
E01C0F
E01FFE
E01FFC
E01FF8
ENDCHAR
STARTCHAR 045B
ENCODING 1115
SWIDTH 593 0
DWIDTH 19 0
BBX 16 24 1 0
BITMAP
3800
3800
3800
FFC0
FFC0
3800
3800
38F8
39FE
3BFF
3E0F
3C07
3C07
3807
3807
3807
3807
3807
3807
3807
3807
3807
3807
3807
ENDCHAR
STARTCHAR 045C
ENCODING 1116
SWIDTH 468 0
DWIDTH 15 0
BBX 13 24 2 0
BITMAP
0380
0300
0700
0E00
0C00
0000
0000
E070
E0E0
E1C0
E380
E700
EE00
FC00
F800
F800
FC00
EE00
E700
E380
E1C0
E0E0
E070
E038
ENDCHAR
STARTCHAR 045D
ENCODING 1117
SWIDTH 531 0
DWIDTH 17 0
BBX 14 24 2 0
BITMAP
1E00
0E00
0700
0300
0180
0000
0000
E03C
E07C
E07C
E0FC
E0FC
E1DC
E19C
E39C
E31C
E71C
E61C
EE1C
FC1C
FC1C
F81C
F81C
F01C
ENDCHAR
STARTCHAR 045E
ENCODING 1118
SWIDTH 468 0
DWIDTH 15 0
BBX 15 30 0 -7
BITMAP
3030
3870
1FF0
1FE0
0FC0
0000
E00E
700C
701C
301C
3818
3838
1838
1C70
1C70
0C70
0EE0
0EE0
06C0
07C0
07C0
0380
0380
0380
0700
0700
0F00
7E00
7C00
7800
ENDCHAR
STARTCHAR 045F
ENCODING 1119
SWIDTH 531 0
DWIDTH 17 0
BBX 14 20 2 -3
BITMAP
E01C
E01C
E01C
E01C
E01C
E01C
E01C
E01C
E01C
E01C
E01C
E01C
E01C
E01C
FFFC
FFFC
FFFC
0600
0600
0600
ENDCHAR
STARTCHAR 0460
ENCODING 1120
SWIDTH 937 0
DWIDTH 30 0
BBX 29 24 0 0
BITMAP
E0000038
E0070038
E0070038
E0070038
E0070038
E0070038
E0070070
60070070
700F0070
700F8070
700F8070
701F80E0
781F80E0
381DC0E0
383DC1C0
3C39E1C0
1C78E3C0
1E70F380
1EF0F780
0FF07F80
0FE07F00
07E03F00
07C03E00
03C01E00
ENDCHAR
STARTCHAR 0461
ENCODING 1121
SWIDTH 687 0
DWIDTH 22 0
BBX 22 17 0 0
BITMAP
E0001C
E0381C
E0381C
E0381C
E0381C
F0381C
707C38
707C38
707C38
78FC38
38EE70
3CEE70
3DEE70
1DC7E0
1FC7E0
0F83C0
0783C0
ENDCHAR
STARTCHAR 0462
ENCODING 1122
SWIDTH 812 0
DWIDTH 26 0
BBX 24 24 1 0
BITMAP
038000
038000
038000
FFFE00
FFFE00
FFFE00
038000
038000
038000
03FFE0
03FFF8
03FFFC
03803E
03800E
038007
038007
038007
038007
038007
03800E
03803E
03FFFC
03FFF8
03FFE0
ENDCHAR
STARTCHAR 0463
ENCODING 1123
SWIDTH 625 0
DWIDTH 20 0
BBX 18 20 1 0
BITMAP
070000
070000
070000
FFF800
FFF800
FFF800
070000
070000
070000
07FE00
07FF00
07FF80
0703C0
0701C0
0701C0
0701C0
0703C0
07FF80
07FF80
07FE00
ENDCHAR
STARTCHAR 0464
ENCODING 1124
SWIDTH 937 0
DWIDTH 30 0
BBX 26 24 3 0
BITMAP
E007F800
E01FFE00
E03FFF00
E07C0F80
E0F00380
E1E003C0
E1C001C0
E1C00000
E3800000
E3800000
FFFFF000
FFFFF000
FFFFF000
E3800000
E3800000
E38001C0
E1C001C0
E1C003C0
E1E00380
E0F00780
E07C1F00
E03FFE00
E01FFC00
E007F000
ENDCHAR
STARTCHAR 0465
ENCODING 1125
SWIDTH 687 0
DWIDTH 22 0
BBX 20 17 2 0
BITMAP
E03F00
E0FFC0
E1FFE0
E3C1E0
E780F0
E70070
FFFE00
FFFE00
FFFE00
E70000
E70000
E78070
E380F0
E3E1E0
E1FFE0
E0FFC0
E03F00
ENDCHAR
STARTCHAR 0466
ENCODING 1126
SWIDTH 781 0
DWIDTH 25 0
BBX 24 24 1 0
BITMAP
003800
007C00
007C00
00FE00
00EE00
00EF00
01C700
01C700
038380
038380
0781C0
0701C0
0700E0
0E00E0
0FFFF0
1FFFF0
1FFFF0
3C3838
383838
38383C
70381C
70381E
E0380E
E0380F
ENDCHAR
STARTCHAR 0467
ENCODING 1127
SWIDTH 562 0
DWIDTH 18 0
BBX 16 17 1 0
BITMAP
03C0
03C0
03E0
07E0
0760
0E70
0E70
1C38
1C38
1C38
3C7C
3E7C
7EEE
77EE
E7CE
E3C7
E387
ENDCHAR
STARTCHAR 0468
ENCODING 1128
SWIDTH 1031 0
DWIDTH 33 0
BBX 30 24 3 0
BITMAP
E000E000
E001F000
E001F000
E003F800
E003B800
E007BC00
E0071C00
E00F1C00
E00E0E00
E00E0E00
E01C0700
E01C0700
E0380780
E0380380
FFFFFFC0
FFFFFFC0
FFFFFFC0
E0E0E0E0
E0E0E0E0
E1E0E0F0
E1C0E070
E3C0E078
E380E038
E780E03C
ENDCHAR
STARTCHAR 0469
ENCODING 1129
SWIDTH 750 0
DWIDTH 24 0
BBX 21 17 2 0
BITMAP
E00E00
E01E00
E01F00
E03F00
E03B80
E03380
E07380
E061C0
E0E1C0
FFE1E0
FFE3E0
FFF3E0
E1F3F0
E3BF70
E3BF78
E71E38
E71E38
ENDCHAR
STARTCHAR 046A
ENCODING 1130
SWIDTH 906 0
DWIDTH 29 0
BBX 27 24 1 0
BITMAP
07FFFC00
07FFFC00
03FFF800
01C07000
00E0E000
00F1E000
0071C000
003B8000
003F8000
001F0000
001F0000
003F8000
007FC000
00FFE000
01EEF000
01CE7000
038E3800
078E3C00
0F0E1E00
1E0E0F00
3C0E0780
780E03C0
700E01C0
E00E01E0
ENDCHAR
STARTCHAR 046B
ENCODING 1131
SWIDTH 750 0
DWIDTH 24 0
BBX 23 17 1 0
BITMAP
1FFFF0
0FFFE0
07FFE0
0383C0
03C780
01EF00
00FE00
007C00
00FE00
01FF00
03BB80
0739C0
0E38E0
1C3870
383838
70381C
E0380E
ENDCHAR
STARTCHAR 046C
ENCODING 1132
SWIDTH 1125 0
DWIDTH 36 0
BBX 32 24 3 0
BITMAP
E07FFFE0
E03FFFE0
E01FFFC0
E00E0380
E0070700
E0038E00
E003DE00
E001FC00
E000F800
FFFFF800
FFFFFC00
FFFFFE00
E003FE00
E007FF00
E00F7780
E01E73C0
E03C71E0
E03870E0
E07070F0
E0F07078
E1E0703C
E3C0701E
E780700E
EF00700F
ENDCHAR
STARTCHAR 046D
ENCODING 1133
SWIDTH 937 0
DWIDTH 30 0
BBX 27 17 2 0
BITMAP
E1FFFF00
E0FFFE00
E07FFC00
E0383800
E01C7000
E00EE000
E007E000
FFFFC000
FFFFE000
FFFFF000
E03FF800
E07BBC00
E0F38E00
E1E38700
E3C38380
E78381C0
EF0380E0
ENDCHAR
STARTCHAR 046E
ENCODING 1134
SWIDTH 656 0
DWIDTH 21 0
BBX 19 31 1 -6
BITMAP
060C00
03F800
0FFE00
1FFF00
3E0F80
380380
7001C0
7001C0
7001C0
0003C0
000380
000F80
01FE00
01FE00
01FF80
0007C0
0001E0
0000E0
0000E0
0000E0
0001E0
0003C0
1FFF80
7FFF00
FFFC00
E00000
E00000
F00000
FFFC00
7FFC00
1FFC00
ENDCHAR
STARTCHAR 046F
ENCODING 1135
SWIDTH 500 0
DWIDTH 16 0
BBX 13 24 2 -6
BITMAP
20C0
3FC0
3FC0
7FE0
F0F0
E070
0070
0070
00F0
07E0
07E0
07F0
0078
0038
0078
3FF0
7FF0
FFC0
E000
E000
E1C0
FFC0
7FC0
3E00
ENDCHAR
STARTCHAR 0470
ENCODING 1136
SWIDTH 750 0
DWIDTH 24 0
BBX 21 24 2 0
BITMAP
C00018
E07038
E07038
E07038
E07038
E07038
E07038
E07038
E07038
E07038
E07038
E07038
E07038
E07038
F07078
7870F0
7FFFF0
3FFFE0
0FFF80
007000
007000
007000
007000
007000
ENDCHAR
ENDFONT
